<svg width="175" height="172" viewBox="0 0 175 172" fill="none" xmlns="http://www.w3.org/2000/svg">
<path d="M168.761 99.2468V103.572H66.8826C67.7764 102.14 68.8154 100.763 69.5769 99.2468H168.761Z" fill="white"/>
<path d="M48.2836 99.2468C47.2833 100.778 46.1216 102.183 44.9826 103.572H6.23889V99.2468H48.2836Z" fill="white"/>
<path d="M40.3328 81.7781C40.5199 82.4322 41.033 82.8016 41.246 83.4942C42.1011 86.253 40.578 89.539 40.3457 92.2901C40.065 95.63 43.0142 96.8997 45.0471 94.9181C45.1278 95.5338 44.6179 95.7723 44.2372 95.957C40.9685 97.5462 38.6033 93.8639 38.8517 90.1931C38.9872 88.1846 40.4683 84.7755 40.165 83.017C39.8359 81.1124 38.2773 82.4668 37.2964 81.6357C35.8024 84.4407 34.6537 87.8229 32.6499 90.1931C29.6393 93.7523 23.0632 97.423 18.9491 94.9489C17.4809 94.0678 16.558 92.117 17.3195 90.2277C17.8842 88.8233 20.0817 88.6886 19.9816 90.4932C19.8881 92.1824 18.0359 92.8134 17.7616 90.9126C16.9711 92.4133 18.407 94.2025 19.5396 94.7258C20.485 95.1606 21.9919 95.326 22.9986 95.2183C33.0532 94.164 35.1054 74.3942 44.5114 71.2044C44.7954 71.5161 43.1982 72.3472 42.9884 72.5165C40.7749 74.2749 39.468 77.0376 38.1225 79.7118C38.0128 79.9311 37.4126 81.0162 37.5062 81.1393C39.8714 81.9666 41.4718 81.1893 43.3014 79.4617C47.5349 75.4562 51.3877 68.3263 57.6411 69.2959C60.9227 69.8038 61.31 74.3173 59.2029 76.8914C58.6834 77.5263 56.0019 79.5271 55.3663 79.3771C55.2598 79.3501 55.0952 79.1423 55.2953 78.9769C55.6567 78.6768 56.5666 78.4151 57.0894 78.065C62.7007 74.2865 59.2545 66.7833 53.0979 70.9158C48.6869 73.8786 45.9828 81.0893 40.336 81.7819L40.3328 81.7781Z" fill="white"/>
<path d="M95.0458 74.8865L88.3083 88.0266C90.4218 89.0077 91.4705 86.0373 92.8871 84.7406C94.3036 83.4439 96.0719 83.9749 95.5234 86.4336C95.2039 87.8611 93.1033 89.3617 92.9129 87.7534C92.7838 86.6568 94.11 86.2258 94.2843 85.7487C94.6037 84.8752 94.1197 84.6251 93.4647 84.9484C93.1452 85.1061 90.4251 88.1574 90.3347 88.4383C90.2444 88.7192 91.2479 89.1232 91.3479 89.4695C92.3353 90.8931 90.9284 92.8978 90.6025 94.3677C90.9994 95.6451 92.545 93.979 93.0355 93.4057C94.11 92.1437 95.0942 89.785 96.0364 88.723C96.1138 88.6384 96.2881 88.5614 96.3978 88.5114C96.5817 88.7961 94.8038 91.528 94.5101 91.9513C93.555 93.3211 91.5286 96.203 89.8636 94.9217C88.0599 93.5327 89.9636 91.3049 90.2476 89.7542C90.5703 87.9996 88.6084 89.4118 87.9211 88.6768L84.8783 95.0795H82.9229L92.9613 74.8865H95.049H95.0458Z" fill="white"/>
<path d="M140.866 75.0483L132.673 90.8625C132.418 91.4936 131.085 94.1793 131.695 94.6872C132.512 95.3683 134.089 93.3405 134.602 92.6748C135.067 92.0707 137.1 88.627 137.297 88.5077C137.513 88.3769 137.532 88.6001 137.442 88.8425C136.971 90.0968 134.46 93.5637 133.518 94.4333C131.26 96.5226 130.014 94.2986 130.353 91.5513C129.152 92.9365 127.2 96.8189 125.303 94.5949C124.245 93.3559 124.448 90.9857 125.077 89.5197C125.864 87.6804 128.485 85.4911 130.088 84.7408C131.056 84.2906 133.26 83.371 133.186 85.3756L133.454 85.4603L138.646 75.0483C139.068 74.6289 140.265 75.2599 140.869 75.0483H140.866ZM132.747 84.7023C132.57 84.4907 132.179 84.4907 131.937 84.533C130.053 84.86 126.681 89.9506 126.11 92.04C125.755 93.3443 125.693 95.6453 127.323 94.6026C128.73 93.7022 131.23 89.5966 132.037 87.8728C132.36 87.1841 133.289 85.3526 132.744 84.7023H132.747Z" fill="white"/>
<path d="M65.805 84.0213H67.8927L68.0927 84.2598L67.8927 84.4984H65.1983C62.6331 89.9853 60.4195 96.234 56.4409 100.528C54.5791 102.537 51.4039 105.134 48.758 104.526C48.2546 104.411 48.0513 103.88 48.8516 103.933C50.0971 104.01 50.5488 104.214 51.7847 103.649C53.7627 102.744 55.4826 100.559 56.6119 98.4927C58.9804 94.1601 60.8196 89.158 63.1042 84.7369C63.2074 84.3291 62.3362 84.5138 62.0942 84.5022C61.8877 84.4907 61.5618 84.6523 61.6263 84.2637C62.0071 83.7019 63.1235 84.2406 63.4849 83.9866C63.5495 83.9405 64.127 82.6707 64.2658 82.4321C65.6114 80.0965 68.9091 74.8751 71.0968 73.8901C72.9974 73.0321 73.1039 74.6751 72.4714 76.3257C71.3001 79.3886 67.9024 81.8973 65.805 84.0213ZM65.9373 83.0593C66.118 83.2363 67.841 81.4856 68.096 81.2201C69.2092 80.0581 71.7002 77.1107 72.252 75.587C72.494 74.9213 72.7522 73.9825 71.8132 74.0902C69.8449 74.3134 66.7472 80.9969 65.9373 83.0593Z" fill="white"/>
<path d="M74.5623 84.0214H76.5177C76.5629 84.0214 76.7177 84.233 76.8533 84.183C76.892 84.2446 76.6758 84.5024 76.65 84.5024H73.9556C71.7969 89.035 70.0319 93.9217 67.2182 97.9657C65.4757 100.474 62.0457 104.122 59.2513 104.518C58.6931 104.595 57.0732 104.819 57.0442 103.895C59.8418 104.718 62.1263 102.972 63.985 100.69C67.0601 95.7301 69.2284 90.0431 71.8647 84.7409C71.9002 84.4139 71.855 84.5331 71.6679 84.5024C71.2129 84.4293 70.6966 84.6216 70.2513 84.4216C70.716 83.6751 71.5807 84.1753 72.2455 83.9868C72.9553 82.5015 73.762 81.0586 74.6462 79.7119C75.7368 78.0497 78.899 73.7402 80.6963 73.7517C82.3613 73.7633 81.3191 76.1066 80.7931 77.0877C79.2378 79.9889 76.7629 81.9013 74.5623 84.0214ZM74.5623 83.0595C74.8172 83.2942 76.4919 81.5935 76.7823 81.2933C77.7019 80.3352 81.403 75.9373 81.303 74.6521C81.2029 73.367 79.7638 74.4943 79.3476 74.8907C77.2405 76.88 75.9401 80.3776 74.559 83.0595H74.5623Z" fill="white"/>
<path d="M105.829 84.3445H107.985C107.065 86.6993 105.697 88.7848 104.681 91.0704C104.345 91.8284 103.509 93.4829 103.732 94.2833C103.977 95.1683 104.761 94.6681 105.223 94.2756C105.846 93.7484 107.104 91.9977 107.653 91.2359C108.143 90.5471 108.792 89.1619 109.266 88.6655C109.382 88.5424 109.414 88.4578 109.605 88.5078C109.618 88.6348 109.608 88.7464 109.576 88.8733C109.45 89.362 107.588 92.0477 107.175 92.5903C106.223 93.8446 104.439 96.3187 102.971 94.7604C102.222 93.9678 102.574 92.8865 102.393 91.8707C101.851 91.8861 100.486 95.0605 99.0274 95.2414C96.9332 95.4992 96.4202 92.8327 96.6977 90.8665C97.0623 88.3 100.283 85.6335 102.193 84.7408C103.296 84.2252 104.848 83.5173 105.491 85.1372L105.826 84.3407L105.829 84.3445ZM104.852 84.7024C104.413 84.1829 103.448 84.7678 103.009 85.0794C101.241 86.3184 97.9303 91.0512 98.0013 93.5599C98.0336 94.7373 98.6531 95.0605 99.5179 94.5449C100.486 93.9678 102.77 90.4548 103.435 89.2658C103.877 88.4809 105.529 85.5027 104.855 84.7024H104.852Z" fill="white"/>
<path d="M58.5253 84.3446L54.679 92.0285C54.4241 92.6634 53.4915 95.0375 54.7984 94.8874C55.2727 94.8335 57.1119 92.5826 57.5153 92.0401C58.1058 91.2436 59.2158 89.085 59.7353 88.5886C59.8321 88.4963 59.9967 88.4347 60.0096 88.5925C60.0289 88.7387 59.9902 88.8695 59.9483 89.0003C59.6482 89.9469 56.9216 93.5445 56.1697 94.2833C53.9852 96.4304 52.5493 94.6719 52.8623 91.7169C52.0492 92.5903 51.5135 93.7946 50.6165 94.5719C48.2674 96.6035 46.7089 93.76 47.0993 91.032C47.4672 88.4655 50.6681 85.6451 52.5945 84.7486C53.527 84.3138 55.6147 83.4249 55.8277 85.1449L56.1052 85.0449L56.4311 84.3407H58.5188L58.5253 84.3446ZM54.4499 84.5408C52.5751 84.9025 49.2096 90.097 48.6514 92.2325C48.2577 93.7408 48.4191 95.6916 50.0324 94.5142C51.3522 93.5445 55.092 87.7421 55.3985 85.9952C55.4598 85.6374 55.5018 85.0256 55.3082 84.7332C55.0726 84.4254 54.7629 84.4831 54.4531 84.5446L54.4499 84.5408Z" fill="white"/>
<path d="M148.01 95.0797C147.961 94.8335 148.094 94.7296 148.171 94.5526C149.22 92.167 150.849 89.8583 151.891 87.4381C152.027 87.1226 152.717 85.3949 152.727 85.2102C152.798 83.8019 151.537 85.0178 151.172 85.4603C150.478 86.2953 149.749 88.0537 149.097 88.7232C148.971 88.8502 148.761 88.9464 148.687 88.754C149.555 87.7151 151.282 84.2406 152.53 84.1752C153.973 84.0982 153.84 86.0914 153.773 87.2726C153.763 87.4535 153.502 87.5881 153.873 87.5497C154.792 86.076 157.487 82.3783 158.929 85.0679C159.745 86.5877 158.923 88.1076 158.326 89.4774C157.9 90.4509 156.257 93.2213 156.225 94.0447C156.193 94.8681 156.612 94.8912 157.216 94.7296C157.771 94.5795 158.787 93.2905 159.194 92.7557C159.652 92.1554 161.736 88.6463 161.962 88.5154C162.188 88.3846 162.194 88.6809 162.133 88.881C161.94 89.5159 160.033 92.1977 159.536 92.8442C158.603 94.0562 156.725 96.4572 155.367 94.5949C153.757 92.3901 156.286 89.2581 157.232 87.3804C157.671 86.5108 159.016 83.9789 157.038 84.5869C155.06 85.1948 151.533 92.2978 150.323 94.5564C150.236 94.718 150.178 94.8912 150.168 95.0874H148.013L148.01 95.0797Z" fill="white"/>
<path d="M110.276 95.0797C110.224 94.8296 110.334 94.7027 110.405 94.5103C111.263 92.217 113.145 89.6736 114.161 87.2803C114.374 86.7801 115.323 84.7601 114.635 84.5177C113.777 84.2175 111.68 88.3654 111.018 88.9887C110.889 88.9772 110.941 88.7271 110.976 88.6194C111.076 88.3269 113.406 85.0102 113.693 84.7177C115.423 82.9516 116.555 85.645 115.939 87.5458C117.03 86.2761 119.253 82.6092 120.931 84.737C122.78 87.0803 119.263 91.232 118.569 93.4829C117.93 95.553 119.705 94.6873 120.521 93.8792C121.337 93.0712 123.958 88.6463 124.229 88.5116C124.396 88.427 124.48 88.5463 124.425 88.7463C124.303 89.2235 122.902 91.2705 122.538 91.7899C121.544 93.2059 119.517 96.311 117.833 94.8296C115.3 92.6018 119.705 87.6767 120.366 85.3449C120.434 85.0717 120.173 84.6908 119.979 84.5869C118.869 83.9905 116.984 86.6955 116.349 87.6343C114.79 89.9276 113.661 92.6672 112.235 95.0797H110.279H110.276Z" fill="white"/>
<path d="M84.8042 88.5117C83.4135 91.2898 78.2894 98.2734 75.6402 93.8793C73.6912 90.6472 76.818 87.0726 79.0541 85.5989C80.1673 84.8679 84.2137 82.7824 84.2782 85.5451C84.3492 88.7541 79.3058 89.0234 77.5311 90.0354C76.8793 91.2628 75.5208 94.468 77.5924 94.7604C80.6804 95.1991 82.4906 90.7703 84.2847 88.7733C84.4622 88.5771 84.4783 88.427 84.8042 88.5117ZM78.07 89.312C79.6478 88.6579 81.5871 87.9961 82.7068 86.4147C83.2328 85.6759 83.7845 84.3022 82.4583 84.51C81.7065 84.6293 79.6511 86.8148 79.0767 87.5497C78.9379 87.7306 77.9506 89.1697 78.07 89.3159V89.312Z" fill="white"/>
<path d="M140.098 90.1585C139.472 90.9704 138.571 94.2025 139.914 94.6873C141.727 95.3414 143.902 93.0943 145.038 91.6283C145.628 90.8665 146.403 89.2966 146.971 88.7194C147.109 88.5771 147.274 88.477 147.468 88.5078C146.016 91.1858 141.927 97.2153 138.91 94.595C137.552 93.4137 137.539 91.2743 138.187 89.5698C139.11 87.1495 142.873 84.3484 145.102 84.1714C147.522 83.9828 147.49 86.38 145.841 87.7729C144.567 88.8464 140.511 89.616 140.098 90.1546V90.1585ZM140.733 89.3081C142.292 88.9041 145.519 87.3035 145.932 85.3026C146.006 84.9371 145.951 84.6485 145.622 84.5331C144.567 84.156 142.411 86.6262 141.74 87.5459C141.608 87.7267 140.604 89.1735 140.733 89.3081Z" fill="white"/>
<path d="M38.8519 74.0863C39.2133 74.5866 37.3805 76.6297 37.0094 76.9414C34.6506 78.9076 32.3435 77.2184 33.0147 73.7939C33.4019 71.82 35.7187 69.1227 33.2438 67.853C28.3455 65.3442 19.6914 73.944 21.8049 80.3313C22.7665 83.2363 25.5931 83.3671 27.7131 82.2321C28.9941 81.5472 29.8686 80.3736 30.8334 79.2116C31.027 80.1735 29.8686 81.1624 29.2716 81.6818C25.2414 85.1679 20.1915 83.1786 21.2305 76.6066C21.8759 72.5319 25.7222 68.4571 29.0102 67.4297C32.592 66.31 36.2995 67.1642 34.8087 72.5626C34.4118 73.9979 32.3919 77.5917 35.2766 77.2877C36.7545 77.1338 37.5418 75.5716 38.4163 74.448C38.5485 74.2749 38.555 74.0017 38.8486 74.0825L38.8519 74.0863Z" fill="white"/>
</svg>
