<svg width="35" height="35" viewBox="0 0 35 35" fill="none" xmlns="http://www.w3.org/2000/svg">
<path d="M32.5451 28.9332C32.815 29.0239 33.0849 29.0692 33.3665 29.1372C33.8477 29.2506 34.3054 29.4319 34.763 29.6132C34.8569 29.6472 34.9508 29.6926 34.986 29.7832C35.0212 29.8626 34.986 29.9532 34.9273 30.0212C34.8686 30.0779 34.7865 30.1232 34.7044 30.1459C34.0707 30.3613 33.3783 30.2139 32.7563 29.9872C32.3221 29.8286 31.8879 29.6246 31.6415 29.2506C31.5358 29.0919 31.4772 28.8992 31.5241 28.7179C31.5711 28.5139 31.7705 28.3439 31.9466 28.5025C32.1461 28.6839 32.2869 28.8425 32.5568 28.9445L32.5451 28.9332Z" fill="black"/>
<path d="M31.3595 25.6578C31.4768 25.9865 31.5472 26.3378 31.6528 26.6665C31.8406 27.2672 32.1457 27.8452 32.1222 28.4685C32.1222 28.5479 32.1105 28.6385 32.0518 28.6952C32.0049 28.7519 31.9227 28.7632 31.8406 28.7519C31.6294 28.7292 31.4768 28.5479 31.3595 28.3665C30.761 27.4485 30.3385 26.4285 30.1038 25.3631C30.0451 25.1138 30.0099 24.8531 30.1038 24.6151C30.2211 24.3431 30.6436 24.1391 30.7962 24.4564C30.9839 24.8531 31.1952 25.2384 31.3477 25.6465L31.3595 25.6578Z" fill="black"/>
<path d="M26.0783 32.6847C26.4069 32.9453 26.8059 33.0927 27.1932 33.2513C27.557 33.3987 27.8973 33.58 28.2494 33.75C28.6484 33.954 29.0943 34.226 29.1882 34.6567C29.1999 34.7247 29.2117 34.7927 29.1882 34.8494C29.1295 34.9967 28.93 35.0081 28.7657 34.9967C27.8269 34.8947 27.0289 34.328 26.3131 33.7274C25.9141 33.3987 25.5151 33.0473 25.1395 32.6847C25.0456 32.594 24.94 32.492 24.8931 32.3673C24.8461 32.2426 24.8579 32.084 24.9518 31.9933C25.3977 31.608 25.8436 32.492 26.0666 32.6847H26.0783Z" fill="black"/>
<path d="M23.0509 28.5932C23.5085 29.2165 23.9662 29.8626 24.1657 30.5993C24.2713 31.0299 24.2948 31.4946 24.5178 31.8913C24.7407 32.288 25.2688 32.5713 25.6561 32.3333C25.7265 32.288 25.7969 32.22 25.8321 32.1406C25.8556 32.0726 25.8556 32.0046 25.8556 31.9366C25.8321 30.7806 25.2571 29.6812 24.4943 28.7972C24.0836 28.3212 23.6141 27.9018 23.0978 27.5392C22.8983 27.4032 22.6871 27.2672 22.4406 27.2672C22.2998 27.2672 22.0886 27.3465 22.0182 27.4825C21.9008 27.7318 22.0182 27.6185 22.1355 27.7092C22.4876 27.9698 22.7692 28.1965 23.0509 28.5819V28.5932Z" fill="black"/>
<path d="M20.5513 30.6106C20.6452 30.7353 20.7391 30.8713 20.7039 31.0186C20.6687 31.1546 20.5279 31.2339 20.3988 31.2453C20.258 31.2566 20.1289 31.2226 19.988 31.1773C19.7651 31.1093 19.5538 31.0299 19.3309 30.9393C19.1431 30.8599 18.9671 30.7806 18.8028 30.6559C18.4742 30.3953 17.6527 28.6272 18.4038 28.5932C18.7441 28.5819 19.2957 29.2392 19.5186 29.4546C19.8942 29.8172 20.2345 30.2026 20.5513 30.5993V30.6106Z" fill="black"/>
<path d="M18.427 28.4459C18.4387 28.5705 18.4622 28.7065 18.3801 28.7972C18.2862 28.9219 18.0984 28.9445 17.9576 28.8765C17.8168 28.8085 17.7111 28.6839 17.629 28.5479C16.9836 27.5278 17.0892 26.2358 16.7137 25.0911C16.655 24.8984 16.5728 24.7057 16.5846 24.5017C16.608 24.2411 16.7958 23.9917 17.0422 23.901C18.0515 23.5384 17.9459 25.0004 18.028 25.5671C18.1571 26.5191 18.2862 27.4825 18.4153 28.4345L18.427 28.4459Z" fill="black"/>
<path d="M13.5101 26.2924C13.5218 26.3831 13.5101 26.4738 13.4983 26.5758C13.3927 27.3465 13.1346 28.0945 12.759 28.7745C12.7121 28.8539 12.6651 28.9332 12.5947 28.9899C12.5243 29.0465 12.407 29.0579 12.3366 29.0125C12.2544 28.9559 12.2427 28.8312 12.2427 28.7179C12.2661 28.2985 12.3366 27.8905 12.4539 27.4938C12.5713 27.0858 12.7473 26.6778 12.7473 26.2584C12.7473 26.1451 12.7473 26.0318 12.7942 25.9411C13.0759 25.5104 13.4749 25.9864 13.5101 26.2924Z" fill="black"/>
<path d="M12.7005 24.2184C12.9586 24.5244 13.2285 24.8418 13.3811 25.2044C13.4867 25.4651 13.5102 25.8051 13.2755 25.9751C13.0995 26.0998 12.8413 26.0545 12.6653 25.9298C12.4892 25.8051 12.3719 25.6238 12.2545 25.4424C11.8907 24.8758 11.4917 24.3204 11.081 23.7764C11.0458 23.731 11.0106 23.6744 11.0223 23.6177C11.0341 23.561 11.081 23.527 11.1279 23.5044C11.4448 23.323 11.6443 23.119 11.9377 23.3344C12.231 23.5497 12.454 23.9351 12.677 24.2071L12.7005 24.2184Z" fill="black"/>
<path d="M9.79043 21.7703C9.89605 22.3823 10.2129 22.9603 10.694 23.3797C10.8231 23.493 10.964 23.595 11.1282 23.629C11.2925 23.6744 11.4803 23.629 11.5977 23.5157C11.762 23.3344 11.6915 23.051 11.6329 22.813C11.5272 22.3937 11.5038 21.963 11.5859 21.5436C11.6211 21.3623 11.6798 21.1923 11.6446 21.0109C11.6094 20.8409 11.5038 20.7049 11.3982 20.5689C11.14 20.2629 10.518 19.7756 10.0955 20.1042C9.69655 20.4103 9.73176 21.3396 9.80217 21.7703H9.79043Z" fill="black"/>
<path d="M5.08467 11.434C4.76782 11.2186 4.40403 10.9806 4.01676 11.0373C3.88768 11.0599 3.73512 11.1393 3.74685 11.2753C3.74685 11.3886 3.88768 11.4566 4.00503 11.502C4.72088 11.7853 5.41326 12.148 6.04696 12.5787C6.68066 13.0093 7.20874 13.5874 7.79551 14.1087C8.11236 13.8594 7.79551 13.6327 7.59601 13.4287C7.34957 13.1793 7.07966 12.93 6.80975 12.7033C6.26993 12.25 5.68317 11.8306 5.0964 11.434H5.08467Z" fill="black"/>
<path d="M2.30284 13.9954C2.0564 13.984 1.80996 13.984 1.57526 14.0294C1.36402 14.0634 1.15279 14.1427 0.965026 14.256C0.847673 14.324 0.718586 14.46 0.777262 14.5847C0.824203 14.6754 0.95329 14.7094 1.05891 14.7094C1.69261 14.7547 2.32631 14.6754 2.97175 14.7094C3.51157 14.732 4.03965 14.8454 4.54427 15.0267C4.79071 15.1174 5.03715 15.2307 5.26012 15.3554C5.49482 15.4801 5.70606 15.7067 5.94076 15.7974C6.05811 15.8428 6.08158 15.9108 6.1872 15.7634C6.24588 15.6727 6.23414 15.5821 6.1872 15.4914C6.08158 15.3101 5.753 15.1514 5.57697 15.0494C5.10756 14.7547 4.60295 14.528 4.0866 14.3467C3.52331 14.1654 2.92481 14.052 2.32631 14.018L2.30284 13.9954Z" fill="black"/>
<path d="M7.39594 14.8454C6.96174 16.1941 7.06736 17.7922 7.63065 19.1182C8.26435 20.6143 9.76646 21.589 11.2803 22.303C12.5125 22.8923 13.8973 23.3797 15.2468 23.085C14.8595 23.8897 15.5989 24.7624 16.303 25.3404C17.7816 26.5531 19.448 27.6298 21.3257 28.1058C22.863 28.4912 24.4707 28.4685 26.055 28.3212C26.9938 28.2305 27.9326 28.1058 28.8245 27.7998C30.573 27.1878 32.0399 25.8731 32.8027 24.241C33.5655 22.609 33.589 20.6596 32.8849 19.0049C31.9812 16.8515 29.9158 15.2761 27.6275 14.5507C25.3391 13.8254 22.8512 13.8707 20.4925 14.3127C20.3164 14.3467 20.1287 14.3807 19.9526 14.3127C19.7766 14.2447 19.671 14.0974 19.5536 13.9614C17.1127 10.9806 13.5804 11.1506 10.1655 12.114C9.33226 12.352 8.61641 12.8393 8.10006 13.508C7.85362 13.8254 7.73626 14.4487 7.46635 14.6981C7.09083 15.0494 6.89133 14.8341 6.36324 14.9927C6.09333 15.0721 5.89383 15.2987 5.74128 15.5254C5.10757 16.4661 4.94328 17.6902 5.31881 18.7555C5.65913 19.7416 6.50407 20.6143 7.57197 20.7729C8.42864 20.8976 9.28531 20.5689 10.0716 20.2062" fill="black"/>
<path d="M24.3538 23.3797C26.4309 20.8183 27.1115 20.8183 30.4796 19.5716C31.7235 19.1182 32.2868 18.3815 32.6388 18.5402C32.9205 18.6762 33.1082 18.9482 33.2373 19.2202C34.1175 21.0109 33.6481 22.9717 32.7092 24.7284C32.322 25.4538 31.5709 26.3151 30.949 26.8591C29.7754 27.8792 28.0738 28.1172 26.4896 28.3098C25.3513 28.4459 22.3705 28.7292 21.6547 27.5732C20.974 26.4738 22.3353 25.8731 24.3538 23.3797Z" fill="#FFF7D2"/>
<path d="M21.7247 21.0563C23.9896 18.5515 27.252 16.2735 30.5614 16.0128C29.1062 13.6327 25.4331 13.44 22.9335 14.4601C21.0324 15.2421 19.2017 17.3275 18.2511 19.2089C17.5118 20.6709 17.3592 21.5436 17.1949 23.2097C17.0541 24.6377 17.6409 25.1364 18.8965 25.9638C19.4012 23.561 20.0349 22.9263 21.713 21.0676L21.7247 21.0563Z" fill="#FFB300"/>
<path d="M9.87212 13.236C10.0364 12.964 10.3298 12.6013 10.5997 12.4087C10.94 12.1707 11.5855 11.706 12.0079 11.6153C14.2024 11.1053 15.4464 11.298 17.6643 12.182C15.505 12.2613 14.1437 12.3973 12.7355 13.8934C11.6441 15.0494 11.0222 16.8288 11.1161 18.3702C11.2099 19.9116 11.4681 20.7843 11.2803 22.3143C11.2334 22.6543 9.80171 21.8723 9.63742 21.5663C9.2971 20.9203 9.17974 19.8776 9.03892 19.1862C8.60472 16.9875 8.6986 15.1741 9.88386 13.2474L9.87212 13.236Z" fill="#FFB300"/>
<g opacity="0.5">
<path d="M19.1433 14.6301C19.2724 14.4827 19.4719 14.2447 19.7066 13.95C20.9153 12.352 21.2087 11.094 21.7603 9.79058C22.3353 8.4192 22.969 7.55784 24.1777 5.89178C25.7268 3.77238 26.8651 2.78635 27.1585 2.537C28.3437 1.53964 29.2121 1.10896 29.9749 0.848282C30.7377 0.587607 31.477 0.349599 32.3454 0.621608C32.5684 0.68961 33.7537 1.08629 34.1057 2.19699C34.2818 2.76368 34.1644 3.2737 34.094 3.5117C34.1409 3.78371 34.1057 3.99905 34.0823 4.12372C33.9414 4.67908 33.4838 5.00775 33.2021 5.21176C33.0143 5.34776 32.8501 5.43843 32.721 5.48377C32.7327 5.65377 32.7444 5.91445 32.721 6.22046C32.6975 6.68514 32.6858 6.95715 32.5567 7.24049C32.3806 7.62584 32.0873 7.82985 31.7821 8.05652C31.5357 8.23786 31.0898 8.49853 30.4443 8.64587C30.5147 8.88388 30.5852 9.24656 30.5734 9.67724C30.5734 10.0286 30.5617 10.3459 30.3974 10.6746C30.0688 11.3433 29.3178 11.6153 29.0478 11.7173C28.5198 11.91 28.2616 11.842 27.71 12.148C27.5105 12.2613 27.3462 12.352 27.1819 12.5333C26.8886 12.862 26.9238 13.1 26.6656 13.4627C26.4661 13.746 26.2431 13.8934 26.0436 14.018C25.4803 14.3921 24.917 14.4487 24.3538 14.5054C23.4971 14.6074 22.6404 14.7547 21.772 14.8681C21.2439 14.9361 20.4577 15.0494 19.5071 15.2421C19.3898 15.0381 19.2724 14.8227 19.155 14.6187L19.1433 14.6301Z" fill="white"/>
<path d="M19.2252 15.8201L18.8849 15.2081L17.7114 15.4914L18.7558 14.3014C18.8849 14.1541 19.0727 13.9274 19.2956 13.644C20.1758 12.4767 20.5513 11.4793 20.9268 10.5159C21.0442 10.2099 21.1615 9.89258 21.2906 9.58657C21.8891 8.15852 22.558 7.25183 23.7667 5.5971C24.7994 4.16906 25.8908 2.94502 26.8296 2.15166C27.8858 1.2563 28.8129 0.712277 29.8221 0.372266C30.5966 0.111591 31.4768 -0.183085 32.5212 0.145592C32.9085 0.258929 34.1994 0.746279 34.6101 2.06099C34.7979 2.65034 34.7274 3.18303 34.6336 3.55704C34.657 3.79505 34.6453 4.02172 34.5984 4.24839C34.4106 4.98508 33.8356 5.40443 33.5187 5.61977C33.4366 5.68777 33.3427 5.73311 33.2723 5.77844C33.2723 5.91445 33.2723 6.08445 33.2723 6.25446C33.2488 6.73048 33.2371 7.07049 33.061 7.4445C32.8263 7.95452 32.4508 8.21519 32.134 8.4532C31.8171 8.67987 31.4651 8.86121 31.0778 8.99722C31.113 9.22389 31.1247 9.4619 31.1247 9.69991C31.1247 10.0626 31.113 10.4706 30.9018 10.8899C30.491 11.7286 29.5639 12.0686 29.2706 12.182C29.0241 12.2727 28.8364 12.3067 28.6603 12.352C28.4374 12.3973 28.2731 12.4313 28.0032 12.5787C27.8154 12.6807 27.7215 12.7373 27.6159 12.862C27.5103 12.9753 27.4751 13.066 27.4164 13.2134C27.3577 13.3607 27.2873 13.5307 27.1348 13.746C26.8883 14.0974 26.5949 14.2901 26.3837 14.4374C25.7265 14.8681 25.0811 14.9474 24.5061 15.0154C23.978 15.0721 23.4968 15.1514 23.004 15.2194C22.6284 15.2761 22.2529 15.3328 21.8774 15.3781C21.361 15.4461 20.5865 15.5594 19.6477 15.7408L19.2721 15.8088L19.2252 15.8201ZM19.765 14.6867C20.563 14.5507 21.2202 14.4601 21.6896 14.3921C22.0534 14.3467 22.4289 14.2901 22.7927 14.2334C23.2856 14.1541 23.7785 14.086 24.2714 14.0294C24.8464 13.9614 25.2923 13.916 25.7265 13.6214C25.9026 13.4967 26.0786 13.3947 26.2194 13.1907C26.3016 13.0773 26.3485 12.9753 26.3954 12.8507C26.4658 12.6693 26.5597 12.454 26.7827 12.216C27.0057 11.9666 27.2286 11.842 27.4399 11.7286C27.8389 11.502 28.1322 11.4453 28.3904 11.3886C28.5312 11.3546 28.6721 11.332 28.8481 11.264C29.0828 11.1846 29.6813 10.9579 29.916 10.4706C30.0216 10.2439 30.0334 10.0286 30.0451 9.67724C30.0451 9.37123 30.0099 9.07655 29.9277 8.78188L29.7869 8.28319L30.3033 8.16986C30.7257 8.07919 31.1247 7.89785 31.4533 7.65984C31.7232 7.46717 31.9345 7.30849 32.0635 7.04782C32.1574 6.84381 32.1692 6.63981 32.1926 6.19779C32.2044 5.91445 32.1926 5.67644 32.1926 5.51777L32.1692 5.17776L32.486 5.03042C32.5799 4.98508 32.7207 4.91708 32.8733 4.80375C33.1315 4.62241 33.4718 4.3844 33.5657 3.99905C33.6009 3.87438 33.6009 3.73838 33.5657 3.59104L33.5422 3.4777L33.5774 3.36436C33.6595 3.12636 33.7182 2.74101 33.5891 2.333C33.3192 1.47164 32.3569 1.14296 32.1692 1.08629C31.4416 0.859616 30.8079 1.08629 30.1272 1.31296C29.5405 1.50564 28.6955 1.86832 27.4751 2.89968C26.6067 3.63637 25.574 4.80374 24.5765 6.16379C23.3795 7.80718 22.781 8.63454 22.2177 9.96058C22.0886 10.2666 21.983 10.5613 21.8656 10.8559C21.4784 11.8873 21.0676 12.9527 20.1053 14.2221C19.9763 14.3921 19.8589 14.5394 19.7533 14.6641L19.765 14.6867Z" fill="#2B2B2B"/>
</g>
<g opacity="0.5">
<path d="M16.1271 17.9848C15.7985 17.7808 15.1648 18.2115 14.848 18.4269C12.4657 20.0249 12.8178 18.8802 6.75066 22.1783C4.28626 23.5157 3.60562 24.0484 3.05406 24.5584C1.81013 25.7031 1.1999 26.7231 0.871312 27.6752C0.624873 28.3665 0.23761 29.4886 0.812636 30.3612C1.12949 30.8373 1.65757 31.1319 1.85707 31.2453C2.08004 31.3699 2.54945 31.6193 3.21836 31.6646C3.5 31.6873 4.01635 31.71 4.57964 31.4266C5.21335 31.1093 5.50673 30.5993 5.61234 30.3952C5.78837 30.4292 6.03481 30.4633 6.32819 30.4633C6.48075 30.4633 7.22007 30.4633 7.77163 30.2026C8.83953 29.7152 9.12118 28.3665 9.15638 28.1852C9.28547 28.2872 9.4615 28.4232 9.71967 28.5139C9.83703 28.5592 10.3886 28.7745 10.9401 28.5705C11.3039 28.4459 11.4917 28.1852 11.8672 27.6525C12.3132 27.0405 12.5479 26.7005 12.6183 26.2584C12.63 26.1564 12.6535 25.9184 12.8412 25.7258C12.9351 25.6238 13.029 25.5784 13.205 25.4991C13.6627 25.2837 13.8622 25.2044 13.9678 25.1477C14.3199 24.9777 14.4959 24.6944 14.7071 24.3544C15.3643 23.323 15.7046 21.6456 15.8689 20.8749C16.3266 18.5855 16.3735 18.1548 16.1271 18.0075V17.9848Z" fill="white"/>
<path d="M3.48837 32.152C3.37102 32.152 3.2654 32.152 3.19499 32.152C2.39699 32.1066 1.84544 31.8006 1.61073 31.676C1.37603 31.5513 0.765798 31.2113 0.378536 30.6333C-0.325578 29.5566 0.120361 28.2872 0.378536 27.5278C0.789269 26.3265 1.52859 25.2724 2.69038 24.2071C3.25367 23.697 3.92257 23.153 6.49259 21.759C9.93101 19.8889 11.3158 19.4356 12.3367 19.0956C13.0995 18.8462 13.5572 18.6989 14.5547 18.0302C14.9537 17.7695 15.5991 17.3275 16.1624 17.4748H16.2211L16.4089 17.5768C16.9956 17.9395 16.8665 18.5742 16.3854 20.9656C16.2446 21.6456 15.8808 23.4704 15.1649 24.6151C14.9302 24.9777 14.6955 25.3518 14.2144 25.5898L14.0149 25.6804C13.8975 25.7371 13.7098 25.8164 13.4398 25.9411C13.2873 26.0091 13.2638 26.0318 13.2286 26.0544C13.1699 26.1225 13.1465 26.2358 13.1347 26.3038C13.0526 26.8818 12.7709 27.2785 12.3015 27.9245C11.8791 28.5025 11.6326 28.8425 11.1163 29.0239C10.7877 29.1372 10.2479 29.2279 9.53201 28.9559L9.4616 28.9332C9.23863 29.5112 8.80443 30.2706 7.98296 30.6333C7.37273 30.9053 6.62168 30.9393 6.32829 30.9393C6.17574 30.9166 6.01144 30.9393 5.88236 30.9166C5.67112 31.2226 5.3308 31.5853 4.81445 31.846C4.2981 32.1066 3.80522 32.152 3.47664 32.152H3.48837ZM15.7634 18.4722C15.6343 18.5289 15.4348 18.6422 15.1767 18.8122C14.0383 19.5716 13.4633 19.7642 12.6771 20.0249C11.6913 20.3423 10.3535 20.7843 6.9972 22.609C4.53281 23.9464 3.91084 24.4451 3.40622 24.9097C2.36179 25.8618 1.71635 26.7911 1.35256 27.8225C1.12959 28.4572 0.801004 29.4092 1.23521 30.0779C1.48165 30.4519 1.93932 30.7013 2.10361 30.7919C2.29138 30.8939 2.67864 31.1093 3.24193 31.1433C3.45316 31.1546 3.88737 31.1886 4.33331 30.9619C4.80272 30.7239 5.04916 30.3499 5.14304 30.1459L5.31907 29.8059L5.70633 29.8739C5.85889 29.8966 6.07012 29.9306 6.32829 29.9306C6.69209 29.9306 7.20844 29.8739 7.54876 29.7266C8.34675 29.3639 8.60493 28.2759 8.65187 28.0605L8.8279 27.2105L9.50854 27.7772C9.62589 27.8792 9.76672 27.9585 9.91927 28.0152C10.33 28.1739 10.6117 28.1285 10.7759 28.0718C10.9754 28.0038 11.1045 27.8338 11.4566 27.3465C11.9025 26.7345 12.0786 26.4738 12.1255 26.1678C12.149 26.0091 12.1959 25.6691 12.4658 25.3744C12.6301 25.1931 12.8061 25.1138 12.9822 25.0231C13.2638 24.8871 13.4516 24.8077 13.5807 24.7511L13.745 24.6717C13.9562 24.5697 14.0735 24.3884 14.2848 24.0597C14.9067 23.0737 15.2471 21.385 15.3762 20.7503C15.5287 19.9909 15.7399 18.9142 15.7752 18.4609L15.7634 18.4722Z" fill="#2B2B2B"/>
</g>
<path d="M6.50462 15.6388C6.30512 15.6048 6.09389 15.6954 5.97654 15.8654C5.90613 15.9561 5.88266 16.0695 5.84745 16.1715C5.77704 16.4661 5.77704 16.7835 5.77704 17.0895C5.77704 17.2255 5.77704 17.3615 5.83571 17.4748C5.9296 17.6902 6.14083 17.8262 6.35206 17.9168C6.43421 17.9508 6.51636 17.9735 6.5985 17.9735C6.82147 17.9735 6.98577 17.7582 7.07965 17.5542C7.23221 17.2028 7.25568 16.7948 7.15006 16.4321C7.06791 16.1261 6.86841 15.6954 6.50462 15.6501V15.6388Z" fill="#414042"/>
<path d="M6.25767 16.0581C6.199 16.1375 6.17552 16.2508 6.18726 16.3528C6.18726 16.4321 6.21073 16.5115 6.24594 16.5681C6.32808 16.6815 6.48064 16.7495 6.62146 16.7155C7.29037 16.5455 6.62146 15.5254 6.24594 16.0581H6.25767Z" fill="white"/>
</svg>
