<?xml version="1.0" encoding="UTF-8"?>
<svg id="Layer_2" data-name="Layer 2" xmlns="http://www.w3.org/2000/svg" viewBox="0 0 53.79 55.7">
  <defs>
    <style>
      .cls-1 {
        fill: #fff7d2;
      }

      .cls-2 {
        fill: #fff;
      }

      .cls-3 {
        fill: #231f20;
      }

      .cls-4 {
        isolation: isolate;
      }

      .cls-5 {
        fill: #424143;
      }

      .cls-6 {
        fill: #fbb116;
      }
    </style>
  </defs>
  <g id="Layer_2-2" data-name="Layer 2">
    <g>
      <g id="legs">
        <path d="M49.99,45.98c.41.15.84.22,1.27.32.74.18,1.45.47,2.16.76.14.06.3.13.35.28.05.13,0,.27-.09.37-.09.1-.22.16-.35.2-.97.35-2.05.11-3.02-.26-.66-.25-1.34-.58-1.72-1.19-.16-.25-.26-.56-.19-.85.08-.33.38-.59.64-.35.32.29.52.55.95.71h0Z"/>
        <path d="M48.17,40.74c.19.53.29,1.08.44,1.62.28.96.77,1.88.73,2.88,0,.13-.02.28-.12.37-.08.08-.21.11-.32.1-.33-.03-.56-.33-.74-.61-.93-1.46-1.58-3.11-1.93-4.81-.08-.4-.14-.82.01-1.2.18-.44.83-.77,1.07-.25.28.63.61,1.25.85,1.9h0Z"/>
        <path d="M39.99,51.99c.5.42,1.13.65,1.72.91.55.24,1.1.52,1.63.8.62.33,1.3.76,1.45,1.45.02.1.03.21,0,.31-.1.23-.41.26-.65.23-1.44-.17-2.69-1.08-3.79-2.03-.62-.53-1.23-1.09-1.81-1.67-.15-.15-.3-.31-.38-.51-.08-.2-.06-.45.1-.59.69-.61,1.37.8,1.73,1.1h0Z"/>
        <path d="M35.33,45.45c.7,1,1.42,2.03,1.72,3.22.17.69.2,1.43.54,2.06.34.63,1.16,1.08,1.76.71.12-.07.22-.17.27-.3.04-.1.04-.22.04-.33-.04-1.85-.92-3.6-2.11-5.02-.64-.76-1.36-1.43-2.16-2.01-.3-.22-.64-.43-1.01-.43-.22,0-.54.12-.64.34-.19.41-.01.23.18.37.55.41.98.78,1.42,1.4Z"/>
        <path d="M31.46,48.67c.14.19.29.42.23.65-.05.21-.27.34-.48.37-.21.03-.43-.04-.63-.1-.34-.11-.68-.24-1.01-.38-.28-.12-.57-.26-.81-.46-.51-.42-1.78-3.25-.62-3.31.52-.02,1.38,1.04,1.72,1.38.58.57,1.11,1.19,1.6,1.84h0Z"/>
        <path d="M28.17,45.21c.03.19.05.41-.06.57-.14.2-.44.24-.66.13-.22-.1-.38-.31-.5-.52-1-1.63-.84-3.7-1.41-5.53-.1-.31-.22-.62-.19-.95.03-.42.32-.81.71-.96,1.57-.59,1.4,1.76,1.52,2.66.2,1.53.4,3.06.59,4.59h0Z"/>
        <path d="M20.57,41.76c.02.15,0,.3-.02.44-.17,1.23-.56,2.43-1.14,3.53-.07.13-.14.26-.26.35-.12.09-.29.11-.4.03-.14-.1-.15-.3-.14-.46.03-.66.14-1.32.32-1.96.19-.66.45-1.3.45-1.98,0-.17-.02-.36.07-.5.43-.68,1.05.08,1.11.57h0Z"/>
        <path d="M19.32,38.44c.4.49.81.99,1.05,1.58.17.41.2.97-.15,1.23-.27.2-.66.13-.93-.06-.27-.19-.45-.49-.63-.77-.57-.91-1.17-1.8-1.82-2.66-.06-.07-.12-.16-.1-.25.02-.08.1-.14.17-.18.49-.3.8-.62,1.25-.27.45.35.8.96,1.15,1.39h0Z"/>
        <path d="M14.83,34.53c.16.98.65,1.91,1.39,2.58.19.18.41.34.66.41.25.07.55.02.72-.18.26-.29.14-.75.05-1.13-.16-.67-.21-1.37-.07-2.04.06-.28.14-.57.09-.85-.05-.27-.21-.5-.38-.7-.4-.49-1.35-1.27-2.01-.74-.61.49-.57,1.98-.46,2.67h0Z"/>
      </g>
      <g>
        <path d="M7.56,17.98c-.49-.35-1.05-.72-1.65-.63-.21.03-.44.17-.42.38.02.19.22.29.39.36,1.11.45,2.18,1.03,3.15,1.72.98.7,1.8,1.62,2.71,2.46.49-.4,0-.75-.32-1.09-.39-.41-.8-.79-1.22-1.16-.84-.73-1.74-1.39-2.65-2.04Z"/>
        <path d="M3.26,22.08c-.38-.02-.75-.02-1.12.05-.33.06-.65.19-.94.36-.19.11-.38.32-.29.52.07.15.26.19.43.2.98.08,1.97-.06,2.95-.02.83.04,1.66.22,2.44.51.38.15.76.32,1.11.53.36.21.69.57,1.05.71.18.07.22.18.38-.05.1-.15.07-.3-.02-.44-.17-.29-.67-.54-.95-.72-.72-.47-1.5-.84-2.31-1.12-.88-.3-1.79-.47-2.72-.53h0Z"/>
      </g>
      <g id="body">
        <path d="M11.13,23.45c-.67,2.16-.5,4.72.36,6.85.98,2.4,3.31,3.96,5.63,5.1,1.91.94,4.05,1.72,6.13,1.24-.6,1.29.55,2.69,1.63,3.61,2.29,1.94,4.85,3.66,7.76,4.42,2.37.62,4.87.58,7.31.34,1.45-.14,2.91-.35,4.28-.84,2.7-.97,4.97-3.08,6.14-5.7s1.22-5.72.13-8.38c-1.41-3.44-4.59-5.97-8.12-7.13-3.53-1.16-7.37-1.08-11.03-.39-.28.05-.57.11-.83,0-.26-.1-.44-.34-.62-.56-3.77-4.76-9.23-4.5-14.52-2.96-1.28.37-2.39,1.15-3.19,2.23-.37.5-.57,1.51-.97,1.9-.58.56-.89.22-1.7.47-.42.13-.72.49-.96.85-.98,1.51-1.23,3.47-.66,5.18.52,1.58,1.84,2.98,3.48,3.23,1.33.21,2.66-.32,3.87-.9"/>
        <path class="cls-1" d="M37.34,37.1c3.21-4.1,4.26-4.1,9.46-6.09,1.91-.73,2.8-1.91,3.34-1.64.44.22.72.65.93,1.08,1.36,2.86.64,6.01-.81,8.82-.6,1.15-1.75,2.54-2.72,3.41-1.82,1.64-4.44,2.02-6.88,2.32-1.76.22-6.36.68-7.48-1.18-1.06-1.76,1.05-2.73,4.17-6.72Z"/>
        <path class="cls-6" d="M33.27,33.39c3.5-4.01,8.54-7.65,13.65-8.08-2.26-3.82-7.93-4.12-11.78-2.49-2.93,1.24-5.77,4.58-7.23,7.59-1.14,2.35-1.38,3.74-1.63,6.4-.22,2.28.68,3.08,2.64,4.41.79-3.85,1.77-4.86,4.36-7.83Z"/>
        <path class="cls-6" d="M14.96,20.87c.26-.44.71-1.02,1.13-1.32.53-.38,1.52-1.12,2.17-1.27,3.39-.82,5.32-.5,8.74.91-3.33.13-5.44.35-7.62,2.74-1.68,1.84-2.64,4.7-2.5,7.16.14,2.46.54,3.86.25,6.3-.07.55-2.29-.72-2.54-1.21-.53-1.03-.7-2.7-.92-3.81-.68-3.51-.53-6.42,1.3-9.51Z"/>
      </g>
      <g>
        <path class="cls-5" d="M9.74,24.72c-.31-.05-.64.1-.82.36-.1.15-.15.32-.19.49-.11.48-.12.97-.11,1.46,0,.21.01.43.09.62.14.34.47.56.8.7.12.05.25.09.39.09.35-.01.6-.34.73-.67.24-.57.27-1.21.1-1.8-.14-.49-.43-1.18-.99-1.26Z"/>
        <path class="cls-2" d="M9.37,25.39c-.09.14-.12.31-.11.47,0,.12.03.25.1.35.12.19.37.29.59.23,1.04-.26-.02-1.9-.57-1.05Z"/>
      </g>
    </g>
  </g>
  <g id="Layer_3" data-name="Layer 3">
    <g class="cls-4">
      <g>
        <path class="cls-2" d="M24.63,28.46c-.52-.33-1.49.37-1.97.7-3.68,2.55-3.14.72-12.52,6-3.81,2.14-4.85,2.98-5.71,3.8-1.93,1.83-2.86,3.47-3.37,4.99-.37,1.11-.98,2.9-.1,4.3.48.77,1.31,1.24,1.62,1.41.35.2,1.07.6,2.1.66.43.03,1.24.07,2.11-.39.97-.51,1.44-1.32,1.6-1.65.27.05.65.1,1.11.1.23,0,1.37-.01,2.22-.41,1.65-.77,2.09-2.94,2.14-3.23.19.17.48.38.86.53.18.07,1.04.41,1.89.1.56-.21.85-.63,1.44-1.46.69-.98,1.06-1.52,1.16-2.23.02-.17.06-.55.34-.86.15-.16.3-.24.56-.37.71-.35,1.02-.48,1.19-.57.54-.28.82-.73,1.15-1.26,1.02-1.65,1.55-4.34,1.79-5.57.71-3.67.78-4.35.39-4.6h0Z"/>
        <path class="cls-3" d="M5.08,50.84c-.18,0-.32,0-.43-.02-1.16-.07-1.97-.53-2.31-.73-.34-.19-1.25-.71-1.8-1.58-1.01-1.59-.35-3.55.04-4.72.63-1.87,1.74-3.53,3.5-5.2.85-.81,1.88-1.66,5.81-3.87,5.28-2.98,7.42-3.7,8.99-4.23,1.16-.4,1.93-.66,3.5-1.74.63-.43,1.57-1.09,2.32-.81h.04s.17.1.17.1c.7.45.57,1.28-.17,5.11-.21,1.08-.76,3.96-1.85,5.73-.35.57-.68,1.1-1.35,1.45-.07.04-.16.08-.3.14-.19.09-.47.22-.9.43-.24.12-.33.16-.41.25-.16.18-.19.42-.21.57-.12.86-.55,1.47-1.25,2.47-.6.86-.97,1.38-1.67,1.64-.46.17-1.23.29-2.23-.1-.13-.05-.26-.11-.38-.18-.29.91-.92,2.25-2.24,2.87-.88.41-2,.46-2.43.46-.25,0-.56-.02-.84-.05-.29.48-.81,1.11-1.64,1.55-.75.39-1.46.46-1.94.46ZM24.29,28.87c-.13,0-.47.1-1.29.67-1.73,1.2-2.6,1.5-3.8,1.9-1.53.52-3.61,1.23-8.82,4.16-3.83,2.16-4.81,2.96-5.61,3.73-1.64,1.56-2.67,3.08-3.24,4.79-.36,1.07-.9,2.68-.15,3.87.42.66,1.17,1.08,1.45,1.25.31.18.95.54,1.88.6.35.02,1.07.07,1.85-.33.79-.41,1.21-1.07,1.39-1.43l.17-.34.37.07c.33.06.68.12,1.02.09.29,0,1.29-.03,2.01-.36,1.37-.64,1.79-2.51,1.86-2.87l.16-.86.66.58c.21.19.46.33.71.44.73.28,1.23.21,1.53.1.39-.15.62-.44,1.2-1.28.66-.95.99-1.42,1.08-2.01.03-.22.09-.71.46-1.12.21-.24.43-.35.71-.49.44-.22.72-.35.92-.44.12-.05.2-.09.26-.12.42-.22.64-.58.95-1.08.99-1.62,1.52-4.37,1.72-5.4.32-1.65.72-3.7.6-4.08-.01,0-.03,0-.06,0Z"/>
      </g>
    </g>
  </g>
  <g id="Layer_4" data-name="Layer 4">
    <g class="cls-4">
      <g>
        <path class="cls-2" d="M29.29,23.1c.21-.24.52-.62.86-1.09,1.87-2.55,2.32-4.57,3.18-6.66.9-2.2,1.86-3.57,3.73-6.23,2.39-3.4,4.15-4.97,4.6-5.36,1.83-1.6,3.18-2.29,4.36-2.7,1.18-.41,2.33-.79,3.66-.37.34.11,2.17.73,2.71,2.53.28.92.1,1.72-.02,2.11.08.44.02.77-.02.98-.22.9-.93,1.42-1.37,1.74-.29.21-.55.36-.74.44.02.28.04.69.01,1.18-.04.74-.06,1.17-.26,1.63-.27.62-.73.95-1.19,1.3-.39.29-1.08.72-2.08.95.1.38.22.96.2,1.66-.01.56-.02,1.07-.27,1.59-.5,1.06-1.67,1.51-2.09,1.67-.82.31-1.21.19-2.07.69-.3.17-.55.32-.81.61-.45.52-.41.9-.8,1.48-.3.45-.65.68-.96.9-.86.6-1.74.68-2.61.79-1.33.16-2.65.4-3.98.58-.82.11-2.03.29-3.5.59-.18-.33-.36-.67-.54-1h0Z"/>
        <path class="cls-3" d="M29.57,24.66l-.54-1-1.06.21.94-1.1c.2-.24.5-.6.84-1.06,1.39-1.9,1.98-3.52,2.56-5.08.18-.49.36-.98.56-1.48.92-2.25,1.88-3.61,3.78-6.33,1.61-2.29,3.23-4.17,4.68-5.46,1.61-1.41,3.01-2.27,4.53-2.79,1.15-.4,2.46-.85,3.98-.37.56.17,2.45.9,3.04,2.86.27.9.17,1.73.01,2.29.05.36.03.72-.05,1.06-.26,1.08-1.11,1.7-1.56,2.03-.16.12-.34.23-.51.33.01.31.01.61,0,.91-.04.76-.06,1.26-.3,1.81-.32.73-.86,1.13-1.34,1.49-.54.4-1.14.71-1.79.91.08.44.12.88.11,1.31-.01.57-.02,1.17-.32,1.79-.59,1.24-1.93,1.75-2.37,1.92-.36.14-.65.2-.9.25-.36.08-.65.14-1.1.4-.28.16-.48.28-.68.51-.19.22-.27.4-.36.65-.09.23-.19.48-.4.79-.35.52-.76.8-1.08,1.02-.95.65-1.88.76-2.77.87-.82.1-1.57.21-2.31.33-.58.09-1.16.18-1.74.26-1.15.16-2.31.35-3.47.59l-.36.07ZM29.89,23.16l.21.38c1.06-.21,2.12-.38,3.17-.52.58-.08,1.15-.17,1.72-.25.76-.12,1.51-.23,2.27-.32.89-.1,1.65-.2,2.39-.7.29-.2.58-.4.83-.77.15-.22.22-.4.3-.6.11-.27.23-.58.54-.93.31-.35.61-.53.93-.71.59-.34.99-.43,1.39-.51.23-.05.46-.1.76-.21.38-.15,1.4-.54,1.82-1.42.2-.43.21-.87.22-1.39.01-.51-.05-1.02-.18-1.52l-.13-.5.5-.12c.7-.16,1.34-.45,1.89-.86.44-.33.81-.61,1.03-1.1.16-.37.18-.71.22-1.46.02-.37.01-.73-.01-1.12l-.02-.34.31-.15c.23-.11.45-.24.66-.4.4-.29,1-.74,1.18-1.46.06-.25.06-.51.02-.78l-.02-.12.03-.11c.13-.43.24-1.09.02-1.82-.46-1.53-2.07-2.1-2.38-2.2-1.21-.38-2.25-.02-3.35.36-.94.33-2.26.92-4.2,2.6-1.39,1.23-2.96,3.05-4.52,5.28-1.87,2.66-2.8,3.99-3.68,6.13-.2.48-.37.96-.55,1.44-.6,1.63-1.21,3.31-2.69,5.32-.25.34-.47.63-.66.85Z"/>
      </g>
    </g>
  </g>
</svg>