<svg width="175" height="175" viewBox="0 0 175 175" fill="none" xmlns="http://www.w3.org/2000/svg">
<g clip-path="url(#clip0_1080_7178)">
<path d="M51.7798 113.5C51.7798 116.77 51.7798 118.97 51.9198 120.65C52.0498 122.3 52.2898 123.08 52.5498 123.59C53.2398 124.94 54.3298 126.03 55.6798 126.72C56.1898 126.98 56.9798 127.22 58.6198 127.35C60.3098 127.49 62.5098 127.49 65.7798 127.49H109.21C112.48 127.49 114.68 127.49 116.36 127.35C118.01 127.22 118.79 126.98 119.3 126.72C120.65 126.03 121.74 124.94 122.43 123.59C122.69 123.08 122.93 122.29 123.06 120.65C123.2 118.96 123.2 116.76 123.2 113.5V78.9299H51.7798V113.5ZM102.45 88.1599C103.79 86.8199 105.61 86.0699 107.5 86.0699C109.39 86.0699 111.21 86.8199 112.55 88.1599C113.89 89.4999 114.64 91.3199 114.64 93.2099C114.64 95.0999 113.89 96.9199 112.55 98.2599C111.21 99.5999 109.39 100.35 107.5 100.35C105.61 100.35 103.79 99.5999 102.45 98.2599C101.11 96.9199 100.36 95.0999 100.36 93.2099C100.36 91.3199 101.11 89.4999 102.45 88.1599ZM82.4498 88.1599C83.7898 86.8199 85.6098 86.0699 87.4998 86.0699C89.3898 86.0699 91.2098 86.8199 92.5498 88.1599C93.8898 89.4999 94.6398 91.3199 94.6398 93.2099C94.6398 95.0999 93.8898 96.9199 92.5498 98.2599C91.2098 99.5999 89.3898 100.35 87.4998 100.35C85.6098 100.35 83.7898 99.5999 82.4498 98.2599C81.1098 96.9199 80.3598 95.0999 80.3598 93.2099C80.3598 91.3199 81.1098 89.4999 82.4498 88.1599ZM82.4498 108.16C83.7898 106.82 85.6098 106.07 87.4998 106.07C89.3898 106.07 91.2098 106.82 92.5498 108.16C93.8898 109.5 94.6398 111.32 94.6398 113.21C94.6398 115.1 93.8898 116.92 92.5498 118.26C91.2098 119.6 89.3898 120.35 87.4998 120.35C85.6098 120.35 83.7898 119.6 82.4498 118.26C81.1098 116.92 80.3598 115.1 80.3598 113.21C80.3598 111.32 81.1098 109.5 82.4498 108.16ZM62.4498 88.1599C63.7898 86.8199 65.6098 86.0699 67.4998 86.0699C69.3898 86.0699 71.2098 86.8199 72.5498 88.1599C73.8898 89.4999 74.6398 91.3199 74.6398 93.2099C74.6398 95.0999 73.8898 96.9199 72.5498 98.2599C71.2098 99.5999 69.3898 100.35 67.4998 100.35C65.6098 100.35 63.7898 99.5999 62.4498 98.2599C61.1098 96.9199 60.3598 95.0999 60.3598 93.2099C60.3598 91.3199 61.1098 89.4999 62.4498 88.1599ZM62.4498 108.16C63.7898 106.82 65.6098 106.07 67.4998 106.07C69.3898 106.07 71.2098 106.82 72.5498 108.16C73.8898 109.5 74.6398 111.32 74.6398 113.21C74.6398 115.1 73.8898 116.92 72.5498 118.26C71.2098 119.6 69.3898 120.35 67.4998 120.35C65.6098 120.35 63.7898 119.6 62.4498 118.26C61.1098 116.92 60.3598 115.1 60.3598 113.21C60.3598 111.32 61.1098 109.5 62.4498 108.16Z" fill="#FFF5C4"/>
<path d="M122.43 59.9701C121.74 58.6201 120.65 57.5301 119.3 56.8401C118.79 56.5801 118 56.3401 116.36 56.2101C115.79 56.1601 115.21 56.1301 114.63 56.1101V57.4901C114.63 58.6301 114.18 59.7201 113.37 60.5201C112.57 61.3201 111.48 61.7801 110.34 61.7801C109.2 61.7801 108.11 61.3301 107.31 60.5201C106.51 59.7201 106.05 58.6301 106.05 57.4901V56.0601H68.9098V57.4901C68.9098 58.6301 68.4598 59.7201 67.6498 60.5201C66.8498 61.3201 65.7598 61.7801 64.6198 61.7801C63.4798 61.7801 62.3898 61.3301 61.5898 60.5201C60.7898 59.7201 60.3298 58.6301 60.3298 57.4901V56.1101C59.7498 56.1301 59.1698 56.1601 58.5998 56.2101C56.9598 56.3401 56.1798 56.5801 55.6598 56.8401C54.3098 57.5301 53.2198 58.6201 52.5298 59.9701C52.2698 60.4801 52.0298 61.2701 51.8998 62.9101C51.7598 64.6001 51.7598 66.8001 51.7598 70.0701V73.2101H123.19V70.0701C123.19 66.8001 123.19 64.6001 123.05 62.9101C122.92 61.2701 122.68 60.4901 122.42 59.9701H122.43ZM99.0998 67.6701C98.2998 68.4701 97.2098 68.9301 96.0698 68.9301H78.9298C77.7898 68.9301 76.6998 68.4801 75.8998 67.6701C75.0998 66.8701 74.6398 65.7801 74.6398 64.6401C74.6398 63.5001 75.0898 62.4101 75.8998 61.6101C76.6998 60.8101 77.7898 60.3501 78.9298 60.3501H96.0698C97.2098 60.3501 98.2998 60.8001 99.0998 61.6101C99.8998 62.4101 100.36 63.5001 100.36 64.6401C100.36 65.7801 99.9098 66.8701 99.0998 67.6701Z" fill="#FFF5C4"/>
<path d="M155.52 73.5301C179.93 59.7301 170.15 40.4101 143.24 46.7901C160.37 24.6001 146.18 10.6001 125.77 23.7101C130.02 2.45012 116.43 -4.31988 103.9 8.50012C98.2698 -5.44988 84.4198 -2.59988 79.6598 19.7601C68.0598 -6.64988 47.6698 -0.279881 54.3498 29.3801C33.6098 9.63012 17.3398 21.4601 31.3298 43.7101C6.58977 36.2401 -1.32023 54.9701 24.0398 70.1101C-3.88023 73.3901 -8.13023 96.6101 14.6498 102.5C-0.000230789 116.6 7.13977 133.8 28.1198 129.69C19.9798 148.23 31.8498 161.25 48.2298 151.73C49.1298 166.85 59.9998 173.36 70.0298 166.05C76.2998 180.38 91.1298 177.32 96.8298 158.14C109.48 179.65 127.7 170.89 124.08 146.35C143.82 161.14 157.17 147.91 147.21 128.53C168.02 132.11 173.85 115.76 158.14 102.26C181.9 98.1801 180.11 78.8301 155.53 73.5401L155.52 73.5301ZM131.78 113.67C131.78 116.73 131.78 119.27 131.61 121.36C131.44 123.53 131.05 125.57 130.07 127.49C128.56 130.45 126.16 132.85 123.21 134.36C121.28 135.34 119.24 135.73 117.07 135.9C114.98 136.07 112.44 136.07 109.39 136.07H65.6098C62.5498 136.07 60.0098 136.07 57.9198 135.9C55.7498 135.73 53.7098 135.34 51.7898 134.36C48.8298 132.86 46.4298 130.46 44.9198 127.5C43.9398 125.57 43.5498 123.53 43.3798 121.36C43.2098 119.27 43.2098 116.73 43.2098 113.68V69.9001C43.2098 66.8401 43.2098 64.3001 43.3798 62.2101C43.5498 60.0401 43.9398 58.0001 44.9198 56.0801C46.4298 53.1201 48.8298 50.7201 51.7898 49.2101C53.7198 48.2301 55.7498 47.8401 57.9198 47.6701C58.6698 47.6101 59.4798 47.5701 60.3498 47.5401V43.2101C60.3498 42.6501 60.4598 42.0901 60.6798 41.5701C60.8998 41.0501 61.2098 40.5801 61.6098 40.1801C62.0098 39.7801 62.4798 39.4701 62.9998 39.2501C63.5198 39.0301 64.0798 38.9201 64.6398 38.9201C65.7798 38.9201 66.8698 39.3701 67.6698 40.1801C68.4698 40.9801 68.9298 42.0701 68.9298 43.2101V47.5001H106.07V43.2101C106.07 42.0701 106.52 40.9801 107.33 40.1801C108.13 39.3801 109.22 38.9201 110.36 38.9201C111.5 38.9201 112.59 39.3701 113.39 40.1801C114.19 40.9801 114.65 42.0701 114.65 43.2101V47.5401C115.52 47.5601 116.33 47.6001 117.08 47.6701C119.25 47.8401 121.29 48.2301 123.21 49.2101C126.17 50.7201 128.57 53.1201 130.08 56.0801C131.06 58.0101 131.45 60.0401 131.62 62.2101C131.79 64.3001 131.79 66.8401 131.79 69.9001V113.67H131.78Z" fill="#FFF5C4"/>
</g>
<defs>
<clipPath id="clip0_1080_7178">
<rect width="174.99" height="174.99" fill="white"/>
</clipPath>
</defs>
</svg>
