<svg width="100" height="100" viewBox="0 0 100 100" fill="none" xmlns="http://www.w3.org/2000/svg">
<g clip-path="url(#clip0_1419_4637)">
<path d="M39.6743 33.1105H49.8875C52.3718 33.1105 55.6485 33.1105 57.3404 34.135C59.196 35.236 60.6528 37.2392 60.6528 39.9968C60.6528 42.9837 59.0784 45.2265 56.4715 46.2867V46.3683C59.9423 47.0768 61.8337 49.6713 61.8337 53.1323C61.8337 57.261 58.874 61.196 53.2766 61.196H39.6743V33.1105ZM43.4212 45.1806H50.9201C55.1782 45.1806 56.9162 43.6464 56.9162 40.6951C56.9162 36.8008 54.1558 36.2503 50.9201 36.2503H43.4212V45.1806ZM43.4212 58.0409H52.8115C56.0421 58.0409 58.097 56.0733 58.097 53.0099C58.097 49.3501 55.1373 48.3307 51.9834 48.3307H43.4212V58.0409Z" fill="#FEFAE0"/>
<path d="M71.4181 47.1583C71.4181 58.9533 61.8285 68.5156 49.9949 68.5156C38.1664 68.5156 28.5768 58.9533 28.5768 47.1583C28.5768 35.3634 38.1664 25.8011 49.9949 25.8011C61.8285 25.8062 71.4181 35.3685 71.4181 47.1583ZM50 22.5491C36.3773 22.5491 25.3308 33.5641 25.3308 47.1481C25.3308 60.7322 36.3773 71.7472 50 71.7472C63.6279 71.7472 74.6743 60.7322 74.6743 47.1481C74.6743 33.5641 63.6279 22.5491 50 22.5491Z" fill="#FEFAE0"/>
<path d="M74.6181 76.9413H25.3768V80.1678H74.6181V76.9413Z" fill="#FEFAE0"/>
<path d="M73.0794 73.3885C73.1408 73.3885 73.197 73.3834 73.2532 73.3834C73.3043 73.3783 73.3555 73.3681 73.3963 73.3528C73.4424 73.3324 73.473 73.3019 73.4986 73.2662C73.5241 73.2254 73.5344 73.1744 73.5344 73.1082C73.5344 73.0521 73.5241 73.0011 73.5037 72.9705C73.4832 72.9349 73.4526 72.9094 73.4168 72.8941C73.381 72.8737 73.3452 72.8635 73.2941 72.8533C73.2481 72.8482 73.2072 72.8482 73.1561 72.8482H72.8034V73.3936H73.0794V73.3885ZM73.197 72.6239C73.4015 72.6239 73.5497 72.6647 73.6519 72.7463C73.7491 72.8278 73.8002 72.9502 73.8002 73.1184C73.8002 73.2764 73.7542 73.3834 73.6724 73.4599C73.5855 73.5312 73.4781 73.572 73.3452 73.5873L73.836 74.3417H73.5497L73.0794 73.6026H72.7983V74.3417H72.5274V72.629H73.197V72.6239ZM71.9906 73.9747C72.0469 74.1276 72.1337 74.2652 72.2462 74.3774C72.3536 74.4895 72.4813 74.5762 72.6296 74.6424C72.7727 74.7036 72.9363 74.7342 73.105 74.7342C73.2788 74.7342 73.4372 74.7036 73.5804 74.6424C73.7286 74.5762 73.8564 74.4895 73.9637 74.3774C74.0711 74.2652 74.158 74.1327 74.2142 73.9747C74.2756 73.8218 74.3113 73.6587 74.3113 73.4803C74.3113 73.3019 74.2807 73.1387 74.2142 72.9858C74.1529 72.8329 74.066 72.7004 73.9637 72.5883C73.8513 72.4761 73.7235 72.3895 73.5804 72.3283C73.4372 72.2671 73.2737 72.2314 73.105 72.2314C72.9363 72.2314 72.7727 72.2671 72.6296 72.3283C72.4813 72.3946 72.3484 72.4812 72.2462 72.5883C72.1337 72.7004 72.052 72.8329 71.9906 72.9858C71.9293 73.1387 71.8986 73.2968 71.8986 73.4803C71.8935 73.6536 71.9242 73.8218 71.9906 73.9747ZM71.7453 72.8992C71.8219 72.7208 71.9293 72.573 72.0622 72.4404C72.1951 72.3079 72.3536 72.2111 72.5325 72.1346C72.7114 72.0581 72.9056 72.0225 73.0999 72.0225C73.3043 72.0225 73.4935 72.0581 73.6775 72.1346C73.8513 72.2111 74.0098 72.3079 74.1375 72.4404C74.2705 72.573 74.3829 72.7259 74.4545 72.8992C74.5363 73.0776 74.572 73.2713 74.572 73.4803C74.572 73.6892 74.5363 73.8829 74.4545 74.0613C74.3778 74.2448 74.2705 74.3978 74.1375 74.5303C74.0046 74.6679 73.8513 74.7648 73.6775 74.8412C73.4935 74.9126 73.3043 74.9483 73.0999 74.9483C72.9005 74.9483 72.7114 74.9126 72.5325 74.8412C72.3536 74.7648 72.1951 74.6679 72.0622 74.5303C71.9293 74.3978 71.8219 74.2448 71.7453 74.0613C71.6635 73.8829 71.6328 73.6892 71.6328 73.4803C71.6277 73.2713 71.6635 73.0776 71.7453 72.8992Z" fill="#FEFAE0"/>
<path d="M31.3473 11.7328C31.2297 11.5442 31.0866 11.3811 30.9128 11.2435C30.739 11.1008 30.5397 10.9937 30.3199 10.9122C30.1001 10.8357 29.87 10.7949 29.6298 10.7949C29.1902 10.7949 28.817 10.8816 28.5052 11.0498C28.1985 11.218 27.948 11.4474 27.7589 11.7328C27.5697 12.0182 27.4266 12.3445 27.3397 12.7115C27.2528 13.0785 27.2068 13.4557 27.2068 13.843C27.2068 14.2151 27.2477 14.577 27.3397 14.9287C27.4266 15.2805 27.5646 15.5965 27.7589 15.8819C27.948 16.1623 28.1985 16.3916 28.5052 16.5599C28.8119 16.7281 29.1851 16.8147 29.6298 16.8147C30.2278 16.8147 30.6981 16.6312 31.0304 16.2693C31.3678 15.9023 31.5722 15.4232 31.6489 14.8268H33.5454C33.4942 15.3824 33.3664 15.8819 33.1569 16.3305C32.9473 16.779 32.6764 17.1613 32.3339 17.4723C31.9914 17.7883 31.5927 18.0278 31.1377 18.1961C30.6828 18.3592 30.1767 18.4458 29.6298 18.4458C28.9499 18.4458 28.3365 18.3286 27.7896 18.089C27.2426 17.8545 26.7877 17.5283 26.4094 17.1103C26.0362 16.6975 25.75 16.2081 25.5506 15.6475C25.3513 15.0868 25.249 14.4853 25.249 13.8379C25.249 13.1753 25.3461 12.5586 25.5506 11.9928C25.75 11.427 26.0362 10.9274 26.4094 10.5095C26.7825 10.0864 27.2426 9.75509 27.7896 9.51553C28.3314 9.27596 28.9448 9.15363 29.6298 9.15363C30.1205 9.15363 30.5857 9.22499 31.0202 9.36261C31.4547 9.50533 31.8483 9.70922 32.1907 9.97937C32.5332 10.2495 32.8195 10.5808 33.0444 10.9784C33.2693 11.376 33.4125 11.8348 33.4687 12.3445H31.5722C31.5364 12.1202 31.4649 11.9163 31.3473 11.7328Z" fill="#FEFAE0"/>
<path d="M36.0961 16.6975C36.3619 16.9523 36.7453 17.0849 37.2411 17.0849C37.5989 17.0849 37.9056 16.9982 38.1663 16.8198C38.4219 16.6414 38.5804 16.4528 38.6417 16.254H40.2008C39.9503 17.0237 39.5669 17.5793 39.0507 17.9106C38.5344 18.2419 37.9107 18.4101 37.1798 18.4101C36.6737 18.4101 36.2137 18.3286 35.8098 18.1655C35.4009 18.0024 35.0584 17.773 34.7721 17.4773C34.491 17.1817 34.2712 16.8249 34.1178 16.4069C33.9645 15.9941 33.8878 15.5353 33.8878 15.0409C33.8878 14.5617 33.9645 14.1132 34.123 13.7003C34.2814 13.2874 34.5063 12.9255 34.7977 12.6248C35.0891 12.3241 35.4367 12.0845 35.8405 11.9112C36.2443 11.7379 36.689 11.6512 37.1798 11.6512C37.7267 11.6512 38.2072 11.7583 38.6162 11.9673C39.0251 12.1814 39.3574 12.4617 39.6181 12.8185C39.8788 13.1753 40.0679 13.5831 40.1855 14.0367C40.303 14.4904 40.3439 14.9695 40.3081 15.469H35.6565C35.682 16.0246 35.8252 16.4426 36.0961 16.6975ZM38.0948 13.318C37.8801 13.0887 37.558 12.9714 37.1287 12.9714C36.8475 12.9714 36.6124 13.0173 36.4232 13.1141C36.2341 13.211 36.0859 13.3282 35.9734 13.4658C35.8609 13.6086 35.7843 13.7564 35.7383 13.9144C35.6923 14.0724 35.6667 14.21 35.6565 14.3375H38.5395C38.4577 13.8889 38.3095 13.5474 38.0948 13.318Z" fill="#FEFAE0"/>
<path d="M42.7925 11.8093V13.002H42.818C42.8998 12.8032 43.0123 12.6197 43.1554 12.4464C43.2986 12.2782 43.457 12.1304 43.641 12.0132C43.8251 11.8959 44.0193 11.7991 44.2289 11.7328C44.4385 11.6666 44.6532 11.636 44.8781 11.636C44.9956 11.636 45.1234 11.6564 45.2666 11.6972V13.3384C45.1848 13.3232 45.0825 13.3079 44.965 13.2977C44.8474 13.2875 44.7349 13.2773 44.6276 13.2773C44.3056 13.2773 44.0295 13.3334 43.8046 13.4404C43.5797 13.5474 43.4008 13.6953 43.2628 13.8839C43.1248 14.0724 43.0276 14.2865 42.9714 14.5363C42.9152 14.7861 42.8845 15.0562 42.8845 15.3467V18.247H41.1158V11.8093H42.7925Z" fill="#FEFAE0"/>
<path d="M50 11.8093V12.9918H48.7016V16.1776C48.7016 16.4783 48.7527 16.6771 48.8498 16.7739C48.947 16.8708 49.1514 16.9218 49.4479 16.9218C49.5501 16.9218 49.6421 16.9167 49.7342 16.9116C49.8262 16.9014 49.9131 16.8912 49.9949 16.8759V18.2419C49.8466 18.2674 49.6779 18.2827 49.4939 18.2929C49.3099 18.3031 49.131 18.3082 48.9572 18.3082C48.6811 18.3082 48.4204 18.2878 48.1802 18.2521C47.9348 18.2165 47.7201 18.1451 47.531 18.033C47.3419 17.9259 47.1987 17.773 47.0863 17.5742C46.9789 17.3754 46.9227 17.1155 46.9227 16.7892V12.9969H45.8492V11.8144H46.9227V9.88763H48.6914V11.8144H50V11.8093Z" fill="#FEFAE0"/>
<path d="M51.0326 10.8153V9.35748H52.8012V10.8153H51.0326ZM52.8012 11.8092V18.2368H51.0326V11.8092H52.8012Z" fill="#FEFAE0"/>
<path d="M53.5067 12.9918V11.8092H54.5648V11.3097C54.5648 10.7388 54.7437 10.2699 55.1016 9.90288C55.4594 9.53588 56.0012 9.35748 56.722 9.35748C56.8805 9.35748 57.0389 9.36258 57.1974 9.37787C57.3558 9.38807 57.5092 9.40336 57.6574 9.40846V10.7286C57.4479 10.7031 57.2332 10.6929 57.0082 10.6929C56.768 10.6929 56.5942 10.749 56.492 10.8612C56.3897 10.9733 56.3386 11.1619 56.3386 11.4269V11.8143H57.5603V12.9969H56.3386V18.247H54.5648V12.9969H53.5067V12.9918Z" fill="#FEFAE0"/>
<path d="M58.7563 10.8153V9.35748H60.525V10.8153H58.7563ZM60.5301 11.8092V18.2368H58.7563V11.8092H60.5301Z" fill="#FEFAE0"/>
<path d="M63.3212 16.6975C63.587 16.9523 63.9704 17.0849 64.4662 17.0849C64.824 17.0849 65.1307 16.9982 65.3914 16.8198C65.647 16.6414 65.8055 16.4528 65.8668 16.254H67.4259C67.1754 17.0237 66.7921 17.5793 66.2809 17.9106C65.7646 18.2419 65.141 18.4101 64.41 18.4101C63.9039 18.4101 63.4439 18.3286 63.0401 18.1655C62.6311 18.0024 62.2886 17.773 62.0024 17.4773C61.7212 17.1817 61.5014 16.8249 61.3481 16.4069C61.1947 15.9941 61.118 15.5353 61.118 15.0409C61.118 14.5617 61.1998 14.1132 61.3532 13.7003C61.5116 13.2722 61.7366 12.9154 62.0279 12.6146C62.3193 12.3139 62.6669 12.0743 63.0707 11.901C63.4745 11.7277 63.9193 11.6411 64.41 11.6411C64.957 11.6411 65.4375 11.7481 65.8464 11.9571C66.2553 12.1712 66.5876 12.4515 66.8483 12.8083C67.109 13.1651 67.2981 13.5729 67.4157 14.0265C67.5333 14.4802 67.5742 14.9593 67.5435 15.4589H62.8918C62.9123 16.0246 63.0554 16.4426 63.3212 16.6975ZM65.325 13.318C65.1154 13.0887 64.7883 12.9714 64.3589 12.9714C64.0777 12.9714 63.8426 13.0173 63.6535 13.1141C63.4643 13.211 63.3161 13.3282 63.2036 13.4658C63.0912 13.6086 63.0145 13.7564 62.9685 13.9144C62.9225 14.0724 62.8969 14.21 62.8867 14.3375H65.7646C65.6828 13.8889 65.5346 13.5474 65.325 13.318Z" fill="#FEFAE0"/>
<path d="M72.9159 17.4213C72.7063 17.7679 72.4353 18.0227 72.098 18.1757C71.7606 18.3286 71.3823 18.405 70.9581 18.405C70.4776 18.405 70.0533 18.3133 69.6852 18.1247C69.3172 17.9361 69.0156 17.6863 68.7805 17.3652C68.5453 17.0441 68.3664 16.6771 68.2437 16.2642C68.1211 15.8513 68.0648 15.4181 68.0648 14.9695C68.0648 14.5363 68.1262 14.1234 68.2437 13.7207C68.3613 13.318 68.5453 12.9663 68.7805 12.6554C69.0156 12.3496 69.3172 12.0998 69.6699 11.9163C70.0277 11.7277 70.4418 11.636 70.9172 11.636C71.3005 11.636 71.6635 11.7175 72.006 11.8806C72.3536 12.0437 72.6245 12.2782 72.8238 12.5942H72.8494V9.36261H74.6181V18.2419H72.9363V17.4213H72.9159ZM72.8392 14.2406C72.7881 13.996 72.7063 13.7819 72.5836 13.5933C72.4609 13.4047 72.3076 13.2569 72.1133 13.1396C71.9242 13.0224 71.6788 12.9663 71.3926 12.9663C71.1063 12.9663 70.8558 13.0224 70.6565 13.1396C70.4571 13.2569 70.2986 13.4098 70.176 13.5984C70.0584 13.787 69.9715 14.0062 69.9153 14.2508C69.859 14.4955 69.8335 14.7503 69.8335 15.0154C69.8335 15.2652 69.8642 15.5149 69.9204 15.7596C69.9766 16.0094 70.0737 16.2285 70.2015 16.4273C70.3293 16.621 70.4929 16.779 70.6871 16.9014C70.8814 17.0237 71.1165 17.0798 71.3926 17.0798C71.6839 17.0798 71.9242 17.0237 72.1235 16.9065C72.3178 16.7892 72.4762 16.6363 72.5938 16.4375C72.7114 16.2438 72.7932 16.0195 72.8443 15.7749C72.8954 15.5251 72.921 15.2703 72.921 15.0052C72.9158 14.7402 72.8903 14.4853 72.8392 14.2406Z" fill="#FEFAE0"/>
<path d="M29.6962 86.5036C29.6093 85.8817 29.0112 85.4077 28.3263 85.4077C27.0892 85.4077 26.6241 86.4577 26.6241 87.5536C26.6241 88.5934 27.0892 89.6434 28.3263 89.6434C29.1697 89.6434 29.6451 89.0675 29.7473 88.2417H31.0866C30.9435 89.8015 29.8649 90.8005 28.3263 90.8005C26.3838 90.8005 25.2439 89.3529 25.2439 87.5536C25.2439 85.6982 26.3838 84.2506 28.3263 84.2506C29.7064 84.2506 30.8617 85.056 31.0304 86.5036H29.6962Z" fill="#FEFAE0"/>
<path d="M33.9644 86.004C35.3957 86.004 36.3158 86.947 36.3158 88.3946C36.3158 89.832 35.3957 90.775 33.9644 90.775C32.5434 90.775 31.6182 89.8269 31.6182 88.3946C31.6182 86.9521 32.5434 86.004 33.9644 86.004ZM33.9644 89.8422C34.8181 89.8422 35.0686 89.1133 35.0686 88.3997C35.0686 87.6708 34.813 86.947 33.9644 86.947C33.121 86.947 32.8654 87.6759 32.8654 88.3997C32.8654 89.1133 33.121 89.8422 33.9644 89.8422Z" fill="#FEFAE0"/>
<path d="M37.0878 86.1213H38.2737V86.9623H38.2941C38.5191 86.3915 39.1376 85.999 39.7459 85.999C39.8328 85.999 39.9401 86.0143 40.0168 86.0397V87.1968C39.8992 87.1713 39.7152 87.156 39.567 87.156C38.652 87.156 38.335 87.8136 38.335 88.6087V90.6476H37.0878V86.1213Z" fill="#FEFAE0"/>
<path d="M40.5024 86.1264H41.6883V86.7023H41.7037C42.0002 86.2232 42.4909 86.004 43.0532 86.004C44.4794 86.004 45.1183 87.1509 45.1183 88.4354C45.1183 89.6434 44.4538 90.775 43.1247 90.775C42.5829 90.775 42.0615 90.5405 41.765 90.092H41.7446V92.2481H40.4973V86.1264H40.5024ZM43.8711 88.4048C43.8711 87.6861 43.5797 86.9419 42.7823 86.9419C41.9644 86.9419 41.7037 87.6708 41.7037 88.4048C41.7037 89.1388 41.9848 89.8422 42.7925 89.8422C43.6104 89.8422 43.8711 89.1388 43.8711 88.4048Z" fill="#FEFAE0"/>
<path d="M47.853 86.004C49.2843 86.004 50.2095 86.947 50.2095 88.3946C50.2095 89.832 49.2843 90.775 47.853 90.775C46.432 90.775 45.5118 89.8269 45.5118 88.3946C45.5118 86.9521 46.432 86.004 47.853 86.004ZM47.853 89.8422C48.7067 89.8422 48.9623 89.1133 48.9623 88.3997C48.9623 87.6708 48.7067 86.947 47.853 86.947C47.0096 86.947 46.754 87.6759 46.754 88.3997C46.7591 89.1133 47.0147 89.8422 47.853 89.8422Z" fill="#FEFAE0"/>
<path d="M50.9814 86.1213H52.1674V86.9623H52.1878C52.4127 86.3915 53.0312 85.999 53.6344 85.999C53.7213 85.999 53.8287 86.0143 53.9053 86.0397V87.1968C53.7929 87.1713 53.6089 87.156 53.4555 87.156C52.5405 87.156 52.2236 87.8136 52.2236 88.6087V90.6476H50.9763V86.1213H50.9814Z" fill="#FEFAE0"/>
<path d="M54.2734 87.5179C54.345 86.3506 55.3878 86.004 56.4101 86.004C57.3149 86.004 58.4037 86.2028 58.4037 87.2885V89.6434C58.4037 90.0563 58.4446 90.4641 58.5621 90.6527H57.2944C57.2535 90.5099 57.2126 90.3621 57.2075 90.2143C56.8139 90.6272 56.2363 90.775 55.6791 90.775C54.8203 90.775 54.1354 90.3468 54.1354 89.4191C54.1354 88.3946 54.9072 88.1499 55.6791 88.0429C56.4459 87.9308 57.1564 87.9563 57.1564 87.4465C57.1564 86.9113 56.7833 86.8349 56.3488 86.8349C55.8734 86.8349 55.5667 87.0286 55.5207 87.5179H54.2734ZM57.1513 88.4405C56.9366 88.624 56.5021 88.6342 56.1136 88.7055C55.7251 88.782 55.3775 88.9145 55.3775 89.3733C55.3775 89.8371 55.7353 89.9493 56.1443 89.9493C57.1155 89.9493 57.1564 89.1796 57.1564 88.9094V88.4405H57.1513Z" fill="#FEFAE0"/>
<path d="M60.9186 86.1264H61.8336V86.9572H60.9186V89.2C60.9186 89.6231 61.0259 89.725 61.4451 89.725C61.578 89.725 61.7007 89.7148 61.8336 89.6893V90.6629C61.624 90.6986 61.348 90.7088 61.1026 90.7088C60.341 90.7088 59.6713 90.5304 59.6713 89.6333V86.9623H58.9148V86.1315H59.6713V84.7756H60.9186V86.1264Z" fill="#FEFAE0"/>
<path d="M64.0214 85.428H62.7742V84.4035H64.0214V85.428ZM62.7742 86.1264H64.0214V90.6527H62.7742V86.1264Z" fill="#FEFAE0"/>
<path d="M67.2009 86.004C68.6322 86.004 69.5574 86.947 69.5574 88.3946C69.5574 89.832 68.6322 90.775 67.2009 90.775C65.7799 90.775 64.8597 89.8269 64.8597 88.3946C64.8597 86.9521 65.7799 86.004 67.2009 86.004ZM67.2009 89.8422C68.0546 89.8422 68.3102 89.1133 68.3102 88.3997C68.3102 87.6708 68.0546 86.947 67.2009 86.947C66.3575 86.947 66.1019 87.6759 66.1019 88.3997C66.1019 89.1133 66.3575 89.8422 67.2009 89.8422Z" fill="#FEFAE0"/>
<path d="M70.36 86.1264H71.5459V86.7584H71.5715C71.8884 86.2487 72.4302 86.004 72.9619 86.004C74.2858 86.004 74.6232 86.7482 74.6232 87.8696V90.6527H73.3759V88.0939C73.3759 87.3497 73.1561 86.9827 72.5785 86.9827C71.8986 86.9827 71.6124 87.3599 71.6124 88.2825V90.6578H70.3651V86.1264H70.36Z" fill="#FEFAE0"/>
</g>
<defs>
<clipPath id="clip0_1419_4637">
<rect width="100" height="100" fill="white"/>
</clipPath>
</defs>
</svg>
