<svg width="100" height="100" viewBox="0 0 100 100" fill="none" xmlns="http://www.w3.org/2000/svg">
<g clip-path="url(#clip0_1419_4639)">
<path d="M81.4285 49.7695H81.0031C80.6204 51.3027 78.8158 52.4894 77.448 53.2642C75.5663 54.3336 72.9078 55.3212 71.4573 53.0868C69.5869 50.2087 73.9615 46.3921 76.3344 45.1071C77.9363 44.2396 81.7854 42.8401 83.4245 43.9723C84.2754 44.5615 83.8128 45.4836 83.8471 46.2966C83.9071 47.6497 84.0384 49.0247 84.1383 50.3833C84.1526 50.5852 84.027 50.7789 84.3497 50.7216C85.6003 49.6631 86.9852 48.7001 88.4901 47.9935C88.8813 46.834 89.1525 43.6776 90.7716 43.6149C91.8338 43.574 92.8475 44.2614 92.8589 45.3336C92.8789 47.4097 91.8509 50.4597 91.7053 52.7022C91.6796 53.1059 91.6339 54.4754 91.8309 54.7346C91.9994 54.9119 92.3621 54.8274 92.5591 54.7428C93.5185 54.3281 94.9548 51.079 95.2204 51.0026C95.6173 50.888 95.9342 51.4363 95.9828 51.7555C96.1855 53.1196 94.3694 55.2066 93.2644 55.9623C91.5854 57.1053 89.5694 56.2051 88.7499 54.5709C88.6157 54.3063 88.1388 53.035 88.1388 52.8359V49.9031C87.0795 50.9426 85.6632 52.0011 84.7094 53.1059C83.8157 54.1426 84.2783 54.3854 84.1241 55.5476C83.4587 60.5018 80.0379 69.9192 74.8638 72.0717C71.9027 73.3021 70.4436 71.7498 70.7177 68.9289C71.3288 62.6379 77.1825 57.2035 81.4314 52.8386V49.7695H81.4285ZM80.8546 45.5409C80.3691 45.0717 76.7199 47.7916 76.2116 48.2636C75.3664 49.0465 72.3396 52.5058 75.5091 51.6846C77.8192 51.0844 80.7175 47.8625 80.8546 45.5409ZM80.8546 57.5446C80.6261 57.3099 79.4611 58.9495 79.3098 59.1378C76.9769 62.0705 74.3698 65.7261 73.8587 69.4118C74.2099 69.7883 76.283 67.2157 76.4857 66.9456C78.496 64.2666 80.1521 60.7692 80.8517 57.5473L80.8546 57.5446Z" fill="#FEFAE0"/>
<path d="M68.8218 45.9119C68.3592 46.4576 66.843 46.4848 66.152 46.7004C63.5649 47.5133 61.6004 51.4664 61.726 53.9271C61.8117 55.5749 62.6597 57.2063 64.6329 56.1614C66.5946 55.1193 67.8909 49.7504 67.2941 47.7234C70.7207 49.9714 68.422 56.808 65.0069 57.8828C62.6712 58.6194 60.0384 56.7261 58.7963 54.9529H58.5879C56.9545 57.2254 54.1105 59.5634 51.1694 57.7383C49.8587 56.9253 49.1306 55.8941 48.7422 54.4645C46.9833 47.9798 49.2791 34.4758 53.8735 29.2433C55.4468 27.4536 58.4851 26.4006 59.3417 29.3333C60.1898 32.2333 57.9882 38.2924 56.7061 41.0887C55.9123 42.8183 53.8935 45.6719 53.4595 47.2624C53.1939 48.2336 53.1739 50.6261 53.1511 51.7419C53.1168 53.4961 53.0711 55.2884 53.5108 57.0017C53.8564 57.4436 54.8072 56.7125 55.0899 56.4615C55.5925 56.0114 58.2052 53.0132 58.2909 52.5631C58.348 52.2575 58.2452 51.9138 58.2995 51.6164C58.9848 47.7125 62.3599 43.3257 66.9172 43.7895C67.948 43.8931 69.8184 44.7416 68.819 45.9174L68.8218 45.9119ZM58.1538 29.3087C57.774 29.2351 57.9083 29.4015 57.7997 29.5761C56.7975 31.202 55.9808 33.7746 55.404 35.6134C54.6702 37.9595 54.0305 40.3712 53.7307 42.8101C54.3618 42.0926 54.7073 40.9768 55.0813 40.0765C56.5205 36.62 57.7169 33.0189 58.1538 29.306V29.3087Z" fill="#FEFAE0"/>
<path d="M22.1634 30.6865C22.0806 32.9808 19.0538 32.2196 17.3948 32.2988C17.0893 32.3124 16.8123 32.4324 16.5353 32.4434C15.3246 32.4979 14.1082 32.4624 12.9032 32.5879L11.327 42.9465L19.3222 43.2193C19.4793 43.8277 18.9139 45.0062 18.2486 45.1263C16.3925 45.4618 13.6656 44.8453 11.6782 44.9872C11.4155 45.0062 11.1556 45.0308 10.9186 45.1508L9.60226 54.7483C9.60226 54.9474 9.57656 55.1493 9.75645 55.2939C10.3504 55.7795 14.9277 55.6595 15.9756 55.6377L20.1018 55.3567C21.7808 56.2815 18.8254 56.8544 18.0401 57.0672C14.705 57.9647 10.279 58.895 6.82675 58.6386C6.07862 58.584 4.73084 58.3985 4.36535 57.7165C3.66576 56.4097 4.15975 51.7665 4.35107 50.1269C5.0478 44.1114 6.26708 38.126 6.90956 32.0969C5.86732 31.0738 6.05578 30.5882 7.47494 30.1981C9.95348 29.5161 17.4919 30.1217 20.3902 30.4C20.6643 30.4273 22.1092 30.6073 22.1634 30.6837V30.6865Z" fill="#FEFAE0"/>
<path d="M43.7366 47.587C46.3551 49.6958 45.6555 53.4497 43.9365 55.8941C41.2352 59.7379 36.8749 57.8092 35.096 54.4045C32.8773 56.2514 29.9619 58.2539 26.8323 57.9374C16.4898 56.8953 21.0843 42.5727 31.244 43.6285C32.0292 43.7104 33.7368 44.2205 33.2399 45.2626C32.7888 46.2093 31.0726 45.8383 30.2531 45.9583C28.3428 46.2393 26.8865 50.2824 26.7495 51.8865C26.2298 57.9401 32.0292 55.1438 34.759 52.844C34.6305 48.3536 39.2078 42.3436 44.4533 43.9723C45.21 44.2069 45.8296 45.0908 45.3671 45.8055C44.9045 46.5203 43.334 46.4548 42.4973 46.7467C39.6847 47.7289 37.803 52.2302 38.3198 54.8792C38.5939 56.2842 39.8418 56.9307 41.161 56.1096C43.2112 54.8301 44.3448 49.8049 43.7395 47.5897L43.7366 47.587Z" fill="#FEFAE0"/>
<path d="M92.2423 37.7959C93.6072 37.6022 93.8614 38.9526 93.8585 40.0165C93.8556 41.0805 92.8677 42.6873 91.5998 42.1635C91.1173 41.9644 89.9836 40.2484 89.9836 39.7437C89.9836 38.9007 91.4342 37.9104 92.2423 37.7959Z" fill="#FEFAE0"/>
</g>
<defs>
<clipPath id="clip0_1419_4639">
<rect width="92" height="45" fill="white" transform="translate(4 27.5)"/>
</clipPath>
</defs>
</svg>
