<svg width="175" height="175" viewBox="0 0 175 175" fill="none" xmlns="http://www.w3.org/2000/svg">
<g clip-path="url(#clip0_907_6805)">
<path d="M87.44 117.49C88.83 117.49 89.95 116.22 89.95 114.65C89.95 113.08 88.83 111.81 87.44 111.81C86.05 111.81 84.93 113.08 84.93 114.65C84.93 116.22 86.05 117.49 87.44 117.49Z" fill="#FFF5C4"/>
<path d="M155.52 73.53C179.93 59.73 170.15 40.41 143.24 46.79C160.37 24.6 146.17 10.6 125.77 23.71C130.02 2.45 116.43 -4.32 103.9 8.5C98.27 -5.45 84.42 -2.6 79.66 19.76C68.06 -6.65 47.67 -0.280003 54.35 29.38C33.61 9.63 17.34 21.46 31.33 43.71C6.59001 36.24 -1.31999 54.97 24.04 70.11C-3.87999 73.39 -8.12999 96.61 14.65 102.5C1.33514e-05 116.6 7.14001 133.8 28.12 129.69C19.98 148.23 31.85 161.25 48.23 151.73C49.13 166.85 60 173.36 70.03 166.05C76.3 180.38 91.13 177.32 96.83 158.14C109.48 179.65 127.7 170.89 124.08 146.35C143.82 161.14 157.17 147.91 147.21 128.53C168.02 132.11 173.85 115.76 158.14 102.26C181.9 98.18 180.11 78.83 155.53 73.54L155.52 73.53ZM35.65 98.3L32.93 90.07L42.23 94.94C39.52 78.6 45.6 62.27 58.67 51.53C72.54 40.13 91.05 37.82 106.99 45.51C115.73 49.73 123.16 56.76 127.92 65.3L122.59 68.27C118.44 60.81 111.96 54.68 104.34 51.01C90.57 44.37 74.56 46.37 62.55 56.25C51.75 65.13 46.43 78.39 47.96 91.87L51.84 83.93L54.56 92.16L48.32 104.93L35.66 98.31L35.65 98.3ZM84.79 100.1H78.96V91.03H84.8C85.12 91.03 85.39 90.73 85.39 90.36V88.61C85.39 88.24 85.13 87.94 84.8 87.94H78.96V78.93H84.75C85.07 78.93 85.34 78.63 85.34 78.26V76.51C85.34 76.14 85.08 75.84 84.75 75.84H78.96V66.89H84.78C85.1 66.89 85.37 66.59 85.37 66.22V64.47C85.37 64.1 85.11 63.8 84.78 63.8H78.96V61.82C78.96 59.67 80.5 57.93 82.39 57.93H92.83C94.72 57.93 96.26 59.67 96.26 61.82V116.33C96.26 118.48 94.72 120.22 92.83 120.22H82.39C80.5 120.22 78.96 118.48 78.96 116.33V103.16H84.79C85.11 103.16 85.38 102.86 85.38 102.49V100.74C85.38 100.37 85.12 100.07 84.79 100.07V100.1ZM132.77 80.06C135.48 96.4 129.4 112.73 116.33 123.47C107.89 130.41 97.73 133.98 87.48 133.98C80.88 133.98 74.25 132.5 68.01 129.49C59.27 125.27 51.84 118.25 47.08 109.7L52.41 106.73C56.56 114.19 63.04 120.32 70.66 123.99C84.43 130.63 100.44 128.63 112.45 118.75C123.25 109.87 128.57 96.61 127.04 83.13L123.16 91.07L120.44 82.84L126.68 70.07L139.34 76.69L142.06 84.92L132.76 80.05L132.77 80.06Z" fill="#FFF5C4"/>
</g>
<defs>
<clipPath id="clip0_907_6805">
<rect width="174.99" height="174.99" fill="white"/>
</clipPath>
</defs>
</svg>
