<svg width="364" height="346" viewBox="0 0 364 346" fill="none" xmlns="http://www.w3.org/2000/svg">
<g clip-path="url(#clip0_907_7104)">
<path d="M153.371 132.834C148.481 132.834 143.506 132.23 138.541 131.014C125.529 127.839 117.525 121.316 109.785 115.005C100.829 107.708 93.094 98.9158 86.786 88.8737C84.4305 85.1239 85.5612 80.176 89.3064 77.8176C93.0516 75.4592 97.9935 76.5912 100.349 80.3411C105.724 88.8973 112.301 96.3781 119.895 102.567C126.844 108.227 132.841 113.113 142.343 115.434C150.804 117.505 159.199 117.212 166.628 114.585C170.105 113.354 171.391 112.349 173.954 110.354C176.592 108.297 180.205 105.482 187.126 101.741C191.827 99.2035 201.602 93.9349 215.132 90.8737L215.198 90.8595C222.807 89.1473 234.306 86.5578 247.77 89.4067C252.566 90.4208 256.481 91.8736 259.656 93.3688C258.125 88.1379 255.378 81.058 250.762 72.7895C243.86 60.4362 231.465 43.1256 211.609 30.8195C191.219 18.1785 171.301 16.339 163.684 16.1361C153.791 15.8673 135.404 15.3673 118.788 27.2725C111.679 32.3666 105.785 39.0267 101.277 47.0547C99.11 50.913 94.2247 52.2856 90.3711 50.1159C86.5175 47.9462 85.1466 43.0549 87.3136 39.1965C92.981 29.1026 100.434 20.7067 109.465 14.2353C130.452 -0.81128 153.178 -0.193381 164.098 0.103776C175.183 0.400934 197.179 3.01403 220.032 17.1833C258.662 41.1257 276.653 84.3173 277.303 101.067C277.515 106.486 276.013 110.415 272.837 112.745C271.514 113.712 267.929 115.726 263.029 113.684C261.559 113.071 260.245 112.231 258.723 111.255C255.642 109.279 251.417 106.571 244.449 105.099C234.4 102.972 225.699 104.934 218.703 106.505L218.647 106.519C207.26 109.095 199.101 113.495 194.72 115.858C188.982 118.957 186.221 121.108 183.785 123.009C180.752 125.377 177.883 127.608 171.956 129.707C166.063 131.792 159.788 132.834 153.367 132.839L153.371 132.834Z" fill="#FEFAE0"/>
<path d="M66.4204 124.504C65.1672 124.504 63.8953 124.207 62.7081 123.584C58.7885 121.528 57.281 116.684 59.335 112.759C66.3685 99.3308 75.8518 87.7416 87.5209 78.308C111.655 58.7947 138.513 54.3515 152.373 53.4411C156.791 53.1487 160.598 56.4976 160.89 60.9172C161.182 65.3369 157.837 69.1527 153.423 69.4452C141.452 70.2329 118.284 74.0535 97.5789 90.7887C87.6199 98.8355 79.5264 108.731 73.5198 120.207C72.0877 122.943 69.3035 124.504 66.4204 124.504Z" fill="#FEFAE0"/>
<path d="M244.006 337.883C226.462 337.883 212.009 334.581 204.862 330.84C200.067 328.331 197.419 325.072 196.981 321.157C196.802 319.534 196.835 315.412 201.047 312.171C202.309 311.2 203.694 310.478 205.296 309.639C208.542 307.945 212.989 305.62 217.733 300.309C224.592 292.616 227.211 284.083 229.317 277.225C232.747 266.055 232.987 256.787 233.119 251.811C233.284 245.297 232.789 241.83 232.356 238.769C231.814 234.958 231.301 231.354 232.431 225.156C234.41 214.326 239.762 204.067 247.912 195.487C257.117 185.785 266.741 182.073 276.046 178.488C286.862 174.323 298.333 171.979 310.177 171.498C314.596 171.319 318.322 174.762 318.501 179.186C318.68 183.611 315.241 187.342 310.822 187.521C300.731 187.931 290.975 189.922 281.831 193.44C273.45 196.671 266.242 199.45 259.519 206.534C253.518 212.85 249.603 220.288 248.185 228.038C247.521 231.67 247.751 233.283 248.208 236.505C248.679 239.821 249.325 244.358 249.127 252.221C248.986 257.565 248.698 268.668 244.623 281.937C242.334 289.399 238.871 300.681 229.671 310.997C226.406 314.652 223.202 317.327 220.329 319.336C225.624 320.61 233.128 321.747 242.598 321.846C256.74 321.987 277.916 319.841 298.465 308.723C319.552 297.309 331.061 280.923 335.027 274.409C340.172 265.966 349.749 250.264 347.691 229.911C346.81 221.203 343.969 212.779 339.248 204.874C336.978 201.072 338.217 196.148 342.014 193.879C345.811 191.606 350.729 192.846 352.995 196.648C358.926 206.581 362.507 217.232 363.623 228.293C366.224 254.013 354.385 273.432 348.694 282.762C342.928 292.234 329.713 310.035 306.074 322.831C285.336 334.053 262.878 337.883 243.992 337.883H244.006Z" fill="#FEFAE0"/>
<path d="M301.094 250.542C299.912 250.542 298.71 250.277 297.575 249.721C293.604 247.773 291.959 242.966 293.905 238.99C299.177 228.222 307.383 206.232 303.157 179.908C301.132 167.276 296.576 155.329 289.609 144.395C287.23 140.659 288.327 135.702 292.054 133.325C295.785 130.943 300.736 132.042 303.11 135.773C311.26 148.565 316.593 162.559 318.968 177.365C323.895 208.062 314.388 233.575 308.283 246.047C306.893 248.886 304.048 250.537 301.085 250.537L301.094 250.542Z" fill="#FEFAE0"/>
<path d="M84.7791 346C74.0286 346 63.7681 343.901 54.2519 339.755C30.5697 329.444 19.4329 309.61 14.0812 300.082C8.64939 290.394 -0.400436 270.14 0.014132 243.283C0.720782 197.817 28.5204 160.196 42.545 151.041C47.0864 148.079 51.2274 147.353 54.8502 148.885C56.353 149.518 59.9239 151.565 60.6918 156.829C60.9226 158.404 60.8755 159.97 60.819 161.776C60.7059 165.437 60.5552 170.451 62.8636 177.186C66.2084 186.922 72.3656 193.393 77.3169 198.596C85.3963 207.077 93.3437 211.812 97.6166 214.355C103.218 217.689 106.483 218.953 109.361 220.071C112.951 221.463 116.343 222.779 121.19 226.797C129.666 233.821 135.988 243.514 139.469 254.825C143.431 267.626 141.942 277.852 140.501 287.738C138.838 299.186 135.267 310.346 129.896 320.902C127.889 324.85 123.065 326.416 119.127 324.407C115.189 322.397 113.62 317.567 115.627 313.624C120.206 304.629 123.24 295.144 124.653 285.427C125.944 276.564 127.056 268.904 124.168 259.56C121.6 251.23 117.04 244.179 110.977 239.151C108.132 236.792 106.61 236.203 103.581 235.023C100.462 233.816 96.1892 232.16 89.4336 228.137C84.8545 225.411 75.3242 219.736 65.7326 209.666C60.3432 204.001 52.2026 195.45 47.7224 182.398C46.1301 177.757 45.3716 173.653 45.023 170.158C41.3202 174.153 36.6563 180.148 31.9359 188.365C24.8835 200.633 16.399 220.166 16.0362 243.533C15.6782 266.626 23.4137 283.955 28.054 292.229C32.8922 300.846 41.8996 316.893 60.6494 325.053C68.6675 328.543 77.4017 330.199 86.607 329.939C91.0306 329.831 94.7099 333.312 94.8277 337.741C94.9455 342.17 91.4593 345.854 87.0357 345.972C86.2819 345.991 85.5329 346 84.7838 346H84.7791Z" fill="#FEFAE0"/>
<path d="M158.181 332.397C145.25 332.397 132.6 330.152 120.493 325.699C91.3651 314.992 73.7601 294.21 65.8645 282.771C63.3488 279.13 64.258 274.135 67.8949 271.616C71.5318 269.097 76.5208 270.008 79.0364 273.649C85.858 283.526 101.032 301.459 126.014 310.643C138.023 315.058 150.672 316.926 163.604 316.204C168.008 315.954 171.801 319.341 172.046 323.76C172.291 328.18 168.913 331.967 164.499 332.213C162.388 332.331 160.278 332.392 158.181 332.392V332.397Z" fill="#FEFAE0"/>
</g>
<defs>
<clipPath id="clip0_907_7104">
<rect width="364" height="346" fill="white"/>
</clipPath>
</defs>
</svg>
