<svg width="175" height="175" viewBox="0 0 175 175" fill="none" xmlns="http://www.w3.org/2000/svg">
<g clip-path="url(#clip0_907_6802)">
<path d="M155.52 73.53C179.93 59.73 170.15 40.41 143.24 46.79C160.37 24.6 146.17 10.6 125.77 23.71C130.02 2.45 116.43 -4.32 103.9 8.5C98.27 -5.45 84.42 -2.6 79.66 19.76C68.06 -6.65 47.67 -0.280003 54.35 29.38C33.61 9.63 17.34 21.46 31.33 43.71C6.59001 36.24 -1.31999 54.97 24.04 70.11C-3.87999 73.39 -8.12999 96.61 14.65 102.5C1.33514e-05 116.6 7.14001 133.8 28.12 129.69C19.98 148.23 31.85 161.25 48.23 151.73C49.13 166.85 60 173.36 70.03 166.05C76.3 180.38 91.13 177.32 96.83 158.14C109.48 179.65 127.7 170.89 124.08 146.35C143.82 161.14 157.17 147.91 147.21 128.53C168.02 132.11 173.85 115.76 158.14 102.26C181.9 98.18 180.11 78.83 155.53 73.54L155.52 73.53ZM113.42 80.37L79.38 139.02V100.1C79.38 98.38 78.26 96.99 76.87 96.99H63.61C61.56 96.99 60.38 94.12 61.57 92.06L95.61 33.41V72.33C95.61 74.05 96.73 75.44 98.12 75.44H111.38C113.43 75.44 114.61 78.31 113.42 80.37Z" fill="#FFF5C4"/>
</g>
<defs>
<clipPath id="clip0_907_6802">
<rect width="174.99" height="174.99" fill="white"/>
</clipPath>
</defs>
</svg>
