<svg width="175" height="175" viewBox="0 0 175 175" fill="none" xmlns="http://www.w3.org/2000/svg">
<g clip-path="url(#clip0_907_6835)">
<path d="M99.05 78.47C99.05 66.92 89.65 57.53 78.11 57.53C66.57 57.53 57.17 66.93 57.17 78.47C57.17 90.01 66.57 99.41 78.11 99.41C83.7 99.41 88.96 97.23 92.92 93.28C96.88 89.32 99.06 84.06 99.06 78.47H99.05Z" fill="#FFF5C4"/>
<path d="M155.52 73.53C179.93 59.73 170.15 40.41 143.24 46.79C160.37 24.6 146.17 10.6 125.77 23.71C130.02 2.45 116.43 -4.32 103.9 8.5C98.27 -5.45 84.42 -2.6 79.66 19.76C68.06 -6.65 47.67 -0.280003 54.35 29.38C33.61 9.63 17.34 21.46 31.33 43.71C6.59001 36.24 -1.31999 54.97 24.04 70.11C-3.87999 73.39 -8.12999 96.61 14.65 102.5C1.33514e-05 116.6 7.14001 133.8 28.12 129.69C19.98 148.23 31.85 161.25 48.23 151.73C49.13 166.85 60 173.36 70.03 166.05C76.3 180.38 91.13 177.32 96.83 158.14C109.48 179.65 127.7 170.89 124.08 146.35C143.82 161.14 157.17 147.91 147.21 128.53C168.02 132.11 173.85 115.76 158.14 102.26C181.9 98.18 180.11 78.83 155.53 73.54L155.52 73.53ZM115.64 132.06C114.88 132.6 114 132.81 113.14 132.73C112.08 132.64 111.07 132.1 110.41 131.16L91.06 103.79C87.1 105.82 82.68 106.91 78.1 106.91C62.42 106.91 49.66 94.15 49.66 78.47C49.66 62.79 62.42 50.03 78.1 50.03C93.78 50.03 106.54 62.79 106.54 78.47C106.54 86.07 103.58 93.21 98.21 98.58C97.89 98.9 97.56 99.22 97.22 99.52L116.53 126.83C117.73 128.52 117.32 130.86 115.63 132.06H115.64ZM125.33 48.65C125.33 49.6 124.18 50.07 123.52 49.4L119.36 45.24V64.19C119.36 65.57 118.24 66.69 116.86 66.69C115.48 66.69 114.36 65.57 114.36 64.19V45.24L110.2 49.4C109.53 50.07 108.39 49.6 108.39 48.65V44.46C108.39 44.18 108.5 43.91 108.7 43.71L116.86 35.55L125.02 43.71C125.22 43.91 125.33 44.18 125.33 44.46V48.65Z" fill="#FFF5C4"/>
</g>
<defs>
<clipPath id="clip0_907_6835">
<rect width="174.99" height="174.99" fill="white"/>
</clipPath>
</defs>
</svg>
