<svg width="175" height="175" viewBox="0 0 175 175" fill="none" xmlns="http://www.w3.org/2000/svg">
<g clip-path="url(#clip0_1080_7183)">
<path d="M155.52 73.5301C179.93 59.7301 170.15 40.4101 143.24 46.7901C160.37 24.6001 146.18 10.6001 125.77 23.7101C130.02 2.45012 116.43 -4.31988 103.9 8.50012C98.2698 -5.44988 84.4198 -2.59988 79.6598 19.7601C68.0598 -6.64988 47.6698 -0.279881 54.3498 29.3801C33.6098 9.63012 17.3398 21.4601 31.3298 43.7101C6.58977 36.2401 -1.32023 54.9701 24.0398 70.1101C-3.88023 73.3901 -8.13023 96.6101 14.6498 102.5C-0.000230789 116.6 7.13977 133.8 28.1198 129.69C19.9798 148.23 31.8498 161.25 48.2298 151.73C49.1298 166.85 59.9998 173.36 70.0298 166.05C76.2998 180.38 91.1298 177.32 96.8298 158.14C109.48 179.65 127.7 170.89 124.08 146.35C143.82 161.14 157.17 147.91 147.21 128.53C168.02 132.11 173.86 115.76 158.14 102.26C181.9 98.1801 180.11 78.8301 155.53 73.5401L155.52 73.5301ZM41.8098 114.15V71.1801L69.4198 90.0601L42.2998 116.83C41.9798 115.97 41.8198 115.07 41.8198 114.15H41.8098ZM125.57 121.76H49.4198C48.4098 121.76 47.4598 121.56 46.5698 121.21L74.5698 93.5901L87.4998 102.43L99.9598 93.8301L127.9 121.4C127.16 121.64 126.38 121.76 125.56 121.77L125.57 121.76ZM133.19 114.15C133.19 115.28 132.94 116.35 132.5 117.31L105.11 90.2901L133.18 70.9401V114.15H133.19ZM133.19 63.5201L87.4898 95.0201L41.8098 63.7801V60.8401C41.8098 56.6401 45.2198 53.2201 49.4298 53.2201H125.58C129.78 53.2201 133.2 56.6301 133.2 60.8401V63.5201H133.19Z" fill="#FFF5C4"/>
</g>
<defs>
<clipPath id="clip0_1080_7183">
<rect width="174.99" height="174.99" fill="white"/>
</clipPath>
</defs>
</svg>
