<svg width="175" height="175" viewBox="0 0 175 175" fill="none" xmlns="http://www.w3.org/2000/svg">
<g clip-path="url(#clip0_907_6817)">
<path d="M90.7 50.95C70.04 50.95 53.24 67.76 53.24 88.41C53.24 99.36 58.04 110.24 66.08 117.53C72.99 123.79 81.59 126.76 90.29 125.9C90.95 125.83 91.5 125.76 91.95 125.69C91.79 125.45 91.63 125.22 91.49 125.02C89.47 122.1 86.7 118.11 87.7 113.28C88.37 110.04 90.65 107.2 94.48 104.81C98.44 102.35 103.37 102.6 108.13 102.84C117.6 103.33 125.08 103.71 128.24 87.61C130.16 77.87 125.97 70.24 122.12 65.56C114.82 56.69 102.49 50.95 90.69 50.95H90.7ZM65.64 91.31C61.48 91.31 58.1 87.93 58.1 83.77C58.1 79.61 61.48 76.23 65.64 76.23C69.8 76.23 73.18 79.61 73.18 83.77C73.18 87.93 69.8 91.31 65.64 91.31ZM79.04 72.88C74.88 72.88 71.5 69.5 71.5 65.34C71.5 61.18 74.88 57.8 79.04 57.8C83.2 57.8 86.58 61.18 86.58 65.34C86.58 69.5 83.2 72.88 79.04 72.88ZM100.81 71.2C96.65 71.2 93.27 67.82 93.27 63.66C93.27 59.5 96.65 56.12 100.81 56.12C104.97 56.12 108.35 59.5 108.35 63.66C108.35 67.82 104.97 71.2 100.81 71.2ZM115.89 87.95C111.73 87.95 108.35 84.57 108.35 80.41C108.35 76.25 111.73 72.87 115.89 72.87C120.05 72.87 123.43 76.25 123.43 80.41C123.43 84.57 120.05 87.95 115.89 87.95Z" fill="#FFF5C4"/>
<path d="M155.52 73.53C179.93 59.73 170.15 40.41 143.24 46.79C160.37 24.6 146.17 10.6 125.77 23.71C130.02 2.45 116.43 -4.32 103.9 8.5C98.27 -5.45 84.42 -2.6 79.66 19.76C68.06 -6.65 47.67 -0.280003 54.35 29.38C33.61 9.63 17.34 21.46 31.33 43.71C6.59001 36.24 -1.31999 54.97 24.04 70.11C-3.87999 73.39 -8.12999 96.61 14.65 102.5C1.33514e-05 116.6 7.14001 133.8 28.12 129.69C19.98 148.23 31.85 161.25 48.23 151.73C49.13 166.85 60 173.36 70.03 166.05C76.3 180.38 91.13 177.32 96.83 158.14C109.48 179.65 127.7 170.89 124.08 146.35C143.82 161.14 157.17 147.91 147.21 128.53C168.02 132.11 173.85 115.76 158.14 102.26C181.9 98.18 180.11 78.83 155.53 73.54L155.52 73.53ZM136.46 89.22C131.89 112.44 117.33 111.69 107.7 111.2C104.06 111.01 100.63 110.84 98.9 111.92C97.17 113 96.08 114.11 95.9 114.97C95.63 116.28 97.15 118.48 98.37 120.24C100.16 122.82 102.38 126.03 100.77 129.53C99.17 132.98 94.99 133.84 91.12 134.23C89.85 134.36 88.58 134.42 87.32 134.42C77.57 134.42 68.16 130.7 60.47 123.74C50.7 114.89 44.87 101.69 44.87 88.41C44.87 63.13 65.43 42.57 90.71 42.57C105.12 42.57 119.64 49.34 128.6 60.23C135.66 68.82 138.46 79.11 136.47 89.22H136.46Z" fill="#FFF5C4"/>
</g>
<defs>
<clipPath id="clip0_907_6817">
<rect width="174.99" height="174.99" fill="white"/>
</clipPath>
</defs>
</svg>
