<svg width="175" height="175" viewBox="0 0 175 175" fill="none" xmlns="http://www.w3.org/2000/svg">
<g clip-path="url(#clip0_907_6799)">
<path d="M155.52 73.53C179.93 59.73 170.15 40.41 143.24 46.79C160.37 24.6 146.17 10.6 125.77 23.71C130.02 2.45 116.43 -4.32 103.9 8.5C98.27 -5.45 84.42 -2.6 79.66 19.76C68.06 -6.65 47.67 -0.280003 54.35 29.38C33.61 9.63 17.34 21.46 31.33 43.71C6.59001 36.24 -1.31999 54.97 24.04 70.11C-3.87999 73.39 -8.12999 96.61 14.65 102.5C1.33514e-05 116.6 7.14001 133.8 28.12 129.69C19.98 148.23 31.85 161.25 48.23 151.73C49.13 166.85 60 173.36 70.03 166.05C76.3 180.38 91.13 177.32 96.83 158.14C109.48 179.65 127.7 170.89 124.08 146.35C143.82 161.14 157.17 147.91 147.21 128.53C168.02 132.11 173.85 115.76 158.14 102.26C181.9 98.18 180.11 78.83 155.53 73.54L155.52 73.53ZM114.9 97.35C113.61 98.6 111.39 98.11 110.52 96.38C110.18 95.7 109.8 95 109.4 94.28C105.74 87.68 100.35 83.98 92.77 91.4C84.8 99.2 88.63 103.95 95.33 108.18C96.07 108.64 96.79 109.07 97.51 109.45C99.2 110.34 99.66 112.53 98.42 113.8C92.85 119.5 87.34 125.27 81.93 131.14L81.46 131.65C78.67 127.67 75.69 123.82 72.54 120.13C71.15 118.5 68.6 118.74 67.91 120.61C67.47 121.81 66.9 123.05 66.26 124.34C63.14 130.65 58.05 133.91 49.81 125.82C41.15 117.32 44.59 112.87 50.96 109.2C52.22 108.47 53.46 107.87 54.68 107.42C56.58 106.72 56.95 104.24 55.3 102.83C51.57 99.63 47.68 96.6 43.66 93.76L43.34 93.54L44.61 92.38C50.22 87.24 55.73 81.99 61.18 76.68C62.43 75.46 64.64 75.88 65.52 77.55C65.93 78.34 66.39 79.14 66.9 79.95C71.13 86.65 75.88 90.48 83.68 82.51C91.1 74.93 87.4 69.54 80.8 65.88C80.02 65.45 79.26 65.04 78.52 64.67C76.79 63.81 76.3 61.58 77.55 60.29C82.96 54.72 88.3 49.09 93.53 43.36L94.63 44.86C97.26 48.46 100.04 51.95 102.96 55.31C104.4 56.97 106.89 56.59 107.58 54.66C108.03 53.38 108.66 52.08 109.42 50.76C113.1 44.39 117.54 40.95 126.04 49.61C134.13 57.85 130.87 62.94 124.56 66.06C123.21 66.73 121.92 67.31 120.67 67.76C118.75 68.45 118.4 70.95 120.06 72.38C123.55 75.38 127.17 78.24 130.9 80.95L131.64 81.49C125.97 86.7 120.4 92.01 114.89 97.38L114.9 97.35Z" fill="#FFF5C4"/>
</g>
<defs>
<clipPath id="clip0_907_6799">
<rect width="174.99" height="174.99" fill="white"/>
</clipPath>
</defs>
</svg>
