<svg width="175" height="175" viewBox="0 0 175 175" fill="none" xmlns="http://www.w3.org/2000/svg">
<g clip-path="url(#clip0_907_6795)">
<path d="M110.838 76.5548C114.302 73.0909 114.594 67.766 111.489 64.6613C108.384 61.5566 103.059 61.8479 99.5954 65.3118C96.1314 68.7758 95.8401 74.1007 98.9448 77.2054C102.049 80.31 107.374 80.0188 110.838 76.5548Z" fill="#FFF5C4"/>
<path d="M155.52 73.53C179.93 59.73 170.15 40.41 143.24 46.79C160.37 24.6 146.17 10.6 125.77 23.71C130.02 2.45 116.43 -4.32 103.9 8.5C98.27 -5.45 84.42 -2.6 79.66 19.76C68.06 -6.65 47.67 -0.280003 54.35 29.38C33.61 9.63 17.34 21.46 31.33 43.71C6.59001 36.24 -1.31999 54.97 24.04 70.11C-3.87999 73.39 -8.12999 96.61 14.65 102.5C1.33514e-05 116.6 7.14001 133.8 28.12 129.69C19.98 148.23 31.85 161.25 48.23 151.73C49.13 166.85 60 173.36 70.03 166.05C76.3 180.38 91.13 177.32 96.83 158.14C109.48 179.65 127.7 170.89 124.08 146.35C143.82 161.14 157.17 147.91 147.21 128.53C168.02 132.11 173.85 115.76 158.14 102.26C181.9 98.18 180.11 78.83 155.53 73.54L155.52 73.53ZM65.44 117.13C62.07 120.5 56.39 121.66 55.54 120.77C54.55 119.72 55.78 114.22 59.15 110.84C61.7 108.29 63.33 107.78 64.91 108.61C64.46 108.8 63.95 109.17 63.33 109.79C61.61 111.51 60.99 114.31 61.49 114.84C61.92 115.29 64.81 114.7 66.53 112.99C67.14 112.38 67.5 111.88 67.69 111.43C68.47 112.99 67.95 114.62 65.44 117.12V117.13ZM106.01 99.87C103.88 102 101.87 103.88 99.97 105.53C100.38 108.24 99 111.8 95.27 117.11C88.49 126.77 75.94 132.9 73.81 131.42C71.87 130.08 72.26 121.99 75.65 113.93C72.96 112.77 70.38 110.79 67.74 108.14C65.23 105.63 63.33 103.19 62.16 100.67C54.25 103.89 46.42 104.22 45.11 102.32C43.64 100.19 49.77 87.63 59.42 80.86C64.38 77.38 67.81 75.95 70.45 76.1C72.12 74.19 74.02 72.16 76.17 70.01C95.05 51.13 124.03 42.45 129.04 47.14C133.3 51.12 124.9 80.99 106.02 99.87H106.01Z" fill="#FFF5C4"/>
</g>
<defs>
<clipPath id="clip0_907_6795">
<rect width="174.99" height="174.99" fill="white"/>
</clipPath>
</defs>
</svg>
