<svg width="440" height="429" viewBox="0 0 440 429" fill="none" xmlns="http://www.w3.org/2000/svg">
<g clip-path="url(#clip0_907_7117)">
<path d="M436.95 6.48995C407.14 -6.27005 359.25 3.15995 340.91 6.48995C322.57 9.81995 280.9 24.8299 257.56 60.3899C238.42 89.56 235.21 117.31 237.38 155.24C237.71 154.02 238.18 153.07 238.51 151.09C241.66 132.45 252.36 118 265.02 103.84C280.23 87.2 297.44 72.27 317.16 61.2999C330.12 54.13 343.72 48.11 358.16 44.7C358.62 44.6 359.07 44.88 359.18 45.34C359.28 45.7599 359.04 46.18 358.64 46.33C332.67 57.99 309.58 75.9799 290.81 97.25C283.24 105.72 277.59 115.68 271.12 124.92C266.73 131.34 262.09 137.89 257.67 144.3C252.67 151.63 248.67 158.97 243.23 166.09C243.23 166.09 243.26 166.11 243.28 166.13C243.3 166.14 243.3 166.15 243.28 166.13C243.27 166.13 243.26 166.11 243.23 166.09C242.7 166.95 242.19 167.35 241.35 167.31C227.55 167.24 215.12 166.18 201.42 165.49C188.28 164.81 175.29 162.43 162.09 163.24C142.1 164.51 122.35 169.85 104.5 179.09C101.5 180.67 98.53 182.35 95.65 184.16C92.75 185.97 89.94 187.87 87.25 190.05C86.88 190.35 86.35 190.29 86.05 189.93C85.78 189.59 85.8 189.11 86.09 188.81C100.27 172.86 119.39 161.84 139.49 154.95C151.45 150.96 164.11 148.85 176.64 147.44C181.91 146.98 187.75 146.66 193 147.09C205.4 148.17 218.03 148.69 229.16 154.17C212.94 138.71 181.43 118.54 130.43 123.82C51.11 132.02 12.21 200.4 0.0699807 272.35C-0.410019 275.17 1.48998 277.83 4.34998 277.87C7.64998 277.91 13.62 275.82 23.1 273.49C46.65 267.72 57.4 272.26 66.37 270.25C74.36 268.46 105.86 269.6 178.38 205.58C184.5 200.18 191.53 195.9 199.17 193.03C207.08 190.06 210.95 190.07 227.32 188.81C233.78 188.31 237.91 186.84 240.52 184.93C247.39 212.28 256.09 238.1 256.81 279.66C257.35 311.1 251.62 346.03 239.02 399.52C228.74 443.14 271.26 430.81 276.26 404.41C288.15 341.65 293.28 328.85 285.57 274.24C278.44 223.71 263.6 196.15 252.15 180.36C252.54 180.28 252.93 180.17 253.32 180.03C258.32 178.25 265.87 174.01 270.74 170.33C278.92 164.15 288.56 159.63 300.23 155.74C311.9 151.85 320.55 152.06 340.92 144.28C360.38 136.85 365.38 131.28 381.49 118.86C414.76 93.2 421.15 65.99 423 60.27C425.03 53.99 424.34 49.8199 427.92 39.6699C431.51 29.5199 444.29 9.60995 436.96 6.46995L436.95 6.48995Z" fill="#FEFAE0"/>
</g>
<defs>
<clipPath id="clip0_907_7117">
<rect width="439.18" height="428.31" fill="white"/>
</clipPath>
</defs>
</svg>
