<svg width="175" height="175" viewBox="0 0 175 175" fill="none" xmlns="http://www.w3.org/2000/svg">
<g clip-path="url(#clip0_907_6850)">
<path d="M155.52 73.53C179.93 59.73 170.15 40.41 143.24 46.79C160.37 24.6 146.17 10.6 125.77 23.71C130.02 2.45 116.43 -4.32 103.9 8.5C98.27 -5.45 84.42 -2.6 79.66 19.76C68.06 -6.65 47.67 -0.280003 54.35 29.38C33.61 9.63 17.34 21.46 31.33 43.71C6.59001 36.24 -1.31999 54.97 24.04 70.11C-3.87999 73.39 -8.12999 96.61 14.65 102.5C1.33514e-05 116.6 7.14001 133.8 28.12 129.69C19.98 148.23 31.85 161.25 48.23 151.73C49.13 166.85 60 173.36 70.03 166.05C76.3 180.38 91.13 177.32 96.83 158.14C109.48 179.65 127.7 170.89 124.08 146.35C143.82 161.14 157.17 147.91 147.21 128.53C168.02 132.11 173.85 115.76 158.14 102.26C181.9 98.18 180.11 78.83 155.53 73.54L155.52 73.53ZM126.85 92.06C126.01 93.05 124.05 101.3 124.4 102.58C125.05 105.03 129.43 105.51 128.58 109.66C128.4 110.52 125.77 114.82 125.15 115.2C122.29 116.96 119.16 113.82 117.08 114.29C115.47 114.65 108.78 120.06 108.44 121.58C107.94 123.76 110.7 126.71 108.31 129.4C107.57 130.23 102.32 132.34 101.11 132.07C98.04 131.37 98.21 127.09 96.19 126.43C94.36 125.83 85.87 126.04 84.56 127.38C82.22 129.79 84.86 134.5 77.04 133.19C69.38 131.9 73.33 127.44 71.51 123.62C70.91 122.37 64.14 118.37 62.62 118.37C59 118.37 55.26 126.23 50.56 116.14C48.06 110.78 54.66 111.62 53.6 106.07C53.26 104.28 50.81 98.76 49.35 97.8C47.35 96.5 43.45 99.16 41.71 96.42C40.73 94.87 40.47 89.55 41.04 87.85C41.98 85.09 46.23 86.08 47.98 85.04C49.8 83.97 51.23 75.75 50.5 73.66C49.45 70.65 41.27 70.87 48.07 62.08C51.36 57.83 55.23 64.39 60 61.58C60.67 61.18 65.42 56.19 65.59 55.57C66.45 52.42 62.15 49.78 64.82 46.89C65.55 46.1 71.11 43.65 72.34 43.77C75.75 44.1 75.7 49.16 77.84 49.87C79.96 50.57 89.74 50.17 91.45 48.68C93.87 46.56 91.47 38.16 102.3 43.15C107.47 45.53 102.07 49.62 104.69 53.18C105.51 54.29 111.76 57.94 113.18 57.94C115.5 57.94 117.19 55.23 118.86 54.85C121.6 54.23 127.75 60.87 124.84 64.82C123.99 65.98 121.64 66.11 121.66 69.09C121.66 69.75 124.63 77.2 125.09 77.77C127.54 80.81 133.19 76.89 134.05 83.24C135.41 93.24 129.3 89.18 126.84 92.07L126.85 92.06Z" fill="#FFF5C4"/>
<path d="M87.5 108.78C99.2526 108.78 108.78 99.2526 108.78 87.5C108.78 75.7474 99.2526 66.22 87.5 66.22C75.7474 66.22 66.22 75.7474 66.22 87.5C66.22 99.2526 75.7474 108.78 87.5 108.78Z" fill="#FFF5C4"/>
</g>
<defs>
<clipPath id="clip0_907_6850">
<rect width="174.99" height="174.99" fill="white"/>
</clipPath>
</defs>
</svg>
