<svg width="175" height="175" viewBox="0 0 175 175" fill="none" xmlns="http://www.w3.org/2000/svg">
<g clip-path="url(#clip0_1080_7175)">
<path d="M155.52 73.5301C179.93 59.7301 170.15 40.4101 143.24 46.7901C160.37 24.6001 146.17 10.6001 125.77 23.7101C130.02 2.45012 116.43 -4.31988 103.9 8.50012C98.2698 -5.44988 84.4198 -2.59988 79.6598 19.7601C68.0598 -6.64988 47.6698 -0.279881 54.3498 29.3801C33.6098 9.63012 17.3398 21.4601 31.3298 43.7101C6.58977 36.2401 -1.32023 54.9701 24.0398 70.1101C-3.88023 73.3901 -8.13023 96.6101 14.6498 102.5C-0.000230789 116.6 7.13977 133.8 28.1198 129.69C19.9798 148.23 31.8498 161.25 48.2298 151.73C49.1298 166.85 59.9998 173.36 70.0298 166.05C76.2998 180.38 91.1298 177.32 96.8298 158.14C109.48 179.65 127.7 170.89 124.08 146.35C143.82 161.14 157.17 147.91 147.21 128.53C168.02 132.11 173.85 115.76 158.14 102.26C181.9 98.1801 180.11 78.8301 155.53 73.5401L155.52 73.5301ZM130.81 115.81C127.13 124.39 117.83 131.69 108.16 131.33C101.84 131.1 83.9198 128.62 65.1498 109.86C46.3898 91.0901 43.9098 73.1801 43.6798 66.8501C43.3298 57.2101 50.7098 47.8401 59.2498 44.1801C60.2798 43.7401 61.3998 43.5701 62.5198 43.6901C63.6298 43.8101 64.6898 44.2201 65.5998 44.8801C72.6298 50.0001 77.4698 57.7501 81.6398 63.8401C82.5598 65.1801 82.9498 66.8101 82.7398 68.4101C82.5298 70.0201 81.7398 71.4901 80.5198 72.5601L71.9498 78.9201C71.5398 79.2201 71.2398 79.6601 71.1298 80.1601C71.0198 80.6601 71.0898 81.1801 71.3298 81.6301C73.2698 85.1601 76.7198 90.4101 80.6698 94.3601C84.6198 98.3101 90.1198 101.99 93.8998 104.15C94.3698 104.42 94.9298 104.49 95.4598 104.36C95.9898 104.23 96.4398 103.9 96.7298 103.44L102.31 94.9501C103.34 93.5901 104.85 92.6801 106.53 92.4001C108.21 92.1301 109.94 92.5201 111.34 93.4901C117.52 97.7701 124.73 102.53 130.01 109.29C130.72 110.2 131.17 111.29 131.32 112.44C131.47 113.59 131.3 114.75 130.84 115.81H130.81Z" fill="#FFF5C4"/>
</g>
<defs>
<clipPath id="clip0_1080_7175">
<rect width="174.99" height="174.99" fill="white"/>
</clipPath>
</defs>
</svg>
