<svg width="175" height="175" viewBox="0 0 175 175" fill="none" xmlns="http://www.w3.org/2000/svg">
<g clip-path="url(#clip0_907_6792)">
<path d="M155.52 73.53C179.93 59.73 170.15 40.41 143.24 46.79C160.37 24.6 146.17 10.6 125.77 23.71C130.02 2.45 116.43 -4.32 103.9 8.5C98.27 -5.45 84.42 -2.6 79.66 19.76C68.06 -6.65 47.67 -0.280003 54.35 29.38C33.61 9.63 17.34 21.46 31.33 43.71C6.59001 36.24 -1.31999 54.97 24.04 70.11C-3.87999 73.39 -8.12999 96.61 14.65 102.5C1.33514e-05 116.6 7.14001 133.8 28.12 129.69C19.98 148.23 31.85 161.25 48.23 151.73C49.13 166.85 60 173.36 70.03 166.05C76.3 180.38 91.13 177.32 96.83 158.14C109.48 179.65 127.7 170.89 124.08 146.35C143.82 161.14 157.17 147.91 147.21 128.53C168.02 132.11 173.85 115.76 158.14 102.26C181.9 98.18 180.11 78.83 155.53 73.54L155.52 73.53ZM129.39 118.67L118.9 129.16C117.93 130.13 116.47 130.22 115.62 129.38L75.42 89.18C66.81 93.15 56.94 92.12 50.58 85.76C44.22 79.4 43.21 69.71 47.06 61.16L65.46 79.56L79.45 65.57L61.09 47.21C69.61 43.44 79.28 44.53 85.55 50.79C91.76 57 92.87 66.55 89.23 75.01L129.61 115.39C130.46 116.24 130.36 117.71 129.39 118.67Z" fill="#FFF5C4"/>
</g>
<defs>
<clipPath id="clip0_907_6792">
<rect width="174.99" height="174.99" fill="white"/>
</clipPath>
</defs>
</svg>
