<svg width="175" height="175" viewBox="0 0 175 175" fill="none" xmlns="http://www.w3.org/2000/svg">
<g clip-path="url(#clip0_907_6821)">
<path d="M50.74 82.46C50.72 82.89 50.71 83.33 50.71 83.76C50.71 91.82 53.75 99.19 58.74 104.78C60.79 99.59 62.99 94.93 65.31 90.8C59.73 84.69 54.26 82.9 50.74 82.46Z" fill="#FFF5C4"/>
<path d="M110.58 69.69C109.34 67.22 107.8 64.94 105.99 62.88C99.38 64.46 77.32 72.39 63.59 109.2C65.43 110.56 67.43 111.72 69.55 112.66C81.96 81.9 101.4 72.49 110.59 69.69H110.58Z" fill="#FFF5C4"/>
<path d="M78.84 72.52C81.02 70.31 83.19 68.39 85.3 66.74C77.27 58.68 68.58 57.14 65.78 56.85C63.48 58.27 61.38 59.97 59.52 61.91C64.68 62.68 72.05 65.17 78.84 72.52Z" fill="#FFF5C4"/>
<path d="M100.71 58.11C95.52 54.38 89.17 52.17 82.31 52.17C79.87 52.17 77.5 52.46 75.22 52.98C79.77 54.73 85.24 57.8 90.36 63.18C94.32 60.69 97.88 59.1 100.71 58.1V58.11Z" fill="#FFF5C4"/>
<path d="M74.72 77.07C66.95 68.39 58.38 67.64 55.12 67.7C53.53 70.38 52.33 73.31 51.59 76.42C56.01 76.99 62.3 79.05 68.6 85.38C70.6 82.29 72.66 79.53 74.72 77.06V77.07Z" fill="#FFF5C4"/>
<path d="M113.89 84.3C113.89 84.12 113.9 83.94 113.9 83.76C113.9 80.86 113.5 78.06 112.77 75.39C105.15 77.59 87.13 85.72 75.36 114.58C77.6 115.08 79.92 115.36 82.3 115.36C83.07 115.36 83.84 115.32 84.6 115.27C93.64 91.23 108.72 85.56 113.88 84.3H113.89Z" fill="#FFF5C4"/>
<path d="M113.08 90.93C108.13 92.75 98.64 98.19 91.75 113.92C102.34 110.6 110.54 101.84 113.08 90.93Z" fill="#FFF5C4"/>
<path d="M155.52 73.53C179.93 59.73 170.15 40.41 143.24 46.79C160.37 24.6 146.17 10.6 125.77 23.71C130.02 2.45 116.43 -4.32 103.9 8.5C98.27 -5.45 84.42 -2.6 79.66 19.76C68.06 -6.65 47.67 -0.280003 54.35 29.38C33.61 9.63 17.34 21.46 31.33 43.71C6.59001 36.24 -1.31999 54.97 24.04 70.11C-3.87999 73.39 -8.12999 96.61 14.65 102.5C1.33514e-05 116.6 7.14001 133.8 28.12 129.69C19.98 148.23 31.85 161.25 48.23 151.73C49.13 166.85 60 173.36 70.03 166.05C76.3 180.38 91.13 177.32 96.83 158.14C109.48 179.65 127.7 170.89 124.08 146.35C143.82 161.14 157.17 147.91 147.21 128.53C168.02 132.11 173.85 115.76 158.14 102.26C181.9 98.18 180.11 78.83 155.53 73.54L155.52 73.53ZM133.93 121.48H81.13C81 121.48 80.87 121.46 80.74 121.44C60.67 120.62 44.59 104.04 44.59 83.77C44.59 63.5 61.51 46.06 82.3 46.06C103.09 46.06 120.01 62.98 120.01 83.77C120.01 96.99 113.17 108.63 102.84 115.37H133.92C135.61 115.37 136.98 116.74 136.98 118.43C136.98 120.12 135.61 121.49 133.92 121.49L133.93 121.48Z" fill="#FFF5C4"/>
</g>
<defs>
<clipPath id="clip0_907_6821">
<rect width="174.99" height="174.99" fill="white"/>
</clipPath>
</defs>
</svg>
