<svg width="1020" height="196" viewBox="0 0 1020 196" fill="none" xmlns="http://www.w3.org/2000/svg">
<g clip-path="url(#clip0_232_1434)">
<path d="M268.701 65.976C263.424 65.976 258.472 67.1046 253.843 69.3148C249.214 71.572 246.946 74.9578 246.946 79.5662L247.64 82.4347L248.335 85.7265L248.705 89.3944C248.936 92.6862 249.075 95.2255 249.075 97.0125C249.075 104.16 246.946 114.929 242.734 129.225C241.345 134.068 238.707 138.018 234.911 141.122C234.309 141.122 233.43 139.288 232.18 135.667C223.895 111.731 219.775 96.4952 219.775 90.0058C219.775 83.5163 218.664 78.5787 216.535 75.2399C213.295 70.2082 208.481 67.7159 202.139 67.7159C195.798 67.7159 191.4 68.5154 189.04 70.0202C184.457 73.0297 182.143 77.9674 182.143 84.88L182.421 88.4539L182.883 92.2159C182.883 100.774 181.865 109.709 179.782 119.067C177.746 128.425 175.153 135.197 172.098 139.288L170.756 140.464C168.118 140.464 165.155 135.432 161.961 125.369C158.721 115.305 157.101 106.888 157.101 100.069C157.101 97.2476 157.147 94.5672 157.286 91.9338L157.471 88.0777C157.471 79.4251 155.481 73.7351 151.547 70.9606C150.575 70.3023 149.464 69.691 148.26 69.1267C147.844 72.9827 145.205 76.1334 141.595 77.5912C140.808 77.9203 140.021 78.1555 139.188 78.3436C138.817 78.4376 138.493 78.5317 138.123 78.6257C138.077 78.6257 138.077 78.6257 138.031 78.6257C138.031 78.7198 138.031 78.8138 138.031 78.8608C137.892 79.9894 138.031 81.2121 138.077 82.3407C138.262 86.761 137.058 91.0403 132.893 93.1094C131.365 93.8618 129.791 94.3321 128.171 94.8023C127.384 95.0374 126.597 95.2726 125.857 95.5547C125.811 95.5547 125.811 95.5547 125.764 95.5547C125.579 95.6488 125.44 95.7428 125.255 95.7898C125.162 95.8369 125.07 95.9309 124.931 95.9779C129.282 97.6708 133.078 100.21 136.734 103.361C140.854 106.888 144.326 111.261 147.242 115.917C154.694 127.908 154.509 135.996 149.047 148.787C148.399 150.292 144.603 155.7 143.354 155.653C144.603 159.697 145.761 163.224 146.733 166.233C146.825 166.28 146.964 166.28 147.057 166.374C147.566 166.75 148.121 167.08 148.677 167.409C148.769 167.409 148.862 167.503 148.954 167.55H149.047C149.278 167.597 149.51 167.738 149.695 167.785C150.297 167.973 150.899 168.114 151.5 168.255C151.778 168.302 152.056 168.349 152.38 168.396C152.472 168.396 152.565 168.396 152.657 168.443C155.064 168.679 155.018 168.726 157.425 168.726C159.184 168.726 160.619 170.748 160.712 172.44C160.804 174.133 159.323 175.121 157.703 175.544C154.787 176.297 152.796 176.391 149.417 175.591C150.297 178.178 150.899 178.46 151.176 178.93C154.231 184.385 158.582 187.065 164.229 187.065C166.174 187.065 168.257 186.219 170.478 184.479C172.7 182.739 174.598 180.388 176.218 177.472C177.792 174.51 181.449 163.788 187.142 145.307L191.539 131.059C192.234 128.848 193.206 125.651 194.455 121.371L195.844 116.622L197.325 113.941C197.834 113.941 201.121 123.017 207.138 141.216C213.156 159.368 217.09 170.56 218.942 174.745C220.793 178.93 222.645 181.893 224.45 183.679C226.255 185.466 228.431 186.36 230.977 186.36C233.522 186.36 235.698 185.843 237.596 184.855C241.669 182.645 244.539 179.588 246.344 175.732L247.825 171.077C249.816 164.822 255 147.329 263.332 118.597L267.451 104.113C268.747 99.928 271.34 93.9559 275.274 86.1967C279.209 78.4376 281.199 73.7821 281.199 72.2303C281.199 67.9511 277.033 65.7879 268.701 65.7879V65.976Z" fill="#FEFAE0"/>
<path d="M316.609 138.583C316.609 146.953 320.497 154.195 328.227 160.308C334.013 164.917 341.327 167.221 350.214 167.221C354.241 167.221 360.259 166.045 368.174 163.694C376.135 161.343 380.718 160.167 381.921 160.167C385.624 160.167 387.476 162.236 387.476 166.327C387.476 171.171 382.569 176.108 372.71 181.046C362.897 186.031 352.667 188.523 342.16 188.523H336.096C329.431 188.523 322.627 187.159 315.73 184.385C302.075 179.024 292.354 169.666 286.568 156.311C282.634 147.094 280.643 138.394 280.643 130.071V124.287C280.643 115.822 282.078 107.687 284.948 99.834C290.364 85.0211 299.992 74.3465 313.739 67.857C321.979 64.001 330.588 62.0729 339.661 62.0729H342.484C355.908 62.0729 367.202 66.3052 376.413 74.7227C381.273 79.237 384.976 84.6919 387.569 91.0403C390.161 97.3887 391.457 103.878 391.457 110.415C391.457 116.951 388.309 121.324 381.968 123.393C373.08 126.309 356.602 127.767 332.578 127.767C326.144 127.767 321.886 128.566 319.757 130.212C317.628 131.858 316.563 134.632 316.563 138.535L316.609 138.583ZM340.679 78.9079H337.115C331.93 78.9079 326.978 81.6353 322.256 87.1372C317.535 92.6392 315.174 99.1756 315.174 106.747V108.769C315.174 111.872 316.841 113.424 320.22 113.424L321.469 113.659H330.218L330.82 113.518L351.464 112.249C352.714 112.013 353.501 111.872 353.917 111.872C358.129 111.872 360.212 109.662 360.212 105.242V101.104C360.212 95.5077 358.222 90.382 354.288 85.8205C350.353 81.2121 345.817 78.9079 340.725 78.9079H340.679Z" fill="#FEFAE0"/>
<path d="M414.323 184.902C408.306 184.902 404.325 183.821 402.427 181.704C400.483 179.588 399.511 177.002 399.511 173.992C399.511 170.983 400.298 164.493 401.872 154.477C403.445 144.508 404.232 137.595 404.232 133.833L404.371 130.823V118.55L404.51 112.39V90.6641C404.51 58.311 404.093 39.7831 403.26 35.0806C402.427 30.3781 400.437 26.7572 397.196 24.1708C391.688 19.6564 388.911 16.6468 388.911 15.142C388.911 11.6152 392.151 8.98177 398.678 7.24185C408.213 4.65547 415.897 3.33878 421.775 3.33878H424.599C430.709 3.33878 434.366 5.8311 435.569 10.7217C436.402 14.0605 436.819 23.7946 436.819 39.9242C436.819 56.0537 437.004 65.0355 437.421 66.9165C438.069 69.8321 440.198 71.2898 443.855 71.2898L447.049 70.1612C456.862 66.6344 465.193 64.8944 472.137 64.8944C487.041 64.8944 498.845 70.5374 507.593 81.7764C516.341 93.0154 520.693 106.653 520.693 122.594V125.745C520.693 134.256 518.98 142.627 515.508 150.809C508.843 166.798 498.289 177.707 483.894 183.538C476.071 186.736 468.434 188.288 460.935 188.288H457.972C455.519 188.288 451.724 187.724 446.632 186.642C441.54 185.56 436.356 184.996 431.079 184.996L428.348 184.761C425.571 184.526 423.719 184.385 422.794 184.385L419.97 184.526C417.517 184.714 415.665 184.761 414.416 184.761L414.323 184.902ZM436.31 149.539C436.31 156.64 437.976 162.189 441.309 166.139C444.642 170.089 449.224 172.111 455.056 172.111H460.75C467.23 172.111 472.923 168.208 477.737 160.402C482.551 152.596 484.958 142.956 484.958 131.482V123.064C484.958 110.368 482.459 100.21 477.506 92.5921C472.507 84.9741 466.397 81.1651 459.176 81.1651H457.093C448.946 81.1651 443.299 83.9866 440.198 89.6296C437.097 95.2726 435.523 107.076 435.523 125.086V127.579L435.662 128.848V135.009L435.801 136.278V138.771L436.31 147.188C436.402 148.035 436.449 148.834 436.449 149.586L436.31 149.539Z" fill="#FEFAE0"/>
<path d="M521.063 11.8973C521.063 8.88771 523.192 6.72457 527.497 5.36084C539.115 1.78695 550.224 -0.0470276 560.824 -0.0470276C567.073 -0.0470276 570.545 2.72744 571.193 8.22936C571.378 9.54606 571.424 31.977 571.424 75.475C571.424 118.973 572.165 144.649 573.6 152.549C575.034 160.449 576.979 165.81 579.478 168.678C585.727 175.873 588.875 179.635 588.875 179.964C588.875 183.962 577.858 185.984 555.779 185.984H553.325L550.733 185.843C537.541 185.843 529.672 185.513 527.08 184.855C524.488 184.197 523.192 182.645 523.192 180.153C523.192 177.66 525.229 173.945 529.256 168.867C533.283 163.788 535.829 158.474 536.893 152.831C537.958 147.188 538.513 126.309 538.513 90.1939C538.513 54.0787 537.958 33.999 536.801 30.0489C535.643 26.0988 532.727 22.572 528.099 19.5154C523.47 16.4587 521.109 13.9194 521.109 11.9443L521.063 11.8973Z" fill="#FEFAE0"/>
<path d="M647.938 61.6967H654.094C661.408 61.6967 668.953 63.4366 676.683 66.9635C691.402 73.6411 701.539 84.5038 707.048 99.5988C709.825 107.358 711.26 115.305 711.26 123.44V125.698C711.26 134.397 709.547 142.909 706.075 151.279C702.604 159.65 697.975 166.562 692.143 172.111C679.969 183.303 665.944 188.946 650.16 188.946C648.91 188.946 647.706 188.946 646.457 188.805C638.541 188.805 630.811 187.206 623.174 183.962C615.583 180.764 609.334 176.438 604.474 171.124C594.013 159.415 588.782 144.743 588.782 127.108V124.992L588.921 122.876C589.013 115.117 590.448 107.405 593.226 99.7869C598.641 85.2562 608.639 74.4875 623.128 67.5278C631.274 63.6718 639.56 61.7437 647.938 61.7437V61.6967ZM647.845 78.3906H645.485C638.403 78.3906 632.617 82.4347 628.127 90.57C623.637 98.6583 621.415 108.392 621.415 119.678V126.685C621.415 139.382 624.007 150.151 629.191 158.897C634.376 167.644 640.578 172.064 647.845 172.064H650.206C656.547 172.064 662.056 168.773 666.823 162.236C671.545 155.653 673.905 146.906 673.905 135.949L674.137 133.316L674.276 128.049V126.685L674.137 125.321V122.688C673.952 120.854 673.905 119.49 673.905 118.691C673.905 107.593 671.313 98.094 666.129 90.2409C660.945 82.3877 654.835 78.4376 647.845 78.4376V78.3906Z" fill="#FEFAE0"/>
<path d="M744.587 61.6967H750.743C758.057 61.6967 765.602 63.4366 773.332 66.9635C788.051 73.6411 798.188 84.5038 803.697 99.5988C806.474 107.358 807.909 115.305 807.909 123.44V125.698C807.909 134.397 806.196 142.909 802.725 151.279C799.253 159.65 794.624 166.562 788.792 172.111C776.618 183.303 762.593 188.946 746.809 188.946C745.559 188.946 744.356 188.946 743.106 188.805C735.191 188.805 727.46 187.206 719.823 183.962C712.232 180.764 705.983 176.438 701.123 171.124C690.662 159.415 685.431 144.743 685.431 127.108V124.992L685.57 122.876C685.663 115.117 687.097 107.405 689.875 99.7869C695.29 85.2562 705.289 74.4875 719.777 67.5278C727.923 63.6718 736.209 61.7437 744.587 61.7437V61.6967ZM744.494 78.3906H742.134C735.052 78.3906 729.266 82.4347 724.776 90.57C720.286 98.6583 718.064 108.392 718.064 119.678V126.685C718.064 139.382 720.656 150.151 725.84 158.897C731.025 167.644 737.227 172.064 744.494 172.064H746.855C753.197 172.064 758.705 168.773 763.472 162.236C768.194 155.653 770.555 146.906 770.555 135.949L770.786 133.316L770.925 128.049V126.685L770.786 125.321V122.688C770.601 120.854 770.555 119.49 770.555 118.691C770.555 107.593 767.962 98.094 762.778 90.2409C757.594 82.3877 751.484 78.4376 744.494 78.4376V78.3906Z" fill="#FEFAE0"/>
<path d="M1020 174.369C1020 182.128 1009.08 186.031 987.274 186.031C980.1 186.031 975.193 185.184 972.462 183.444C969.731 181.751 968.389 178.742 968.389 174.463L970.009 166.421C971.583 157.957 972.37 145.119 972.37 127.861C972.37 110.603 970.935 99.1286 968.065 93.4856C965.195 87.8426 959.502 85.0211 951.031 85.0211C948.161 85.0211 945.014 86.1967 941.635 88.4539C938.256 90.7582 935.71 93.8618 934.043 97.8119C932.377 101.762 931.498 111.872 931.498 128.237C931.498 144.602 931.96 154.289 932.932 157.393C933.905 160.496 935.987 164.211 939.274 168.631C942.56 173.005 944.227 176.438 944.227 178.93C944.227 181.422 942.653 183.162 939.459 184.244C936.265 185.325 927.933 185.89 914.464 185.89C900.994 185.89 893.171 185.184 891.088 183.774C889.005 182.363 887.941 179.776 887.941 176.014C887.941 174.745 889.329 172.299 892.06 168.678C894.791 165.058 896.596 161.719 897.383 158.709C898.17 155.7 898.541 146.059 898.541 129.742C898.541 113.424 897.245 102.091 894.606 95.7428C891.968 89.3944 887.154 86.1967 880.164 86.1967C873.175 86.1967 867.25 89.4415 862.39 95.9779C859.011 100.492 857.344 106.747 857.344 114.788C857.344 122.829 857.715 132.187 858.455 142.862C859.196 153.536 860.029 161.107 860.909 165.434C861.788 169.76 862.251 173.475 862.251 176.485C862.251 179.494 860.908 181.798 858.316 183.444C855.678 185.09 849.429 185.89 839.57 185.89C820.453 185.89 810.918 182.363 810.918 175.356C810.918 173.099 812.769 169.854 816.472 165.622C820.175 161.39 822.258 158.333 822.767 156.452C823.276 154.571 823.508 145.401 823.508 128.895C823.508 112.39 822.443 101.057 820.314 94.8023C819.759 93.2034 818.092 90.2879 815.454 85.9616C812.769 81.6353 811.427 78.3906 811.427 76.1334C811.427 72.9357 814.065 70.5844 819.342 68.9856C828.738 66.1641 837.07 64.7063 844.43 64.7063C846.837 64.7063 849.707 66.4933 853.086 70.0202C856.465 73.547 858.594 75.334 859.52 75.334L863.454 73.0768C868.315 70.2553 871.416 68.4683 872.851 67.81C880.442 64.2831 887.57 62.5432 894.328 62.5432C901.086 62.5432 906.086 63.2956 909.372 64.8004C912.658 66.3052 916.223 68.4683 920.111 71.3368C923.999 74.2054 926.869 75.6161 928.813 75.6161C930.757 75.6161 936.08 73.547 944.782 69.4559C953.484 65.3647 961.677 63.2956 969.222 63.2956C982.877 63.2956 992.922 69.4558 999.356 81.7294C1003.61 89.7706 1005.79 110.932 1005.79 145.307C1005.79 154.007 1006.25 159.321 1007.22 161.296C1008.2 163.271 1010.56 165.622 1014.4 168.302C1018.24 171.03 1020.14 173.005 1020.14 174.274L1020 174.369Z" fill="#FEFAE0"/>
<path d="M142.011 168.161C143.168 168.584 144.372 168.773 145.575 169.102C147.658 169.619 149.649 170.465 151.685 171.312C152.102 171.5 152.519 171.688 152.657 172.111C152.796 172.488 152.657 172.911 152.38 173.193C152.148 173.475 151.778 173.663 151.408 173.757C148.677 174.745 145.622 174.039 142.891 173.005C140.993 172.299 139.095 171.312 138.03 169.619C137.568 168.867 137.29 168.02 137.521 167.174C137.753 166.233 138.586 165.481 139.327 166.186C140.206 167.033 140.808 167.738 142.011 168.208V168.161Z" fill="black"/>
<path d="M136.873 153.113C137.382 154.618 137.66 156.217 138.123 157.769C138.91 160.496 140.299 163.177 140.206 166.045C140.206 166.421 140.16 166.844 139.882 167.127C139.651 167.362 139.28 167.456 138.956 167.409C138.03 167.315 137.382 166.468 136.873 165.669C134.235 161.484 132.383 156.734 131.411 151.844C131.18 150.715 130.995 149.492 131.411 148.411C131.92 147.141 133.772 146.201 134.42 147.705C135.207 149.492 136.179 151.279 136.827 153.16L136.873 153.113Z" fill="black"/>
<path d="M113.776 185.372C115.211 186.595 116.969 187.253 118.636 187.959C120.21 188.664 121.737 189.464 123.265 190.263C125.024 191.203 126.921 192.426 127.384 194.401C127.431 194.683 127.477 195.012 127.384 195.295C127.107 195.953 126.227 196.047 125.533 195.953C121.459 195.483 117.942 192.849 114.84 190.122C113.081 188.57 111.369 186.971 109.749 185.325C109.332 184.902 108.869 184.432 108.684 183.868C108.453 183.303 108.499 182.598 108.962 182.175C110.906 180.435 112.85 184.479 113.868 185.325L113.776 185.372Z" fill="black"/>
<path d="M100.584 166.609C102.574 169.478 104.611 172.44 105.444 175.826C105.907 177.801 105.999 179.917 106.971 181.751C107.943 183.538 110.258 184.855 111.97 183.774C112.294 183.585 112.572 183.256 112.711 182.927C112.804 182.645 112.85 182.316 112.804 181.987C112.711 176.673 110.211 171.641 106.832 167.597C105.027 165.434 102.991 163.459 100.722 161.813C99.8893 161.202 98.9172 160.59 97.8989 160.59C97.2971 160.59 96.3714 160.919 96.0937 161.578C95.5845 162.753 96.0937 162.236 96.6028 162.659C98.1303 163.835 99.3801 164.916 100.584 166.656V166.609Z" fill="black"/>
<path d="M89.7059 175.826C90.1225 176.391 90.5391 177.049 90.354 177.707C90.2151 178.319 89.6133 178.695 89.0116 178.789C88.4099 178.883 87.8081 178.695 87.2064 178.507C86.2343 178.178 85.3086 177.801 84.3828 177.425C83.5959 177.096 82.7627 176.673 82.1147 176.108C80.6798 174.886 77.0693 166.798 80.3558 166.609C81.837 166.562 84.2439 169.572 85.216 170.559C86.8361 172.205 88.3636 173.945 89.7522 175.826H89.7059Z" fill="black"/>
<path d="M80.4021 165.951C80.4946 166.515 80.5409 167.127 80.2169 167.597C79.8466 168.161 78.9671 168.255 78.3654 167.973C77.7636 167.691 77.3008 167.08 76.9305 166.468C74.1069 161.813 74.5698 155.841 72.9497 150.621C72.672 149.727 72.348 148.834 72.3942 147.893C72.4868 146.671 73.2737 145.589 74.3846 145.166C78.8283 143.473 78.3191 150.198 78.6894 152.784C79.2449 157.157 79.8003 161.531 80.3558 165.951H80.4021Z" fill="black"/>
<path d="M58.9708 156.029C59.0171 156.452 58.9708 156.875 58.9245 157.298C58.4616 160.825 57.3507 164.258 55.6843 167.409C55.4992 167.785 55.2677 168.161 54.9437 168.396C54.6197 168.631 54.1105 168.726 53.7865 168.49C53.4162 168.208 53.3699 167.644 53.3699 167.174C53.4625 165.246 53.7402 163.365 54.2957 161.531C54.8049 159.65 55.5918 157.816 55.5455 155.841C55.5455 155.323 55.4992 154.806 55.7769 154.383C56.9804 152.408 58.7393 154.618 58.9245 156.029H58.9708Z" fill="black"/>
<path d="M55.4066 146.53C56.5638 147.94 57.721 149.351 58.369 151.044C58.8319 152.22 58.9245 153.819 57.9524 154.571C57.2118 155.135 56.1009 154.947 55.314 154.383C54.5271 153.819 54.018 152.972 53.5551 152.173C51.9813 149.539 50.2223 147 48.4171 144.555C48.2783 144.367 48.0931 144.084 48.1394 143.849C48.1857 143.614 48.4171 143.473 48.6023 143.332C49.9909 142.486 50.8704 141.545 52.1202 142.533C53.4162 143.52 54.3883 145.307 55.3603 146.53H55.4066Z" fill="black"/>
<path d="M42.7237 135.291C43.1866 138.112 44.5752 140.746 46.6582 142.674C47.2136 143.191 47.8154 143.661 48.5097 143.849C49.204 144.037 50.0835 143.896 50.5464 143.332C51.287 142.486 50.9629 141.169 50.6852 140.087C50.2223 138.159 50.0835 136.184 50.5001 134.256C50.6389 133.457 50.9167 132.61 50.7778 131.811C50.6389 131.059 50.1761 130.4 49.7132 129.789C48.556 128.378 45.8713 126.121 44.0198 127.673C42.3071 129.083 42.3997 133.363 42.7237 135.338V135.291Z" fill="black"/>
<path d="M22.2182 87.7956C20.8296 86.8081 19.2558 85.7265 17.5894 85.9616C16.9877 86.0557 16.3396 86.4319 16.3859 87.0432C16.4322 87.5605 16.9877 87.8896 17.4968 88.0777C20.6444 89.3474 23.6531 91.0403 26.3841 93.0154C29.1614 95.0374 31.4758 97.6708 34.0216 100.069C35.4102 98.9405 34.0216 97.906 33.1421 96.9655C32.0312 95.7898 30.874 94.7083 29.6705 93.6267C27.3099 91.5106 24.764 89.6296 22.1719 87.7956H22.2182Z" fill="black"/>
<path d="M10.0445 99.5988C8.97984 99.5518 7.91522 99.5518 6.8506 99.7399C5.92484 99.928 4.99908 100.257 4.21219 100.774C3.70302 101.104 3.14757 101.668 3.37901 102.279C3.56416 102.702 4.11961 102.844 4.58249 102.844C7.35977 103.079 10.137 102.655 12.9143 102.797C15.275 102.891 17.5894 103.408 19.8112 104.254C20.8758 104.678 21.9405 105.195 22.9588 105.759C23.9771 106.37 24.9029 107.405 25.9212 107.828C26.4304 108.016 26.5692 108.345 26.9858 107.687C27.2636 107.264 27.171 106.841 26.9395 106.417C26.4767 105.571 25.0417 104.866 24.2548 104.348C22.2182 103.032 19.9964 101.95 17.7283 101.151C15.2287 100.304 12.6829 99.7869 10.0445 99.5988Z" fill="black"/>
<path d="M32.2626 103.502C30.3648 109.709 30.8277 117.045 33.281 123.158C36.0583 130.024 42.6311 134.491 49.204 137.783C54.5734 140.464 60.6371 142.721 66.5157 141.357C64.8493 145.072 68.0432 149.069 71.1445 151.702C77.6248 157.251 84.8457 162.189 93.0387 164.399C99.7504 166.186 106.786 166.045 113.683 165.387C117.803 165.011 121.922 164.399 125.764 162.988C133.402 160.214 139.789 154.148 143.122 146.624C146.455 139.1 146.547 130.212 143.492 122.594C139.512 112.719 130.532 105.477 120.534 102.138C110.582 98.7994 99.7041 99.0345 89.3819 101.01C88.595 101.151 87.7618 101.339 87.0212 101.01C86.2806 100.727 85.7715 100.022 85.2623 99.4107C74.6161 85.7265 59.2022 86.4789 44.2512 90.8992C40.6408 91.9808 37.4932 94.191 35.2714 97.2946C34.2067 98.7524 33.6513 101.621 32.5404 102.75C30.9203 104.348 30.0408 103.408 27.7264 104.066C26.523 104.442 25.6898 105.477 24.9955 106.512C22.2182 110.838 21.5239 116.481 23.1439 121.371C24.6251 125.933 28.3282 129.93 33.0033 130.635C36.7526 131.247 40.5019 129.695 43.9272 128.049" fill="black"/>
<path d="M106.277 142.674C115.349 130.917 118.312 130.917 132.985 125.227C138.401 123.111 140.9 119.773 142.428 120.525C143.678 121.136 144.465 122.359 145.066 123.629C148.908 131.811 146.871 140.84 142.798 148.928C141.132 152.22 137.845 156.217 135.114 158.709C129.976 163.412 122.57 164.493 115.673 165.34C110.674 165.951 97.7138 167.268 94.5662 161.954C91.6037 156.922 97.5286 154.101 106.323 142.674H106.277Z" fill="white"/>
<path d="M94.7976 131.999C104.703 120.478 118.914 110.038 133.355 108.816C126.968 97.8589 110.952 96.9655 100.074 101.668C91.7889 105.242 83.7811 114.788 79.6615 123.441C76.4213 130.165 75.7733 134.162 75.0327 141.78C74.4309 148.317 76.9768 150.621 82.485 154.43C84.7068 143.379 87.4841 140.511 94.7976 131.952V131.999Z" fill="#FFB300"/>
<path d="M43.094 96.072C43.8346 94.8023 45.0844 93.1564 46.2879 92.31C47.7691 91.2284 50.5927 89.1123 52.3979 88.642C61.9795 86.2908 67.4415 87.1843 77.0693 91.2754C67.6729 91.6516 61.7018 92.263 55.5455 99.1286C50.7778 104.442 48.0931 112.625 48.5097 119.679C48.9263 126.732 50.0372 130.729 49.204 137.736C49.0189 139.288 42.7237 135.667 42.0294 134.256C40.5482 131.294 40.039 126.497 39.4373 123.299C37.5395 113.236 37.9098 104.866 43.094 96.025V96.072Z" fill="#FFB300"/>
<g opacity="0.5">
<path d="M83.5496 102.467C84.1514 101.762 85.0308 100.68 86.0029 99.3167C91.2797 91.9808 92.5758 86.1967 94.9827 80.2246C97.5286 73.9232 100.26 69.9731 105.536 62.3551C112.294 52.6209 117.247 48.1065 118.543 46.9779C123.728 42.4165 127.523 40.3944 130.856 39.2188C134.189 38.0432 137.429 36.9616 141.178 38.1842C142.15 38.4664 147.288 40.3004 148.862 45.4261C149.649 48.0595 149.14 50.3637 148.816 51.4923C149.047 52.762 148.862 53.7025 148.769 54.3138C148.168 56.9002 146.131 58.405 144.927 59.2984C144.094 59.9098 143.354 60.333 142.844 60.5681C142.891 61.3675 142.937 62.5432 142.844 63.9539C142.752 66.07 142.659 67.3397 142.104 68.6564C141.317 70.4434 140.067 71.3839 138.725 72.3714C137.614 73.2178 135.67 74.4405 132.846 75.0988C133.124 76.1804 133.448 77.8263 133.402 79.8484C133.402 81.4472 133.355 82.905 132.661 84.4098C131.226 87.4664 127.94 88.7361 126.736 89.2063C124.422 90.0998 123.311 89.7706 120.904 91.1814C120.071 91.6986 119.33 92.1219 118.636 92.9213C117.34 94.4261 117.479 95.5077 116.368 97.1535C115.488 98.4232 114.516 99.1286 113.683 99.7399C111.23 101.433 108.777 101.715 106.323 101.997C102.574 102.467 98.8246 103.126 95.0753 103.643C92.7609 103.972 89.3356 104.489 85.1697 105.336C84.6605 104.395 84.1514 103.408 83.6422 102.467H83.5496Z" fill="white"/>
<path d="M83.9199 107.922L82.3924 105.101L77.2545 106.417L81.837 100.963C82.3924 100.304 83.2256 99.2697 84.1514 97.953C87.9933 92.5921 89.6596 88.0307 91.2334 83.6104C91.7426 82.1996 92.2518 80.7418 92.8535 79.3311C95.4919 72.7946 98.3618 68.6094 103.639 60.9914C108.175 54.4549 112.896 48.8119 116.969 45.191C121.598 41.0998 125.625 38.5605 130.023 37.0086C133.402 35.833 137.244 34.4693 141.78 35.9271C143.446 36.4443 149.14 38.7015 150.899 44.7207C151.685 47.4011 151.408 49.8935 150.991 51.5864C151.13 52.6679 151.037 53.7025 150.806 54.7841C149.973 58.1699 147.473 60.0979 146.085 61.0854C145.714 61.3676 145.344 61.6027 144.974 61.8378C144.974 62.4962 144.974 63.2015 144.974 64.048C144.881 66.2111 144.789 67.81 144.048 69.5499C143.03 71.8541 141.41 73.0768 139.975 74.2054C138.586 75.2399 137.058 76.0864 135.392 76.6977C135.531 77.7793 135.624 78.8138 135.577 79.8954C135.577 81.5413 135.531 83.4223 134.605 85.3973C132.8 89.2534 128.773 90.8522 127.477 91.3224C126.412 91.7457 125.579 91.9338 124.792 92.0748C123.82 92.31 123.079 92.451 121.922 93.1094C121.135 93.5796 120.673 93.8618 120.21 94.3791C119.747 94.8963 119.608 95.3196 119.33 95.9779C119.052 96.6363 118.728 97.4357 118.127 98.3762C117.016 100.022 115.766 100.869 114.84 101.527C111.97 103.502 109.147 103.878 106.647 104.16C104.333 104.442 102.204 104.772 100.121 105.101C98.5006 105.336 96.8805 105.618 95.2142 105.853C92.9461 106.182 89.5671 106.7 85.4937 107.546L83.8737 107.875L83.9199 107.922ZM86.2806 102.75C89.7522 102.138 92.6221 101.668 94.6587 101.386C96.2788 101.151 97.8526 100.916 99.4727 100.68C101.648 100.351 103.777 100.022 105.953 99.7399C108.453 99.4578 110.397 99.2226 112.341 97.8589C113.128 97.2946 113.868 96.8244 114.47 95.8839C114.84 95.3666 115.025 94.8963 115.211 94.332C115.535 93.5326 115.905 92.4981 116.877 91.4165C117.849 90.2879 118.821 89.7236 119.7 89.2063C121.459 88.1718 122.755 87.8896 123.866 87.6545C124.468 87.5134 125.07 87.3724 125.857 87.0902C126.875 86.714 129.514 85.6795 130.532 83.4693C130.995 82.4347 131.041 81.4472 131.087 79.8484C131.087 78.4846 130.948 77.0739 130.578 75.7102L129.976 73.4059L132.244 72.8887C134.096 72.4654 135.809 71.666 137.244 70.5844C138.447 69.691 139.373 68.9856 139.882 67.7629C140.252 66.8225 140.345 65.929 140.437 63.9069C140.53 62.5902 140.437 61.5086 140.437 60.7562L140.345 59.2044L141.734 58.5461C142.15 58.358 142.752 57.9818 143.446 57.5115C144.557 56.7121 146.038 55.5835 146.455 53.7965C146.594 53.1852 146.594 52.5739 146.455 51.9155L146.362 51.3512L146.501 50.834C146.825 49.7054 147.103 48.0125 146.547 46.1315C145.39 42.1814 141.178 40.6766 140.391 40.3944C137.244 39.3599 134.42 40.3944 131.458 41.429C128.865 42.3225 125.209 43.9683 119.886 48.7178C116.09 52.1036 111.6 57.4175 107.249 63.7188C102.019 71.2898 99.3801 75.0988 96.9268 81.1651C96.3714 82.5288 95.8622 83.8925 95.3993 85.3033C93.6867 90.0057 91.9277 94.8963 87.7156 100.774C87.1601 101.527 86.6509 102.232 86.1881 102.797L86.2806 102.75Z" fill="#2B2B2B"/>
</g>
<g opacity="0.5">
<path d="M70.4039 117.892C68.9227 116.951 66.1917 118.973 64.8493 119.914C54.4346 127.25 55.962 121.983 29.4854 137.125C18.7466 143.285 15.7842 145.683 13.3772 148.035C7.9615 153.254 5.27681 158.004 3.84188 162.377C2.77726 165.575 1.06461 170.701 3.56415 174.698C4.95279 176.908 7.26719 178.225 8.14666 178.742C9.16499 179.306 11.2017 180.482 14.0715 180.67C15.275 180.764 17.5431 180.858 20.0426 179.541C22.7736 178.084 24.116 175.779 24.5789 174.792C25.3195 174.933 26.4304 175.074 27.7264 175.074C28.3745 175.074 31.6146 175.074 34.0216 173.898C38.6967 171.688 39.9002 165.434 40.0853 164.634C40.6408 165.105 41.4277 165.716 42.5386 166.139C43.0477 166.327 45.4547 167.315 47.8617 166.421C49.4355 165.81 50.2686 164.634 51.935 162.236C53.8791 159.415 54.9437 157.863 55.2214 155.841C55.2677 155.37 55.4066 154.289 56.1935 153.395C56.6101 152.925 57.0267 152.69 57.7673 152.314C59.7577 151.326 60.6371 150.95 61.1 150.668C62.6275 149.869 63.4144 148.599 64.3402 147.047C67.21 142.298 68.7375 134.585 69.3855 131.059C71.3759 120.525 71.5611 118.597 70.4964 117.892H70.4039Z" fill="white"/>
<path d="M15.1817 182.927C14.6726 182.927 14.2097 182.927 13.8857 182.88C10.4141 182.645 8.0071 181.281 6.98876 180.67C5.97043 180.106 3.28573 178.554 1.61937 175.873C-1.43563 170.936 0.508457 165.105 1.61937 161.578C3.42459 156.076 6.66475 151.232 11.7101 146.342C14.1634 143.99 17.0795 141.498 28.2812 135.103C43.2785 126.544 49.3422 124.428 53.7858 122.876C57.1186 121.701 59.1089 121.042 63.46 117.986C65.1726 116.763 67.9962 114.788 70.4495 115.446H70.6809L71.5141 115.917C74.0599 117.562 73.5045 120.525 71.3752 131.482C70.7735 134.632 69.1997 143.003 66.0521 148.223C65.0338 149.869 64.0154 151.608 61.9325 152.69L61.053 153.113C60.4976 153.348 59.757 153.725 58.5535 154.336C57.9054 154.665 57.7666 154.759 57.6277 154.853C57.35 155.182 57.3037 155.653 57.2574 156.029C56.8871 158.709 55.6373 160.496 53.6007 163.506C51.7954 166.139 50.6845 167.738 48.4627 168.584C47.0278 169.102 44.6671 169.525 41.5658 168.302L41.2881 168.161C40.316 170.842 38.4182 174.274 34.8541 175.967C32.2157 177.237 28.9292 177.378 27.6332 177.378C26.9388 177.284 26.2445 177.378 25.6891 177.284C24.7633 178.695 23.2821 180.388 21.014 181.563C18.7459 182.739 16.6166 182.974 15.1817 182.974V182.927ZM68.8294 120.102C68.2276 120.384 67.3945 120.901 66.2836 121.654C61.2845 125.133 58.8312 126.027 55.3596 127.202C51.1011 128.66 45.2226 130.682 30.5956 139.053C19.8568 145.213 17.1258 147.47 14.904 149.633C10.3678 154.007 7.54422 158.239 5.97043 163.036C4.99838 165.951 3.56346 170.324 5.46126 173.428C6.52588 175.168 8.51626 176.297 9.25687 176.72C10.0901 177.19 11.7564 178.178 14.2097 178.319C15.1354 178.366 17.0332 178.507 18.9773 177.472C21.014 176.391 22.0786 174.698 22.5415 173.757L23.2821 172.205L24.9485 172.535C25.5965 172.676 26.5223 172.77 27.6332 172.77C29.2532 172.77 31.4751 172.535 32.9563 171.829C36.4279 170.183 37.5851 165.199 37.7702 164.211L38.5108 160.308L41.4732 162.941C42.0287 163.412 42.5842 163.788 43.2322 164.023C45.0374 164.728 46.2409 164.54 46.9815 164.305C47.861 163.976 48.4164 163.224 49.9902 160.966C51.9343 158.145 52.6749 156.969 52.9064 155.559C52.9989 154.853 53.1841 153.301 54.3876 151.891C55.1282 151.091 55.8688 150.715 56.6557 150.292C57.9054 149.68 58.6923 149.304 59.2478 149.022L59.9421 148.693C60.8679 148.223 61.377 147.423 62.3028 145.918C65.0338 141.404 66.515 133.645 67.0704 130.729C67.7185 127.25 68.6905 122.312 68.7831 120.196L68.8294 120.102Z" fill="#2B2B2B"/>
</g>
<path d="M28.3745 107.123C27.495 106.982 26.5692 107.405 26.0601 108.157C25.7823 108.581 25.6435 109.051 25.5046 109.568C25.1806 110.932 25.1806 112.343 25.1806 113.753C25.1806 114.365 25.1806 114.976 25.412 115.54C25.7823 116.528 26.7081 117.139 27.6801 117.562C28.0505 117.703 28.3745 117.845 28.7911 117.797C29.7631 117.797 30.5037 116.81 30.874 115.869C31.522 114.271 31.6146 112.39 31.1517 110.697C30.7814 109.286 29.9483 107.311 28.3282 107.076L28.3745 107.123Z" fill="#414042"/>
<path d="M27.3099 109.098C27.0784 109.474 26.9858 109.991 26.9858 110.462C26.9858 110.838 27.0784 111.167 27.2636 111.496C27.5876 112.06 28.2819 112.296 28.9299 112.155C31.8461 111.402 28.9299 106.7 27.3099 109.145V109.098Z" fill="white"/>
</g>
<defs>
<clipPath id="clip0_232_1434">
<rect width="1020" height="196" fill="white"/>
</clipPath>
</defs>
</svg>
