<svg width="351" height="154" viewBox="0 0 351 154" fill="none" xmlns="http://www.w3.org/2000/svg">
<g clip-path="url(#clip0_783_4987)">
<path d="M242.216 50.5354C235.013 50.5354 229.936 51.3777 226.985 53.0179C224.034 54.658 222.559 57.0961 222.559 60.3765V65.3414L223.167 68.1785L223.253 71.4145C223.253 79.3051 221.735 87.3287 218.741 95.441C215.747 103.553 213.143 107.632 210.973 107.632C209.845 107.632 208.587 106.124 207.198 103.066C201.774 91.1411 199.084 80.5907 199.084 71.4588C199.084 58.0271 193.53 51.3333 182.421 51.3333C176.694 51.3333 172.137 52.5302 168.796 54.9683C165.455 57.4065 163.806 61.9724 163.806 68.6218L164.023 72.0795L164.11 75.4042C164.11 82.6742 162.982 89.6339 160.725 96.2389C158.469 102.844 156.256 106.169 154.086 106.169C151.396 106.169 148.489 101.204 145.451 91.274C144.713 88.8359 143.629 83.0731 142.24 73.897C140.808 64.7651 139.68 59.4456 138.812 57.9384C136.425 53.7271 131.566 51.2447 124.406 50.5354C124.536 51.023 124.623 51.4663 124.666 51.9983C124.753 52.8405 124.623 53.7271 124.449 54.5251C124.276 55.323 123.929 56.0766 123.581 56.7858C123.234 57.4951 122.714 58.1601 122.236 58.7807C121.455 59.8002 120.414 60.6425 119.329 61.3074C118.635 61.7507 117.854 62.061 117.116 62.327C116.465 62.593 116.422 62.593 115.077 62.726C113.211 62.9919 113.211 62.9476 112.126 63.5239C111.388 63.9229 110.781 64.4548 110.39 65.3857C116.899 68.0012 120.153 71.8135 124.102 76.2464C127.66 80.1917 130.568 84.536 132.694 89.9442C134.516 94.5544 133.996 99.4306 132.954 104.706C132.477 107.011 131.739 108.961 130.828 111.089C130.09 112.862 128.138 115.035 126.879 116.497C128.571 121.241 130.003 125.097 131.175 128.245C131.566 128.112 134.212 128.821 134.646 128.954C140.157 130.461 139.506 134.85 133.952 135.603C134.039 135.825 134.56 136.8 134.646 136.933C138.205 143.76 142.283 147.173 146.84 147.173C151.396 147.173 154.867 145.045 157.254 140.79C158.642 138.307 162.244 129.752 168.015 115.212C173.786 100.672 177.127 93.4018 177.995 93.4018C178.342 93.4018 181.38 100.628 187.108 115.079C192.835 129.53 196.22 137.731 197.218 139.682C199.908 144.957 203.076 147.572 206.634 147.572C212.449 147.572 216.918 144.469 219.999 138.263C220.606 137.111 223.384 129.397 228.374 115.079C233.364 100.761 236.575 91.274 238.05 86.6195C239.482 81.9649 240.914 77.9309 242.303 74.4732C243.691 71.0155 245.817 67.6909 248.681 64.4991C251.545 61.3074 252.977 58.692 252.977 56.6529C252.977 52.4859 249.376 50.3581 242.172 50.3581L242.216 50.5354Z" fill="#FEFAE0"/>
<path d="M124.059 102.356C125.013 98.9874 125.23 95.2194 124.275 91.8947C123.755 90.1215 122.93 89.2349 121.672 87.8607C119.98 86.0432 118.461 84.0484 116.725 82.2752C115.467 80.9453 114.035 79.7484 112.56 78.5959C112.82 79.1722 113.124 79.7041 113.384 80.2804C115.51 85.201 118.721 93.6678 122.974 105.592C123.364 104.44 123.755 103.287 124.015 102.312L124.059 102.356Z" fill="#FEFAE0"/>
<path d="M265.691 146.464C260.875 146.464 257.664 145.622 256.145 143.893C254.583 142.164 253.802 140.081 253.802 137.687C253.802 135.293 254.409 130.018 255.667 121.95C256.926 113.882 257.533 108.341 257.533 105.282L257.62 102.844V92.9142L257.707 87.9493V70.4393C257.707 44.3293 257.36 29.3903 256.709 25.578C256.058 21.81 254.409 18.8843 251.849 16.7565C247.423 13.1215 245.21 10.6834 245.21 9.48649C245.21 6.64941 247.814 4.52161 253.021 3.10307C260.701 1.01959 266.863 -0.0443115 271.549 -0.0443115H273.849C278.752 -0.0443115 281.659 1.95051 282.657 5.94014C283.308 8.64423 283.656 16.4905 283.656 29.5233C283.656 42.5561 283.829 49.8261 284.133 51.289C284.654 53.6385 286.389 54.8354 289.296 54.8354L291.857 53.9044C299.711 51.0674 306.436 49.6488 311.991 49.6488C323.967 49.6488 333.426 54.1704 340.413 63.2579C347.399 72.3454 350.914 83.3391 350.914 96.1946V98.7214C350.914 105.592 349.525 112.375 346.748 118.98C341.411 131.88 332.949 140.701 321.363 145.4C315.071 147.971 308.953 149.257 302.922 149.257H300.535C298.539 149.257 295.502 148.813 291.423 147.927C287.344 147.04 283.178 146.597 278.926 146.597L276.756 146.375C274.5 146.154 273.024 146.065 272.287 146.065L269.987 146.154C267.991 146.287 266.516 146.375 265.518 146.375L265.691 146.464ZM283.308 117.916C283.308 123.634 284.654 128.112 287.3 131.348C289.991 134.539 293.636 136.135 298.365 136.135H302.922C308.129 136.135 312.685 132.988 316.547 126.649C320.409 120.354 322.361 112.552 322.361 103.332V96.5492C322.361 86.3092 320.365 78.1082 316.373 71.9465C312.381 65.7847 307.478 62.726 301.663 62.726H299.971C293.419 62.726 288.906 64.9868 286.389 69.5527C283.872 74.1186 282.614 83.6494 282.614 98.1451V100.184L282.701 101.204V106.169L282.788 107.188V109.227L283.178 116.01C283.222 116.675 283.265 117.34 283.265 117.916H283.308Z" fill="#FEFAE0"/>
<path d="M126.879 128.954C127.92 129.353 129.005 129.53 130.09 129.796C131.956 130.239 133.735 130.993 135.514 131.747C135.861 131.88 136.252 132.101 136.382 132.456C136.512 132.766 136.382 133.165 136.165 133.431C135.948 133.697 135.601 133.83 135.297 133.963C132.867 134.85 130.133 134.229 127.703 133.298C126.011 132.633 124.319 131.791 123.364 130.239C122.974 129.575 122.713 128.777 122.887 128.023C123.104 127.181 123.841 126.516 124.492 127.136C125.273 127.89 125.794 128.555 126.879 128.954Z" fill="black"/>
<path d="M122.279 115.433C122.757 116.808 123.017 118.226 123.407 119.6C124.102 122.083 125.36 124.477 125.273 127.003C125.273 127.358 125.23 127.713 124.97 127.934C124.753 128.156 124.449 128.2 124.145 128.2C123.321 128.112 122.757 127.358 122.279 126.604C119.936 122.836 118.287 118.581 117.419 114.192C117.202 113.173 117.072 112.064 117.419 111.089C117.897 109.937 119.502 109.094 120.11 110.469C120.804 112.109 121.672 113.705 122.236 115.345L122.279 115.433Z" fill="black"/>
<path d="M101.625 144.425C102.883 145.489 104.489 146.109 105.964 146.774C107.353 147.395 108.741 148.104 110.086 148.858C111.649 149.7 113.384 150.808 113.731 152.581C113.775 152.847 113.818 153.113 113.731 153.379C113.471 153.956 112.69 154.044 112.083 153.956C108.438 153.512 105.313 151.163 102.536 148.725C100.974 147.351 99.4554 145.888 97.98 144.425C97.5895 144.026 97.199 143.627 97.0254 143.139C96.8084 142.652 96.8952 141.987 97.2858 141.632C99.0215 140.036 100.757 143.716 101.668 144.469L101.625 144.425Z" fill="black"/>
<path d="M89.8656 127.58C91.6447 130.151 93.4672 132.811 94.2049 135.869C94.6388 137.642 94.7256 139.549 95.55 141.189C96.4179 142.785 98.4573 143.982 100.019 143.006C100.323 142.829 100.584 142.563 100.714 142.208C100.8 141.942 100.8 141.632 100.8 141.366C100.714 136.579 98.5007 132.057 95.4632 128.422C93.8577 126.471 92.0353 124.743 89.9958 123.235C89.2582 122.659 88.3903 122.127 87.4357 122.127C86.8716 122.127 86.0471 122.438 85.8302 123.014C85.3529 124.078 85.8302 123.59 86.2641 123.989C87.6526 125.053 88.7374 125.984 89.8223 127.58H89.8656Z" fill="black"/>
<path d="M80.1024 135.869C80.4495 136.357 80.8401 136.978 80.6665 137.554C80.5363 138.086 79.9722 138.44 79.4515 138.529C78.9308 138.618 78.3667 138.44 77.846 138.263C76.9782 137.997 76.1537 137.642 75.2859 137.288C74.5482 136.977 73.8539 136.623 73.2464 136.091C71.9881 135.027 68.7336 127.713 71.6843 127.58C72.9861 127.535 75.1557 130.284 76.0235 131.126C77.4989 132.589 78.844 134.185 80.059 135.869H80.1024Z" fill="black"/>
<path d="M71.8141 126.959C71.8575 127.447 71.9442 128.023 71.6405 128.422C71.2934 128.954 70.5557 129.043 69.9916 128.777C69.4275 128.511 69.037 127.979 68.7332 127.447C66.2165 123.235 66.607 117.916 65.1751 113.217C64.9147 112.419 64.611 111.621 64.6977 110.779C64.7845 109.715 65.5222 108.695 66.4768 108.296C70.4255 106.789 69.9916 112.818 70.2953 115.167C70.7727 119.113 71.2934 123.058 71.7707 127.003L71.8141 126.959Z" fill="black"/>
<path d="M52.635 118.049C52.6784 118.448 52.635 118.803 52.5916 119.201C52.1577 122.393 51.203 125.452 49.7277 128.289C49.5541 128.599 49.3806 128.954 49.0768 129.176C48.7731 129.397 48.3392 129.486 48.0788 129.264C47.7317 128.998 47.6883 128.511 47.7317 128.067C47.8184 126.338 48.0788 124.654 48.5561 123.014C49.0334 121.329 49.6843 119.645 49.6843 117.916C49.6843 117.473 49.6843 116.985 49.8579 116.63C50.9427 114.857 52.5048 116.852 52.6784 118.093L52.635 118.049Z" fill="black"/>
<path d="M49.5108 109.493C50.5088 110.735 51.5502 112.064 52.1577 113.572C52.5916 114.636 52.6784 116.054 51.7672 116.719C51.0729 117.207 50.0749 117.074 49.424 116.542C48.7297 116.054 48.2958 115.301 47.8618 114.547C46.4299 112.197 44.9112 109.892 43.2623 107.676C43.1321 107.499 42.9585 107.277 43.0019 107.011C43.0453 106.789 43.2623 106.656 43.4358 106.523C44.6508 105.77 45.4753 104.927 46.6035 105.814C47.7317 106.701 48.5995 108.296 49.5108 109.405V109.493Z" fill="black"/>
<path d="M38.1419 99.4306C38.5324 101.957 39.7908 104.351 41.6567 106.08C42.134 106.523 42.6981 106.967 43.349 107.144C43.9998 107.321 44.7375 107.144 45.1714 106.656C45.8223 105.903 45.5186 104.75 45.3016 103.731C44.9111 102.002 44.7809 100.229 45.128 98.4554C45.2582 97.7461 45.4752 96.9925 45.345 96.2389C45.2148 95.5296 44.8243 94.9533 44.3904 94.4214C43.349 93.1358 40.9624 91.141 39.3135 92.5152C37.7948 93.8008 37.8815 97.6131 38.1419 99.3863V99.4306Z" fill="black"/>
<path d="M19.8302 56.7858C18.5718 55.8993 17.1832 54.924 15.6645 55.1457C15.1438 55.2343 14.5363 55.589 14.6231 56.1209C14.6231 56.6085 15.1872 56.8745 15.6211 57.0518C18.4416 58.2044 21.0885 59.7116 23.5619 61.4848C26.0352 63.3023 28.1181 65.6517 30.3745 67.8238C31.6329 66.8043 30.3745 65.8734 29.5934 65.0311C28.6388 63.9672 27.5974 62.9919 26.5126 62.061C24.3863 60.1992 22.1299 58.4704 19.8302 56.8302V56.7858Z" fill="black"/>
<path d="M8.98201 67.3806C8.02738 67.3363 7.07275 67.3363 6.16151 67.5136C5.33706 67.6909 4.5126 68.0012 3.77494 68.4445C3.29762 68.7105 2.82031 69.2867 3.03727 69.7744C3.21084 70.1733 3.68815 70.262 4.12207 70.3063C6.59543 70.4836 9.06879 70.129 11.5422 70.3063C13.625 70.395 15.7078 70.8826 17.7038 71.6362C18.6585 71.9908 19.6131 72.4785 20.5243 73.0104C21.4356 73.5424 22.26 74.4733 23.1713 74.8722C23.6052 75.0496 23.7354 75.3155 24.1259 74.7393C24.3863 74.3403 24.2995 73.9857 24.0825 73.5867C23.6486 72.8331 22.3902 72.2125 21.6959 71.7249C19.8735 70.528 17.9208 69.5527 15.8814 68.8435C13.6684 68.0899 11.3686 67.6466 9.0254 67.4692L8.98201 67.3806Z" fill="black"/>
<path d="M28.8122 70.8826C27.1199 76.468 27.5538 83.0288 29.7234 88.5256C32.1968 94.7317 38.0547 98.7214 43.9127 101.691C48.7292 104.13 54.1533 106.124 59.3603 104.883C57.8416 108.208 60.7489 111.798 63.4826 114.192C69.2538 119.201 75.7192 123.634 83.0525 125.585C89.0406 127.181 95.3325 127.092 101.494 126.471C105.139 126.117 108.828 125.585 112.299 124.299C119.111 121.817 124.839 116.364 127.79 109.626C130.741 102.888 130.871 94.8647 128.137 88.038C124.579 79.1721 116.551 72.6557 107.656 69.6857C98.7605 66.6713 89.0406 66.8929 79.8415 68.7104C79.1472 68.8434 78.4095 68.9764 77.7587 68.7104C77.1078 68.4444 76.6305 67.8238 76.1965 67.2475C66.6936 54.9683 52.8949 55.6333 39.5735 59.6229C36.3191 60.5982 33.5419 62.593 31.5459 65.3414C30.5913 66.6269 30.114 69.2424 29.1159 70.2619C27.6406 71.7248 26.8595 70.8382 24.8201 71.4588C23.7787 71.7691 22.9976 72.7001 22.3901 73.6753C19.9168 77.5763 19.3093 82.6298 20.7412 87.0184C22.0864 91.0967 25.3842 94.6874 29.5499 95.3523C32.8911 95.8843 36.2323 94.5101 39.3131 93.0472" fill="black"/>
<path d="M94.9419 106.036C103.013 95.4853 105.703 95.4853 118.808 90.3431C123.624 88.4369 125.881 85.4225 127.226 86.0875C128.311 86.6638 129.048 87.772 129.569 88.8802C132.997 96.2389 131.174 104.351 127.53 111.621C126.011 114.591 123.103 118.138 120.674 120.398C116.074 124.61 109.478 125.585 103.317 126.383C98.8906 126.959 87.2615 128.112 84.441 123.324C81.7941 118.803 87.0879 116.276 94.9419 105.991V106.036Z" fill="#FFF7D2"/>
<path d="M84.6578 96.5049C93.4664 86.1761 106.18 76.7783 119.111 75.6701C113.427 65.829 99.1074 65.0311 89.3876 69.2423C82.0109 72.434 74.8512 81.0339 71.1194 88.7916C68.2555 94.8203 67.648 98.4553 66.9972 105.282C66.4331 111.178 68.7328 113.217 73.6362 116.63C75.6322 106.701 78.1056 104.13 84.6578 96.4605V96.5049Z" fill="#FFB300"/>
<path d="M38.4888 64.2331C39.1397 63.1249 40.2679 61.6177 41.3527 60.8198C42.6979 59.8445 45.1713 57.9384 46.8202 57.5394C55.3684 55.4116 60.2284 56.2539 68.8634 59.8889C60.4453 60.2435 55.1515 60.7754 49.6407 66.9815C45.3882 71.7248 42.9582 79.0834 43.3488 85.4225C43.7393 91.7616 44.6939 95.3523 43.9563 101.647C43.7827 103.066 38.1851 99.7852 37.5342 98.544C36.1891 95.8842 35.7551 91.5843 35.2344 88.7029C33.5421 79.6597 33.8893 72.1681 38.5322 64.1888L38.4888 64.2331Z" fill="#FFB300"/>
<g opacity="0.5">
<path d="M74.6346 69.9516C75.1553 69.331 75.9363 68.3558 76.8042 67.1146C81.4906 60.5538 82.6621 55.323 84.8317 49.9591C87.0881 44.285 89.5181 40.783 94.2479 33.9119C100.279 25.179 104.705 21.1008 105.834 20.0812C110.433 15.9586 113.861 14.1854 116.812 13.1215C119.763 12.0576 122.67 11.0823 126.054 12.1906C126.922 12.4565 131.522 14.0967 132.91 18.707C133.605 21.0564 133.171 23.1399 132.867 24.1595C133.041 25.2677 132.91 26.1543 132.824 26.6862C132.259 28.9914 130.48 30.3656 129.352 31.1635C128.615 31.6955 127.964 32.0944 127.486 32.3161C127.53 33.0253 127.573 34.0892 127.486 35.3748C127.4 37.2809 127.356 38.3892 126.835 39.5861C126.141 41.1819 125.013 42.0242 123.841 42.9108C122.843 43.6644 121.108 44.7726 118.591 45.3489C118.851 46.3241 119.155 47.8313 119.112 49.6045C119.112 51.023 119.068 52.3529 118.417 53.6828C117.159 56.4312 114.208 57.5838 113.124 57.9827C111.084 58.7807 110.043 58.4703 107.916 59.7559C107.179 60.1992 106.528 60.5982 105.877 61.3518C104.749 62.6816 104.836 63.6569 103.838 65.1641C103.057 66.3166 102.189 66.9372 101.408 67.4692C99.238 69.0207 97.025 69.2424 94.812 69.5083C91.4708 69.9073 88.1296 70.5279 84.745 71.0155C82.6621 71.2815 79.6247 71.7691 75.8929 72.5227C75.4156 71.6805 74.9817 70.7939 74.5044 69.9516H74.6346Z" fill="white"/>
<path d="M74.9384 74.8722L73.5932 72.3454L68.9937 73.498L73.0725 68.6217C73.5932 68.0011 74.3309 67.1146 75.1554 65.9177C78.5833 61.1301 80.0587 57.0075 81.4906 53.0178C81.9679 51.7323 82.4019 50.4467 82.9226 49.1612C85.2658 43.2654 87.8693 39.5417 92.5556 32.715C96.5911 26.8192 100.844 21.81 104.489 18.5296C108.611 14.8503 112.212 12.5895 116.161 11.171C119.198 10.1071 122.583 8.91018 126.662 10.1957C128.181 10.6834 133.214 12.6782 134.82 18.0863C135.557 20.5245 135.297 22.6966 134.906 24.2481C135.037 25.2234 134.95 26.1543 134.776 27.0852C134.039 30.1439 131.782 31.8284 130.567 32.7593C130.22 33.0253 129.916 33.247 129.569 33.4243C129.569 34.0006 129.569 34.6655 129.569 35.3748C129.482 37.3253 129.396 38.7438 128.745 40.2953C127.834 42.3788 126.402 43.487 125.1 44.4623C123.841 45.3932 122.496 46.1468 120.978 46.6787C121.108 47.654 121.195 48.5849 121.151 49.5602C121.151 51.023 121.108 52.7075 120.283 54.4807C118.678 57.9827 115.076 59.3569 113.905 59.8002C112.95 60.1549 112.212 60.3322 111.518 60.5095C110.65 60.6868 109.999 60.8641 108.958 61.4404C108.22 61.8837 107.83 62.1053 107.439 62.593C107.049 63.0806 106.875 63.4352 106.658 64.0558C106.441 64.6321 106.137 65.3857 105.573 66.228C104.619 67.6908 103.447 68.4888 102.666 69.065C100.106 70.8382 97.5891 71.1485 95.3328 71.4145C93.2499 71.6805 91.3841 71.9464 89.5182 72.2567C88.0429 72.4784 86.6109 72.7001 85.1356 72.9217C83.0961 73.1877 80.1021 73.6753 76.4571 74.4289L75.0252 74.7392L74.9384 74.8722ZM77.0646 70.2176C80.1889 69.6413 82.749 69.2424 84.5715 69.0207C86.0034 68.8434 87.4354 68.5774 88.8673 68.3558C90.7766 68.0455 92.7292 67.7352 94.6385 67.5135C96.8515 67.2475 98.6306 67.0259 100.323 65.829C101.017 65.3414 101.668 64.8981 102.232 64.0558C102.536 63.5682 102.709 63.1692 102.883 62.6816C103.187 61.9724 103.534 61.0414 104.402 60.0662C105.27 59.0466 106.137 58.5147 106.962 58.0714C108.524 57.1405 109.696 56.8745 110.694 56.6528C111.214 56.5199 111.778 56.4312 112.473 56.1209C113.384 55.7663 115.727 54.8353 116.638 52.8405C117.072 51.9096 117.116 51.023 117.116 49.6045C117.116 48.3633 116.985 47.122 116.682 45.8808L116.161 43.8417L118.2 43.354C119.849 42.9551 121.412 42.2458 122.67 41.2706C123.755 40.4726 124.579 39.852 125.056 38.7438C125.404 37.9015 125.447 37.0593 125.534 35.2418C125.577 34.0892 125.534 33.114 125.534 32.449L125.447 31.0748L126.662 30.4542C127.052 30.2769 127.573 29.9666 128.181 29.5233C129.179 28.7697 130.48 27.7945 130.871 26.1986C131.001 25.6667 131.001 25.0904 130.871 24.5141L130.784 24.0265L130.914 23.5389C131.218 22.5193 131.479 20.9678 130.958 19.2832C129.916 15.7369 126.185 14.3627 125.447 14.141C122.626 13.2101 120.11 14.141 117.463 15.072C115.163 15.8699 111.909 17.3771 107.135 21.6327C103.751 24.6914 99.7154 29.479 95.8535 35.1088C91.1671 41.8912 88.8239 45.3045 86.6543 50.757C86.177 51.9983 85.7431 53.2395 85.2657 54.4807C83.747 58.7363 82.1849 63.1249 78.4098 68.3558C77.9325 69.065 77.4551 69.6857 77.0212 70.1733L77.0646 70.2176Z" fill="#2B2B2B"/>
</g>
<g opacity="0.5">
<path d="M62.8755 83.7824C61.5738 82.9401 59.1004 84.7576 57.8854 85.5999C48.5995 92.1606 49.9446 87.4617 26.2959 101.071C16.7062 106.612 14.0592 108.74 11.8896 110.868C7.02969 115.566 4.64311 119.822 3.38474 123.723C2.43011 126.56 0.911379 131.215 3.12438 134.805C4.33937 136.8 6.4222 137.997 7.20326 138.44C8.11449 138.972 9.89358 139.992 12.4971 140.169C13.5819 140.258 15.6214 140.347 17.8344 139.15C20.2643 137.864 21.4793 135.736 21.8698 134.894C22.5207 135.027 23.5187 135.16 24.6903 135.16C25.2544 135.16 28.1617 135.16 30.2879 134.096C34.4536 132.101 35.5384 126.516 35.712 125.762C36.1893 126.206 36.927 126.737 37.8816 127.136C38.3589 127.314 40.4851 128.2 42.6547 127.402C44.0867 126.87 44.8243 125.807 46.2997 123.634C48.0354 121.108 48.99 119.733 49.2504 117.872C49.2938 117.428 49.4239 116.453 50.1182 115.655C50.5087 115.212 50.8559 115.035 51.5501 114.68C53.3292 113.793 54.1103 113.439 54.5442 113.217C55.9328 112.508 56.627 111.355 57.4515 109.981C60.0116 105.725 61.3568 98.81 61.9643 95.6183C63.7434 86.1762 63.9169 84.403 62.9623 83.7824H62.8755Z" fill="white"/>
<path d="M13.5811 142.253C13.1038 142.253 12.7133 142.253 12.4096 142.208C9.28531 142.031 7.15909 140.746 6.24785 140.214C5.33661 139.682 2.95004 138.307 1.43131 135.869C-1.3024 131.436 0.433286 126.206 1.43131 123.058C3.03682 118.138 5.90071 113.749 10.4569 109.36C12.6265 107.233 15.2734 105.016 25.2537 99.2533C38.6185 91.54 44.0859 89.6782 48.0346 88.2597C51.0287 87.2401 52.8078 86.6195 56.6697 83.8711C58.1884 82.7628 60.7485 80.9897 62.9181 81.6103H63.1351L63.8728 82.0092C66.1292 83.4721 65.6519 86.1319 63.786 95.973C63.2653 98.81 61.8333 106.302 59.0128 111.001C58.1016 112.508 57.1904 114.015 55.3245 114.99L54.5434 115.389C54.0661 115.611 53.3718 115.965 52.3304 116.497C51.7663 116.808 51.6362 116.852 51.506 116.985C51.2456 117.251 51.2022 117.694 51.1588 118.049C50.8117 120.443 49.7269 122.083 47.9044 124.743C46.2555 127.136 45.3009 128.511 43.3048 129.264C42.0031 129.752 39.9202 130.107 37.1431 128.998L36.8828 128.865C36.0149 131.259 34.3226 134.362 31.1116 135.869C28.7684 136.978 25.8178 137.111 24.6462 137.111C24.0387 137.022 23.4312 137.111 22.9105 137.022C22.086 138.263 20.7843 139.77 18.7448 140.879C16.7054 141.942 14.7961 142.164 13.5377 142.164L13.5811 142.253ZM61.4428 85.8216C60.9221 86.0432 60.141 86.5308 59.143 87.2401C54.717 90.3875 52.4606 91.1411 49.3798 92.2493C45.5612 93.5792 40.3108 95.3967 27.2497 102.933C17.66 108.429 15.23 110.513 13.234 112.419C9.19852 116.364 6.63838 120.177 5.24983 124.432C4.38198 127.048 3.08021 130.993 4.81591 133.742C5.77053 135.293 7.54962 136.313 8.2005 136.712C8.93817 137.155 10.4569 138.041 12.6265 138.174C13.451 138.219 15.1433 138.352 16.879 137.421C18.7014 136.446 19.6561 134.894 20.0466 134.096L20.7409 132.722L22.2162 132.988C22.7803 133.077 23.6048 133.21 24.6028 133.21C26.0347 133.21 28.0308 132.988 29.3759 132.367C32.5002 130.904 33.4982 126.383 33.6718 125.496L34.3226 121.994L36.9696 124.344C37.4469 124.787 37.9676 125.097 38.5317 125.319C40.1372 125.94 41.222 125.807 41.8729 125.541C42.654 125.23 43.1313 124.565 44.5632 122.526C46.2989 119.999 46.9932 118.936 47.1668 117.65C47.2535 117.029 47.4271 115.611 48.5119 114.37C49.1628 113.616 49.8137 113.306 50.5513 112.951C51.6362 112.375 52.3738 112.064 52.8945 111.799L53.502 111.488C54.3265 111.045 54.8038 110.336 55.6282 109.006C58.0582 104.972 59.36 97.9678 59.8807 95.3524C60.4882 92.2493 61.3126 87.772 61.3994 85.9102L61.4428 85.8216Z" fill="#2B2B2B"/>
</g>
<path d="M25.341 74.1629C24.56 74.0299 23.7355 74.4289 23.2582 75.0939C22.9978 75.4485 22.8677 75.9361 22.7809 76.3794C22.5205 77.6206 22.4771 78.9062 22.5205 80.1474C22.5205 80.6793 22.5205 81.2556 22.7375 81.7432C23.0846 82.6298 23.9091 83.2061 24.7769 83.5607C25.0807 83.6937 25.4278 83.7824 25.7315 83.7824C26.5994 83.7824 27.2503 82.8958 27.5974 82.0536C28.2049 80.5907 28.2483 78.9505 27.8578 77.399C27.5106 76.1577 26.773 74.3846 25.341 74.1629Z" fill="#414042"/>
<path d="M24.3864 75.8918C24.1695 76.2464 24.0827 76.6897 24.1261 77.0887C24.1261 77.399 24.2129 77.7093 24.3864 78.0196C24.6902 78.5072 25.2977 78.7732 25.8618 78.5959C28.4653 77.9309 25.8618 73.7196 24.4298 75.8918H24.3864Z" fill="white"/>
</g>
<defs>
<clipPath id="clip0_783_4987">
<rect width="351" height="154" fill="white"/>
</clipPath>
</defs>
</svg>
