<svg width="50" height="50" viewBox="0 0 50 50" fill="none" xmlns="http://www.w3.org/2000/svg">
<g clip-path="url(#clip0_710_2339)">
<path fill-rule="evenodd" clip-rule="evenodd" d="M34 25C34 27.3869 33.0518 29.6761 31.364 31.364C29.6761 33.0518 27.3869 34 25 34C22.6131 34 20.3239 33.0518 18.636 31.364C16.9482 29.6761 16 27.3869 16 25C16 22.6131 16.9482 20.3239 18.636 18.636C20.3239 16.9482 22.6131 16 25 16C27.3869 16 29.6761 16.9482 31.364 18.636C33.0518 20.3239 34 22.6131 34 25ZM31.3 25C31.3 25.8273 31.137 26.6466 30.8204 27.4109C30.5038 28.1753 30.0398 28.8698 29.4548 29.4548C28.8698 30.0398 28.1753 30.5038 27.4109 30.8204C26.6466 31.137 25.8273 31.3 25 31.3C24.1727 31.3 23.3534 31.137 22.5891 30.8204C21.8247 30.5038 21.1302 30.0398 20.5452 29.4548C19.9602 28.8698 19.4962 28.1753 19.1796 27.4109C18.863 26.6466 18.7 25.8273 18.7 25C18.7 23.3291 19.3637 21.7267 20.5452 20.5452C21.7267 19.3637 23.3291 18.7 25 18.7C26.6709 18.7 28.2733 19.3637 29.4548 20.5452C30.6363 21.7267 31.3 23.3291 31.3 25Z" fill="#FEFAE0"/>
<path d="M31.3 25C31.3 25.8273 31.137 26.6466 30.8204 27.4109C30.5038 28.1753 30.0398 28.8698 29.4548 29.4548C28.8698 30.0398 28.1753 30.5038 27.4109 30.8204C26.6466 31.137 25.8273 31.3 25 31.3C24.1727 31.3 23.3534 31.137 22.5891 30.8204C21.8247 30.5038 21.1302 30.0398 20.5452 29.4548C19.9602 28.8698 19.4962 28.1753 19.1796 27.4109C18.863 26.6466 18.7 25.8273 18.7 25C18.7 23.3291 19.3637 21.7267 20.5452 20.5452C21.7267 19.3637 23.3291 18.7 25 18.7C26.6709 18.7 28.2733 19.3637 29.4548 20.5452C30.6363 21.7267 31.3 23.3291 31.3 25Z" fill="#FEFAE0"/>
<path fill-rule="evenodd" clip-rule="evenodd" d="M23.1652 4.93388C23.3512 4.63291 23.6107 4.38425 23.9193 4.21134C24.228 4.03842 24.5755 3.94695 24.9293 3.94554C25.2831 3.94413 25.6314 4.03283 25.9414 4.20328C26.2514 4.37372 26.5129 4.62031 26.7012 4.91978L29.8654 9.95629C30.0965 10.3247 30.437 10.6116 30.8394 10.7767C31.2417 10.9418 31.6857 10.9768 32.1089 10.8769L37.8957 9.50838C38.24 9.42705 38.5993 9.43473 38.9398 9.53071C39.2803 9.62668 39.5907 9.80778 39.8419 10.0569C40.093 10.3061 40.2766 10.6151 40.3753 10.9548C40.4739 11.2945 40.4845 11.6538 40.4059 11.9987L39.0804 17.7965C38.9833 18.2207 39.0215 18.6646 39.1896 19.066C39.3576 19.4674 39.6472 19.8061 40.0176 20.0346L45.0774 23.1583C45.3787 23.3442 45.6277 23.6039 45.8009 23.9127C45.974 24.2216 46.0655 24.5695 46.0669 24.9236C46.0682 25.2776 45.9793 25.6262 45.8085 25.9364C45.6377 26.2465 45.3906 26.508 45.0907 26.6962L40.055 29.8584C39.6866 30.0895 39.3997 30.4301 39.2346 30.8325C39.0695 31.2348 39.0345 31.6787 39.1344 32.102L40.504 37.8915C40.5853 38.2358 40.5776 38.5951 40.4817 38.9356C40.3857 39.2761 40.2046 39.5866 39.9555 39.8377C39.7063 40.0888 39.3973 40.2724 39.0576 40.3711C38.7178 40.4697 38.3586 40.4803 38.0137 40.4017L32.2159 39.0762C31.792 38.9791 31.3484 39.0171 30.9472 39.1848C30.546 39.3525 30.2073 39.6416 29.9786 40.0114L26.8541 45.0732C26.6682 45.3745 26.4085 45.6235 26.0996 45.7967C25.7908 45.9698 25.4429 46.0613 25.0888 46.0627C24.7347 46.064 24.3862 45.9751 24.076 45.8043C23.7658 45.6335 23.5043 45.3864 23.3162 45.0865L20.1539 40.0508C19.9228 39.6824 19.5823 39.3955 19.1799 39.2304C18.7776 39.0653 18.3336 39.0303 17.9104 39.1302L12.1209 40.4998C11.7765 40.5811 11.417 40.5733 11.0764 40.4772C10.7358 40.381 10.4254 40.1997 10.1743 39.9504C9.92317 39.701 9.73974 39.3917 9.64128 39.0518C9.54281 38.7119 9.53256 38.3525 9.61149 38.0075L10.937 32.2098C11.0341 31.7859 10.9961 31.3423 10.8284 30.9411C10.6607 30.5399 10.3716 30.2012 10.0017 29.9725L4.93919 26.8499C4.63784 26.664 4.38885 26.4043 4.21572 26.0954C4.04259 25.7866 3.95104 25.4387 3.94971 25.0846C3.94838 24.7305 4.03732 24.382 4.20812 24.0718C4.37892 23.7617 4.62596 23.5001 4.9259 23.312L9.96241 20.1478C10.3308 19.9167 10.6177 19.5761 10.7828 19.1738C10.9479 18.7714 10.9829 18.3275 10.883 17.9043L9.51257 12.1167C9.43128 11.7723 9.43907 11.4128 9.5352 11.0722C9.63134 10.7316 9.81264 10.4212 10.062 10.1701C10.3114 9.91898 10.6206 9.73555 10.9606 9.63708C11.3005 9.53862 11.6599 9.52837 12.0048 9.6073L17.8034 10.9308C18.2271 11.0274 18.6704 10.9891 19.0712 10.8213C19.472 10.6535 19.8103 10.3645 20.0388 9.99482L23.1652 4.93388ZM22.6977 11.6369L24.9438 7.99803L27.2176 11.6207C27.796 12.5413 28.6479 13.2579 29.6541 13.67C30.6603 14.082 31.7701 14.1688 32.8281 13.9183L36.9874 12.9323L36.0347 17.1014C35.7924 18.1612 35.8879 19.2702 36.3077 20.2731C36.7274 21.2759 37.4505 22.1222 38.3755 22.6935L42.0124 24.9388L38.3917 27.2134C37.4711 27.7918 36.7545 28.6437 36.3424 29.6499C35.9304 30.6561 35.8436 31.7659 36.0941 32.8239L37.0782 36.9824L32.911 36.0305C31.851 35.7877 30.7416 35.8828 29.7384 36.3025C28.7351 36.7221 27.8884 37.4453 27.317 38.3705L25.0736 42.0082L22.799 38.3875C22.2209 37.4667 21.3692 36.7498 20.3632 36.3374C19.3572 35.925 18.2473 35.8378 17.1893 36.088L13.03 37.074L13.9827 32.9049C14.2244 31.8453 14.1286 30.7366 13.7087 29.7341C13.2888 28.7317 12.5659 27.8857 11.6411 27.3147L8.00496 25.0674L11.6249 22.7948C12.5455 22.2164 13.2621 21.3644 13.6741 20.3583C14.0862 19.3521 14.173 18.2422 13.9225 17.1843L12.9384 13.0258L17.1056 13.9777C18.1656 14.2204 19.275 14.1253 20.2782 13.7057C21.2814 13.2861 22.1281 12.5629 22.6996 11.6377" fill="#FEFAE0"/>
</g>
<defs>
<clipPath id="clip0_710_2339">
<rect width="50" height="50" fill="white"/>
</clipPath>
</defs>
</svg>
